<?xml version="1.0" encoding="UTF-8" standalone="no"?>
<svg
   width="450"
   height="450"
   version="1.1"
   viewBox="0 0 119.06 119.06"
   id="svg8"
   sodipodi:docname="logo.svg"
   inkscape:version="1.1.2 (0a00cf5339, 2022-02-04)"
   xmlns:inkscape="http://www.inkscape.org/namespaces/inkscape"
   xmlns:sodipodi="http://sodipodi.sourceforge.net/DTD/sodipodi-0.dtd"
   xmlns="http://www.w3.org/2000/svg"
   xmlns:svg="http://www.w3.org/2000/svg"
   xmlns:rdf="http://www.w3.org/1999/02/22-rdf-syntax-ns#"
   xmlns:cc="http://creativecommons.org/ns#"
   xmlns:dc="http://purl.org/dc/elements/1.1/">
  <metadata
     id="metadata14">
    <rdf:RDF>
      <cc:Work
         rdf:about="">
        <dc:format>image/svg+xml</dc:format>
        <dc:type
           rdf:resource="http://purl.org/dc/dcmitype/StillImage" />
      </cc:Work>
    </rdf:RDF>
  </metadata>
  <defs
     id="defs12" />
  <sodipodi:namedview
     inkscape:document-rotation="0"
     pagecolor="#868686"
     bordercolor="#666666"
     borderopacity="1"
     objecttolerance="10"
     gridtolerance="10"
     guidetolerance="10"
     inkscape:pageopacity="0"
     inkscape:pageshadow="2"
     inkscape:window-width="1920"
     inkscape:window-height="1030"
     id="namedview10"
     showgrid="true"
     inkscape:snap-bbox="true"
     inkscape:bbox-nodes="true"
     inkscape:snap-bbox-edge-midpoints="true"
     inkscape:snap-nodes="false"
     showguides="true"
     inkscape:guide-bbox="true"
     inkscape:zoom="1.8101934"
     inkscape:cx="270.96553"
     inkscape:cy="153.29854"
     inkscape:window-x="0"
     inkscape:window-y="24"
     inkscape:window-maximized="1"
     inkscape:current-layer="svg8"
     inkscape:pagecheckerboard="0">
    <inkscape:grid
       type="xygrid"
       id="grid839" />
    <sodipodi:guide
       position="59.53,62.175778"
       orientation="1,0"
       id="guide841" />
  </sodipodi:namedview>
  <path
     inkscape:connector-curvature="0"
     style="color:#4d4d4d;fill:#eff0f1;fill-opacity:1;stroke:none;stroke-width:2.31506"
     d="m 51.592655,44.978224 c -1.282535,0 -2.315035,1.032517 -2.315035,2.315057 0,1.28254 1.0325,2.315053 2.315035,2.315053 1.282528,0 2.315075,-1.032513 2.315075,-2.315053 0,-1.28254 -1.032547,-2.315057 -2.315075,-2.315057 z m 16.20539,0 -4.630103,4.63011 6.945179,6.945167 -6.945179,6.945168 4.630103,4.63011 6.945179,-6.945168 4.630109,-4.63011 z M 45.805008,58.868558 c -1.923776,0 -3.472566,1.548772 -3.472566,3.472582 0,1.92381 1.54879,3.472582 3.472566,3.472582 1.923822,0 3.472612,-1.548772 3.472612,-3.472582 0,-1.92381 -1.54879,-3.472582 -3.472612,-3.472582 z m 10.41775,13.89033 c -2.565062,0 -4.630103,2.065031 -4.630103,4.630111 0,2.56508 2.065041,4.63011 4.630103,4.63011 2.565109,0 4.630109,-2.06503 4.630109,-4.63011 0,-2.56508 -2.065,-4.630111 -4.630109,-4.630111 z"
     id="path3392"
     class="ColorScheme-Text" />
</svg>
