<?xml version="1.0" encoding="UTF-8" standalone="no"?>
<!-- Created using Karbon, part of Calligra: http://www.calligra.org/karbon -->

<svg
   xmlns:dc="http://purl.org/dc/elements/1.1/"
   xmlns:cc="http://creativecommons.org/ns#"
   xmlns:rdf="http://www.w3.org/1999/02/22-rdf-syntax-ns#"
   xmlns:svg="http://www.w3.org/2000/svg"
   xmlns="http://www.w3.org/2000/svg"
   xmlns:sodipodi="http://sodipodi.sourceforge.net/DTD/sodipodi-0.dtd"
   xmlns:inkscape="http://www.inkscape.org/namespaces/inkscape"
   width="24pt"
   height="24pt"
   id="svg2"
   version="1.1"
   inkscape:version="0.48.4 r9939"
   sodipodi:docname="kopete-alt.svg">
  <metadata
     id="metadata41">
    <rdf:RDF>
      <cc:Work
         rdf:about="">
        <dc:format>image/svg+xml</dc:format>
        <dc:type
           rdf:resource="http://purl.org/dc/dcmitype/StillImage" />
      </cc:Work>
    </rdf:RDF>
  </metadata>
  <sodipodi:namedview
     pagecolor="#ffffff"
     bordercolor="#666666"
     borderopacity="1"
     objecttolerance="10"
     gridtolerance="10"
     guidetolerance="10"
     inkscape:pageopacity="0"
     inkscape:pageshadow="2"
     inkscape:window-width="1280"
     inkscape:window-height="748"
     id="namedview39"
     showgrid="false"
     inkscape:zoom="7.8666667"
     inkscape:cx="15"
     inkscape:cy="15"
     inkscape:window-x="0"
     inkscape:window-y="33"
     inkscape:window-maximized="1"
     inkscape:current-layer="svg2" />
  <defs
     id="defs4" />
  <g
     id="layer1">
    <g
       id="kopete-offline"
       transform="translate(-41.2633, -1.13008)"
       fill="none">
      <rect
         id="rect9896"
         width="24"
         height="24"
         x="3.6252999"
         y="3.6250801"
         style="opacity:0;fill:#ffffff;fill-rule:evenodd" />
      <g
         id="g9878"
         transform="translate(3.625, 3.13105)"
         fill="none">
        <path
           id="path9775-6"
           transform="translate(12.0029, 18.494)"
           fill="none"
           stroke="#becfd2"
           stroke-width="2.00000000000"
           stroke-linecap="round"
           stroke-linejoin="miter"
           stroke-miterlimit="4.00000000000"
           d="M0.004 0L0 3.99999" />
        <path
           id="path9777-0"
           transform="translate(12.003, 18.4918)"
           fill="none"
           stroke="#becfd2"
           stroke-width="2.00000000000"
           stroke-linecap="round"
           stroke-linejoin="miter"
           stroke-miterlimit="4.00000000000"
           d="M5.55075 0L0 3.9935" />
        <g
           id="g9863"
           transform=""
           fill="none">
          <path
             id="path12976-2-2"
             transform="translate(22, 6.1404)"
             fill="none"
             stroke="#becfd2"
             stroke-width="2.00000000000"
             stroke-linecap="round"
             stroke-linejoin="miter"
             stroke-miterlimit="4.00000000000"
             d="M0 0L0 8.9909" />
          <path
             id="path9769-9"
             transform="translate(5.26494, 18.494)"
             fill="none"
             stroke="#becfd2"
             stroke-width="2.00000000000"
             stroke-linecap="round"
             stroke-linejoin="miter"
             stroke-miterlimit="4.00000000000"
             d="M0 1e-05L6.72241 0" />
          <path
             id="path9771-9"
             transform="translate(2, 6.02905)"
             fill="none"
             stroke="#becfd2"
             stroke-width="2.00000000000"
             stroke-linecap="round"
             stroke-linejoin="miter"
             stroke-miterlimit="4.00000000000"
             d="M0 0L0 8.9144" />
          <path
             id="path9783-2"
             transform="matrix(0.0959964 0.102444 -0.0961367 0.102594 2 15.1645)"
             fill="none"
             stroke="#becfd2"
             stroke-width="14.25040054000"
             stroke-linecap="round"
             stroke-linejoin="miter"
             stroke-miterlimit="4.00000000000"
             d="M32.5 0C23.5254 8.97463 8.97463 8.97463 0 0C0 0 0 0 0 0" />
          <path
             id="path9788-7"
             transform="matrix(-0.0959964 -0.102444 0.0961367 -0.102594 22 5.82341)"
             fill="none"
             stroke="#becfd2"
             stroke-width="14.25040054000"
             stroke-linecap="round"
             stroke-linejoin="miter"
             stroke-miterlimit="4.00000000000"
             d="M32.5 0C23.5254 8.97463 8.97463 8.97463 0 0C0 0 0 0 0 0" />
          <path
             id="path9790-6"
             transform="matrix(-0.0959964 0.102444 0.0961367 0.102594 22 15.1645)"
             fill="none"
             stroke="#becfd2"
             stroke-width="14.25040054000"
             stroke-linecap="round"
             stroke-linejoin="miter"
             stroke-miterlimit="4.00000000000"
             d="M32.5 0C23.5254 8.97463 8.97463 8.97463 0 0C0 0 0 0 0 0" />
          <path
             id="path9792-1"
             transform="matrix(0.0959964 -0.102444 -0.0961367 -0.102594 2.00602 5.82341)"
             fill="none"
             stroke="#becfd2"
             stroke-width="14.25040054000"
             stroke-linecap="round"
             stroke-linejoin="miter"
             stroke-miterlimit="4.00000000000"
             d="M32.5 0C23.5254 8.97463 8.97463 8.97463 0 0C0 0 0 0 0 0" />
          <path
             id="path9796-3"
             transform="translate(5.43555, 2.49396)"
             fill="none"
             stroke="#becfd2"
             stroke-width="2.00000000000"
             stroke-linecap="round"
             stroke-linejoin="miter"
             stroke-miterlimit="4.00000000000"
             d="M0 0L13.4835 0" />
          <path
             id="path9798-2"
             transform="translate(17.7606, 18.494)"
             fill="none"
             stroke="#becfd2"
             stroke-width="2.00000000000"
             stroke-linecap="round"
             stroke-linejoin="miter"
             stroke-miterlimit="4.00000000000"
             d="M0 0L1.11951 0" />
        </g>
        <g
           id="g9874"
           transform="translate(6.41119, 4.87285)"
           fill="none">
          <path
             id="path7289-4"
             transform="translate(0.579235, 0.625)"
             fill="#5d992d"
             d="M5.02297 1.51545e-10C3.74019 -9.99985e-06 2.43408 0.4951 1.46047 1.46875C-0.486822 3.41604 -0.486822 6.58396 1.46047 8.53125C3.40769 10.4785 6.607 10.4785 8.55422 8.53125C10.5015 6.58396 10.5015 3.41597 8.55422 1.46875C7.58061 0.49514 6.30575 1.00002e-05 5.02297 1.51545e-10ZM2.14797 4.28125L7.86672 4.28125C8.26241 4.28125 8.58547 4.60431 8.58547 5C8.58547 5.39569 8.26241 5.71875 7.86672 5.71875L2.14797 5.71875C1.75228 5.71875 1.42922 5.39569 1.42922 5C1.42922 4.60431 1.75228 4.28125 2.14797 4.28125Z" />
        </g>
      </g>
    </g>
    <g
       id="kopete"
       transform="translate(-0.624997, -0.625004)"
       fill="none">
      <rect
         id="rect9918"
         width="24"
         height="24"
         x="3.6249969"
         y="3.6250041"
         style="opacity:0;fill:#ffffff;fill-rule:evenodd" />
      <g
         id="g9920"
         transform="translate(3.625, 3.13105)"
         fill="none">
        <path
           id="path9922"
           transform="translate(12.0029, 18.494)"
           fill="none"
           stroke="#becfd2"
           stroke-width="2.00000000000"
           stroke-linecap="round"
           stroke-linejoin="miter"
           stroke-miterlimit="4.00000000000"
           d="M0.004 0L0 3.99999" />
        <path
           id="path9924"
           transform="translate(12.003, 18.4918)"
           fill="none"
           stroke="#becfd2"
           stroke-width="2.00000000000"
           stroke-linecap="round"
           stroke-linejoin="miter"
           stroke-miterlimit="4.00000000000"
           d="M5.55075 0L0 3.9935" />
        <g
           id="g9926"
           transform=""
           fill="none">
          <path
             id="path9928"
             transform="translate(22, 6.1404)"
             fill="none"
             stroke="#becfd2"
             stroke-width="2.00000000000"
             stroke-linecap="round"
             stroke-linejoin="miter"
             stroke-miterlimit="4.00000000000"
             d="M0 0L0 8.9909" />
          <path
             id="path9930"
             transform="translate(5.26494, 18.494)"
             fill="none"
             stroke="#becfd2"
             stroke-width="2.00000000000"
             stroke-linecap="round"
             stroke-linejoin="miter"
             stroke-miterlimit="4.00000000000"
             d="M0 1e-05L6.72241 0" />
          <path
             id="path9932"
             transform="translate(2, 6.02905)"
             fill="none"
             stroke="#becfd2"
             stroke-width="2.00000000000"
             stroke-linecap="round"
             stroke-linejoin="miter"
             stroke-miterlimit="4.00000000000"
             d="M0 0L0 8.9144" />
          <path
             id="path9934"
             transform="matrix(0.0959964 0.102444 -0.0961367 0.102594 2 15.1645)"
             fill="none"
             stroke="#becfd2"
             stroke-width="14.25040054000"
             stroke-linecap="round"
             stroke-linejoin="miter"
             stroke-miterlimit="4.00000000000"
             d="M32.5 0C23.5254 8.97463 8.97463 8.97463 0 0C0 0 0 0 0 0" />
          <path
             id="path9936"
             transform="matrix(-0.0959964 -0.102444 0.0961367 -0.102594 22 5.82341)"
             fill="none"
             stroke="#becfd2"
             stroke-width="14.25040054000"
             stroke-linecap="round"
             stroke-linejoin="miter"
             stroke-miterlimit="4.00000000000"
             d="M32.5 0C23.5254 8.97463 8.97463 8.97463 0 0C0 0 0 0 0 0" />
          <path
             id="path9938"
             transform="matrix(-0.0959964 0.102444 0.0961367 0.102594 22 15.1645)"
             fill="none"
             stroke="#becfd2"
             stroke-width="14.25040054000"
             stroke-linecap="round"
             stroke-linejoin="miter"
             stroke-miterlimit="4.00000000000"
             d="M32.5 0C23.5254 8.97463 8.97463 8.97463 0 0C0 0 0 0 0 0" />
          <path
             id="path9940"
             transform="matrix(0.0959964 -0.102444 -0.0961367 -0.102594 2.00602 5.82341)"
             fill="none"
             stroke="#becfd2"
             stroke-width="14.25040054000"
             stroke-linecap="round"
             stroke-linejoin="miter"
             stroke-miterlimit="4.00000000000"
             d="M32.5 0C23.5254 8.97463 8.97463 8.97463 0 0C0 0 0 0 0 0" />
          <path
             id="path9942"
             transform="translate(5.43555, 2.49396)"
             fill="none"
             stroke="#becfd2"
             stroke-width="2.00000000000"
             stroke-linecap="round"
             stroke-linejoin="miter"
             stroke-miterlimit="4.00000000000"
             d="M0 0L13.4835 0" />
          <path
             id="path9944"
             transform="translate(17.7606, 18.494)"
             fill="none"
             stroke="#becfd2"
             stroke-width="2.00000000000"
             stroke-linecap="round"
             stroke-linejoin="miter"
             stroke-miterlimit="4.00000000000"
             d="M0 0L1.11951 0" />
        </g>
      </g>
    </g>
  </g>
</svg>
