<?xml version="1.0" encoding="UTF-8"?>
<svg id="svg4428" width="119.47" height="29.867" version="1.1" xmlns="http://www.w3.org/2000/svg" xmlns:xlink="http://www.w3.org/1999/xlink">
 <defs id="defs4430">
  <filter id="filter5355" x="-.18541" y="-.3792" width="1.3709" height="1.7584">
   <feGaussianBlur id="feGaussianBlur5357" stdDeviation="1.2065266"/>
  </filter>
 </defs>
 <g id="layer1" transform="translate(0 -1092.7)">
  <path id="path3863" transform="matrix(.99863 0 0 .91748 122.44 158.28)" d="m-22.666 1038.6h15.888c-0.37428-10.748-15.894-9.9594-15.888 0z" style="filter:url(#filter5355);opacity:0;stroke-width:.1"/>
  <g id="active-center" transform="matrix(.022118 0 0 -.022118 2.8148 1117.9)" style="fill:#ff5555">
   <path id="path4094" d="m507.23 11.263c242.9 0 439.81 196.91 439.81 439.82 0 242.91-196.91 439.82-439.81 439.82-242.91 0-439.82-196.91-439.82-439.82 0-242.9 196.91-439.82 439.82-439.82" style="fill-rule:evenodd;fill:#ff5555;stroke-width:32.232;stroke:#ff5555"/>
  </g>
  <g id="hover-center" transform="matrix(.022118 0 0 -.022118 25.48 1117.8)">
   <path id="path4094-6" d="m462.87 899.09c242.9 0 439.82-196.91 439.82-439.82 0-242.91-196.91-439.82-439.82-439.82-242.91 0-439.82 196.91-439.82 439.82 0 242.91 196.91 439.82 439.82 439.82" style="fill-rule:evenodd;fill:#ff5555;stroke-width:32.233;stroke:#ff5555"/>
   <path id="path18" d="m246.82 299.19 376.41 376.41c14.567 14.566 38.4 14.566 52.975 0l0.69653-0.704c14.571-14.566 14.571-38.4 4e-3 -52.971l-376.41-376.41c-14.571-14.571-38.404-14.571-52.971 0l-0.704 0.69546c-14.567 14.571-14.567 38.409 0 52.975" style="fill-rule:evenodd;fill:#46413c"/>
   <path id="path20" d="m300.5 675.6 376.41-376.41c14.566-14.566 14.566-38.404 0-52.971l-0.7008-0.69973c-14.571-14.571-38.403-14.571-52.971 0l-376.41 376.41c-14.572 14.571-14.572 38.404 0 52.975l0.69974 0.69974c14.571 14.571 38.404 14.571 52.975 0" style="fill-rule:evenodd;fill:#46413c"/>
  </g>
  <g id="pressed-center" transform="matrix(.022118 0 0 -.022118 47.96 1117.9)">
   <path id="path14-4" d="m461.87 10.287c251.8 0 455.92 204.13 455.92 455.92 0 251.8-204.12 455.93-455.92 455.93-251.8 0-455.93-204.12-455.93-455.93 0-251.8 204.13-455.92 455.93-455.92" style="fill-rule:evenodd;fill:#cc0000"/>
   <path id="path16-2" d="m461.87 49.063c230.38 0 417.14 186.77 417.14 417.15 0 230.39-186.76 417.15-417.14 417.15-230.39 0-417.15-186.76-417.15-417.15 0-230.38 186.76-417.15 417.15-417.15" style="fill-rule:evenodd;fill:#cc0000"/>
   <path id="path18-6" d="m246.82 304.84 376.41 376.41c14.567 14.571 38.4 14.571 52.975 0l0.69653-0.69973c14.571-14.567 14.571-38.404 4e-3 -52.972l-376.41-376.41c-14.571-14.571-38.404-14.571-52.971 0l-0.704 0.69547c-14.567 14.571-14.567 38.404 0 52.975" style="fill-rule:evenodd;fill:#46413c"/>
   <path id="path20-2" d="m300.5 681.25 376.41-376.41c14.566-14.566 14.566-38.404 0-52.975l-0.7008-0.69547c-14.571-14.571-38.403-14.571-52.971 0l-376.41 376.41c-14.572 14.567-14.572 38.404 0 52.972l0.69974 0.69973c14.571 14.571 38.404 14.571 52.975 0" style="fill-rule:evenodd;fill:#46413c"/>
  </g>
  <g id="inactive-center" transform="matrix(.022118 0 0 -.022118 75.009 1117.8)" style="fill:#675f58">
   <path id="path4199" d="m289.13 8.2788c251.81 0 455.94 204.13 455.94 455.94 0 251.8-204.13 455.93-455.94 455.93-251.81 0-455.94-204.13-455.94-455.93 0-251.81 204.13-455.94 455.94-455.94" style="fill-rule:evenodd;fill:#675f58"/>
   <path id="path4201" d="m289.13 47.055c230.39 0 417.16 186.77 417.16 417.16 0 230.38-186.77 417.16-417.16 417.16-230.39 0-417.16-186.77-417.16-417.16 0-230.39 186.77-417.16 417.16-417.16" style="fill-rule:evenodd;fill:#675f58"/>
  </g>
  <g id="deactivated-center" transform="matrix(.022118 0 0 -.022118 96.716 1117.8)" style="fill:#675f58">
   <path id="path4199-2" d="m313.42 8.2788c251.81 0 455.94 204.13 455.94 455.94 0 251.8-204.13 455.93-455.94 455.93-251.81 0-455.94-204.13-455.94-455.93 0-251.81 204.13-455.94 455.94-455.94" style="fill-rule:evenodd;fill:#675f58"/>
   <path id="path4201-6" d="m313.42 47.055c230.39 0 417.16 186.77 417.16 417.16 0 230.38-186.77 417.16-417.16 417.16-230.39 0-417.16-186.77-417.16-417.16 0-230.39 186.77-417.16 417.16-417.16" style="fill-rule:evenodd;fill:#675f58"/>
  </g>
 </g>
</svg>
