<?xml version="1.0" encoding="UTF-8"?>
<svg id="svg4428" width="119.47" height="29.867" version="1.1" xmlns="http://www.w3.org/2000/svg" xmlns:xlink="http://www.w3.org/1999/xlink">
 <defs id="defs4430">
  <filter id="filter5355" x="-.18541" y="-.3792" width="1.3709" height="1.7584">
   <feGaussianBlur id="feGaussianBlur5357" stdDeviation="1.2065266"/>
  </filter>
 </defs>
 <g id="layer1" transform="translate(0 -1092.7)">
  <path id="path3863" transform="matrix(.99863 0 0 .91748 122.44 158.28)" d="m-22.666 1038.6h15.888c-0.37428-10.748-15.894-9.9594-15.888 0z" style="filter:url(#filter5355);opacity:0;stroke-width:.1"/>
  <g id="active-center" transform="matrix(.022118 0 0 -.022118 2.8148 1117.9)" style="fill:#bd93f9">
   <path id="path14" d="m458.88 7.8583c251.8 0 455.92 204.12 455.92 455.93 0 251.8-204.12 455.92-455.92 455.92-251.8 0-455.92-204.13-455.92-455.92 0-251.8 204.13-455.93 455.92-455.93" style="enable-background:new;fill-rule:evenodd;fill:#bd93f9"/>
   <path id="path16" d="m458.88 46.638c230.38 0 417.15 186.76 417.15 417.15 0 230.38-186.77 417.14-417.15 417.14-230.38 0-417.15-186.76-417.15-417.14 0-230.39 186.77-417.15 417.15-417.15" style="enable-background:new;fill-rule:evenodd;fill:#bd93f9"/>
  </g>
  <g id="hover-center" transform="matrix(.022118 0 0 -.022118 25.48 1117.8)">
   <path id="path14-3" d="m461.86 916.49c-251.8 0-455.92-204.12-455.92-455.93 0-251.8 204.12-455.92 455.92-455.92 251.8 0 455.93 204.13 455.93 455.92 0 251.8-204.13 455.93-455.93 455.93" style="enable-background:new;fill-rule:evenodd;fill:#bd93f9"/>
   <path id="path16-5" d="m461.86 877.71c-230.39 0-417.15-186.76-417.15-417.15 0-230.38 186.77-417.14 417.15-417.14 230.38 0 417.15 186.76 417.15 417.14 0 230.39-186.77 417.15-417.15 417.15" style="enable-background:new;fill-rule:evenodd;fill:#bd93f9"/>
   <path id="path18-6" d="m210.74 382.46 202.33 202.33c26.838 26.838 70.749 26.838 97.587 6e-4l202.33-202.33-502.25 1e-3" style="enable-background:new;fill-rule:evenodd;fill:#46413c"/>
  </g>
  <g id="pressed-center" transform="matrix(.022118 0 0 -.022118 47.96 1117.9)">
   <path id="path14-2" d="m461.86 10.287c251.8 0 455.92 204.12 455.92 455.93 0 251.79-204.12 455.92-455.92 455.92-251.8 0-455.93-204.12-455.93-455.92 0-251.8 204.13-455.93 455.93-455.93" style="fill-rule:evenodd;fill:#a56de2"/>
   <path id="path14-2-3" d="m461.86 922.13c-251.8 0-455.92-204.12-455.92-455.93 0-251.79 204.12-455.92 455.92-455.92 251.8 0 455.93 204.12 455.93 455.92 0 251.8-204.13 455.93-455.93 455.93" style="enable-background:new;fill-rule:evenodd;fill:#a56de2"/>
   <path id="path16-9-6" d="m461.86 883.35c-230.39 0-417.15-186.76-417.15-417.15 0-230.38 186.77-417.14 417.15-417.14 230.38 0 417.15 186.76 417.15 417.14 0 230.39-186.77 417.15-417.15 417.15" style="enable-background:new;fill-rule:evenodd;fill:#a56de2"/>
   <path id="path18-6-3" d="m210.74 387.98 202.33 202.33c26.838 26.838 70.749 26.838 97.587 6e-4l202.33-202.33-502.25 1e-3" style="enable-background:new;fill-rule:evenodd;fill:#46413c"/>
  </g>
  <g id="inactive-center" transform="matrix(.022118 0 0 -.022118 73.959 1117.8)" style="fill:#675f58">
   <path id="path4199" d="m438.92-4.1046c251.81 0 455.94 204.13 455.94 455.94 0 251.8-204.13 455.93-455.94 455.93-251.81 0-455.94-204.13-455.94-455.93 0-251.81 204.13-455.94 455.94-455.94" style="fill-rule:evenodd;fill:#675f58"/>
   <path id="path4201" d="m438.92 34.671c230.39 0 417.16 186.77 417.16 417.16 0 230.38-186.77 417.16-417.16 417.16-230.39 0-417.16-186.77-417.16-417.16 0-230.39 186.77-417.16 417.16-417.16" style="fill-rule:evenodd;fill:#675f58"/>
  </g>
  <g id="deactivated-center" transform="matrix(.022118 0 0 -.022118 96.716 1117.8)">
   <path id="path4199-3" d="m408.52 2.2704c251.81 0 455.94 204.13 455.94 455.94 0 251.8-204.13 455.93-455.94 455.93-251.81 0-455.94-204.13-455.94-455.93 0-251.81 204.13-455.94 455.94-455.94" style="fill-rule:evenodd;fill:#675f58"/>
   <path id="path4201-6" d="m408.52 41.046c230.39 0 417.16 186.77 417.16 417.16 0 230.38-186.77 417.16-417.16 417.16-230.39 0-417.16-186.77-417.16-417.16 0-230.39 186.77-417.16 417.16-417.16" style="fill-rule:evenodd;fill:#675f58"/>
  </g>
 </g>
</svg>
