<?xml version="1.0" encoding="UTF-8"?>
<svg id="svg4428" width="119.47" height="29.867" version="1.1" xmlns="http://www.w3.org/2000/svg" xmlns:xlink="http://www.w3.org/1999/xlink">
 <defs id="defs4430">
  <filter id="filter5355" x="-.18541" y="-.3792" width="1.3709" height="1.7584">
   <feGaussianBlur id="feGaussianBlur5357" stdDeviation="1.2065266"/>
  </filter>
 </defs>
 <g id="layer1" transform="translate(0 -1092.7)">
  <path id="path3863" transform="matrix(.99863 0 0 .91748 122.44 158.28)" d="m-22.666 1038.6h15.888c-0.37428-10.748-15.894-9.9594-15.888 0z" style="filter:url(#filter5355);opacity:0;stroke-width:.1"/>
  <g id="active-center" transform="matrix(.022118 0 0 -.022118 2.8148 1117.9)">
   <path id="path14" d="m458.88 7.8583c251.8 0 455.92 204.12 455.92 455.93 0 251.8-204.12 455.92-455.92 455.92-251.8 0-455.92-204.13-455.92-455.92 0-251.8 204.13-455.93 455.92-455.93" style="enable-background:new;fill-rule:evenodd;fill:#ffb86c"/>
   <path id="path16" d="m458.88 46.638c230.38 0 417.15 186.76 417.15 417.15 0 230.38-186.77 417.14-417.15 417.14-230.38 0-417.15-186.76-417.15-417.14 0-230.39 186.77-417.15 417.15-417.15" style="enable-background:new;fill-rule:evenodd;fill:#ffb86c"/>
  </g>
  <g id="hover-center" transform="matrix(.022118 0 0 -.022118 25.48 1117.8)">
   <path id="path14-3" d="m461.86 4.6374c251.8 0 455.92 204.12 455.92 455.93 0 251.8-204.12 455.92-455.92 455.92-251.8 0-455.93-204.13-455.93-455.92 0-251.8 204.13-455.93 455.93-455.93" style="enable-background:new;fill-rule:evenodd;fill:#ffb86c"/>
   <path id="path16-5-3" d="m461.86 43.417c230.39 0 417.15 186.76 417.15 417.15 0 230.38-186.77 417.14-417.15 417.14-230.38 0-417.15-186.76-417.15-417.14 0-230.39 186.77-417.15 417.15-417.15" style="enable-background:new;fill-rule:evenodd;fill:#ffb86c"/>
   <path id="path18-6" d="m712.99 538.66-202.33-202.33c-26.838-26.838-70.749-26.838-97.587-5.5e-4l-202.33 202.33h502.25" style="enable-background:new;fill-rule:evenodd;fill:#46413c"/>
  </g>
  <g id="pressed-center" transform="matrix(.022118 0 0 -.022118 47.96 1117.9)">
   <path id="path14-2" d="m461.86 10.287c251.8 0 455.92 204.12 455.92 455.93 0 251.79-204.12 455.92-455.92 455.92-251.8 0-455.93-204.12-455.93-455.92 0-251.8 204.13-455.93 455.93-455.93" style="enable-background:new;fill-rule:evenodd;fill:#ff911b"/>
   <path id="path16-9-6" d="m461.86 49.066c230.39 0 417.15 186.76 417.15 417.15 0 230.38-186.77 417.14-417.15 417.14-230.38 0-417.15-186.76-417.15-417.14 0-230.39 186.77-417.15 417.15-417.15" style="enable-background:new;fill-rule:evenodd;fill:#ff911b"/>
   <path id="path18-6-3" d="m712.99 544.44-202.33-202.33c-26.838-26.838-70.749-26.838-97.587-5.4e-4l-202.33 202.33 502.25-1e-3" style="enable-background:new;fill-rule:evenodd;fill:#46413c"/>
  </g>
  <g id="inactive-center" transform="matrix(.022118 0 0 -.022118 73.959 1117.8)" style="fill:#675f58">
   <path id="path4199" d="m406.02 3.4043c251.81 0 455.94 204.13 455.94 455.94 0 251.8-204.13 455.93-455.94 455.93-251.81 0-455.94-204.13-455.94-455.93 0-251.81 204.13-455.94 455.94-455.94" style="fill-rule:evenodd;fill:#675f58"/>
   <path id="path4201" d="m406.02 42.18c230.39 0 417.16 186.77 417.16 417.16 0 230.38-186.77 417.16-417.16 417.16-230.39 0-417.16-186.77-417.16-417.16 0-230.39 186.77-417.16 417.16-417.16" style="fill-rule:evenodd;fill:#675f58"/>
  </g>
  <g id="deactivated-center" transform="matrix(.022118 0 0 -.022118 96.716 1117.8)" style="fill:#675f58">
   <path id="path4199-3" d="m365.59 3.4043c251.81 0 455.94 204.13 455.94 455.94 0 251.8-204.13 455.93-455.94 455.93-251.81 0-455.94-204.13-455.94-455.93 0-251.81 204.13-455.94 455.94-455.94" style="fill-rule:evenodd;fill:#675f58"/>
   <path id="path4201-6" d="m365.59 42.18c230.39 0 417.16 186.77 417.16 417.16 0 230.38-186.77 417.16-417.16 417.16-230.39 0-417.16-186.77-417.16-417.16 0-230.39 186.77-417.16 417.16-417.16" style="fill-rule:evenodd;fill:#675f58"/>
  </g>
 </g>
</svg>
