<?xml version="1.0" encoding="UTF-8"?>
<svg id="svg4428" width="119.47" height="29.867" version="1.1" xmlns="http://www.w3.org/2000/svg" xmlns:xlink="http://www.w3.org/1999/xlink">
 <g id="layer1" transform="translate(0 -1092.7)">
  <g id="active-center" transform="matrix(.022118 0 0 -.022118 5.3618 1118.3)">
   <path id="path4417" d="m461.25 0.34222c251.81 0 455.94 204.13 455.94 455.94 0 251.8-204.13 455.93-455.94 455.93-251.81 0-455.94-204.13-455.94-455.93 0-251.81 204.13-455.94 455.94-455.94" style="fill-rule:evenodd;fill:#f1fa8c"/>
   <path id="path4419" d="m461.26 32.909c233.82 0 423.36 189.55 423.36 423.37 0 233.82-189.55 423.37-423.36 423.37-233.82 0-423.37-189.55-423.37-423.37 0-233.82 189.55-423.37 423.37-423.37" style="fill-rule:evenodd;fill:#f1fa8c"/>
  </g>
  <g id="hover-center" transform="matrix(.022118 0 0 -.022118 27.612 1118.5)">
   <path id="path14-9" d="m461.9 2.0792c251.8 0 455.93 204.12 455.93 455.93 0 251.8-204.12 455.92-455.93 455.92-251.8 0-455.92-204.12-455.92-455.92 0-251.8 204.13-455.93 455.92-455.93" style="fill-rule:evenodd;fill:#f1fa8c"/>
   <path id="path16-6" d="m461.9 40.854c230.38 0 417.15 186.76 417.15 417.15 0 230.38-186.76 417.15-417.15 417.15-230.38 0-417.15-186.76-417.15-417.15 0-230.39 186.77-417.15 417.15-417.15" style="fill-rule:evenodd;fill:#f1fa8c"/>
   <path id="path4186-7-3-3" d="m193.12 458 537.57 9e-3" style="fill-rule:evenodd;fill:#46413c;opacity:.9;stroke-linecap:round;stroke-width:71.846;stroke:#46413c"/>
  </g>
  <g id="inactive-center" transform="matrix(.022118 0 0 -.022118 74.254 1118.3)" style="fill:#675f58">
   <path id="path4199" d="m456.39-18.35c251.81 0 455.94 204.13 455.94 455.94 0 251.8-204.13 455.93-455.94 455.93-251.81 0-455.94-204.13-455.94-455.93 0-251.81 204.13-455.94 455.94-455.94" style="fill-rule:evenodd;fill:#675f58"/>
   <path id="path4201" d="m456.39 20.425c230.39 0 417.16 186.77 417.16 417.16 0 230.38-186.77 417.16-417.16 417.16-230.39 0-417.16-186.77-417.16-417.16 0-230.39 186.77-417.16 417.16-417.16" style="fill-rule:evenodd;fill:#675f58"/>
  </g>
  <g id="pressed-center" transform="matrix(.022118 0 0 -.022118 51.116 1119)">
   <path id="path14-26" d="m464.89 10.287c251.8 0 455.93 204.13 455.93 455.92 0 251.8-204.13 455.93-455.93 455.93-251.8 0-455.92-204.12-455.92-455.93 0-251.8 204.13-455.92 455.92-455.92" style="fill-rule:evenodd;fill:#dbcd0b"/>
   <path id="path16-4" d="m464.89 49.063c230.39 0 417.15 186.77 417.15 417.15 0 230.39-186.76 417.15-417.15 417.15-230.38 0-417.15-186.76-417.15-417.15 0-230.38 186.76-417.15 417.15-417.15" style="fill-rule:evenodd;fill:#dbcd0b"/>
   <path id="path4186-7-3-3-3" d="m196.1 466.21 537.57 0.01" style="fill-rule:evenodd;fill:#46413c;opacity:.9;stroke-linecap:round;stroke-width:71.846;stroke:#46413c"/>
  </g>
  <g id="deactivated-center" transform="matrix(.022118 0 0 -.022118 96.977 1118.1)" style="fill:#675f58">
   <path id="path4199-3" d="m485.08-26.941c251.81 0 455.94 204.13 455.94 455.94 0 251.8-204.13 455.93-455.94 455.93-251.81 0-455.94-204.13-455.94-455.93 0-251.81 204.13-455.94 455.94-455.94" style="fill-rule:evenodd;fill:#675f58"/>
   <path id="path4201-6" d="m485.08 11.835c230.39 0 417.16 186.77 417.16 417.16 0 230.38-186.77 417.16-417.16 417.16-230.39 0-417.16-186.77-417.16-417.16 0-230.39 186.77-417.16 417.16-417.16" style="fill-rule:evenodd;fill:#675f58"/>
  </g>
 </g>
</svg>
