<?xml version="1.0" encoding="UTF-8" standalone="no"?>
<!-- Created with Inkscape (http://www.inkscape.org/) -->

<svg
   xmlns:dc="http://purl.org/dc/elements/1.1/"
   xmlns:cc="http://creativecommons.org/ns#"
   xmlns:rdf="http://www.w3.org/1999/02/22-rdf-syntax-ns#"
   xmlns:svg="http://www.w3.org/2000/svg"
   xmlns="http://www.w3.org/2000/svg"
   xmlns:sodipodi="http://sodipodi.sourceforge.net/DTD/sodipodi-0.dtd"
   xmlns:inkscape="http://www.inkscape.org/namespaces/inkscape"
   version="1.0"
   width="22"
   height="22"
   id="svg3215"
   inkscape:version="0.48.0 r9654"
   sodipodi:docname="amarok.svg">
  <metadata
     id="metadata12">
    <rdf:RDF>
      <cc:Work
         rdf:about="">
        <dc:format>image/svg+xml</dc:format>
        <dc:type
           rdf:resource="http://purl.org/dc/dcmitype/StillImage" />
      </cc:Work>
    </rdf:RDF>
  </metadata>
  <sodipodi:namedview
     pagecolor="#ffffff"
     bordercolor="#666666"
     borderopacity="1"
     objecttolerance="10"
     gridtolerance="10"
     guidetolerance="10"
     inkscape:pageopacity="0"
     inkscape:pageshadow="2"
     inkscape:window-width="640"
     inkscape:window-height="480"
     id="namedview10"
     showgrid="true"
     inkscape:zoom="12.136364"
     inkscape:cx="11"
     inkscape:cy="11"
     inkscape:window-x="56"
     inkscape:window-y="44"
     inkscape:window-maximized="0"
     inkscape:current-layer="svg3215">
    <inkscape:grid
       type="xygrid"
       id="grid2989" />
  </sodipodi:namedview>
  <defs
     id="defs3217" />
  <g
     id="amarok">
    <rect
       y="0"
       x="0"
       height="22"
       width="22"
       id="rect2991"
       style="fill:#000000;fill-opacity:0.00392157;stroke:none" />
    <g
       id="g3205"
       transform="translate(-1,-1)">
      <path
         style="fill:#dfd8c8;fill-opacity:1;fill-rule:evenodd;stroke:none;stroke-width:1.69999993;marker:none;visibility:visible;display:inline;overflow:visible;enable-background:accumulate"
         id="rect2406"
         d="M 8.5,4 C 7.669,4 7,4.669 7,5.5 l 0,13 C 7,19.331 7.669,20 8.5,20 l 8,0 c 0.831,0 1.5,-0.669 1.5,-1.5 l 0,-13 C 18,4.669 17.331,4 16.5,4 l -8,0 z m 4,2 C 14.433374,6 16.000462,7.5671386 16,9.5 16.000462,11.432862 14.433374,13 12.5,13 10.566626,13 8.999538,11.432862 9,9.5 8.9995376,7.5671389 10.566626,6 12.5,6 z M 10,16 c 0.552428,0 1.000202,0.447775 1,1 2.02e-4,0.552225 -0.447572,1 -1,1 -0.5524278,0 -1.000202,-0.447775 -1,-1 -2.019e-4,-0.552225 0.4475726,-1 1,-1 z m 5,0 c 0.552428,0 1.000202,0.447775 1,1 2.02e-4,0.552225 -0.447572,1 -1,1 -0.552428,0 -1.000202,-0.447775 -1,-1 -2.02e-4,-0.552225 0.447572,-1 1,-1 z"
         inkscape:connector-curvature="0" />
      <rect
         style="opacity:0.6;fill:none;stroke:#43423e;stroke-width:0.99999994;stroke-linecap:round;stroke-linejoin:miter;stroke-miterlimit:4;stroke-opacity:1;stroke-dasharray:none;stroke-dashoffset:0;marker:none;visibility:visible;display:inline;overflow:visible;enable-background:accumulate"
         id="rect3178"
         y="3.5"
         x="6.5"
         ry="2"
         rx="2"
         height="17"
         width="12" />
      <path
         style="fill:#dfd8c8;fill-opacity:1;fill-rule:evenodd;stroke:none;stroke-width:1.52846694;marker:none;visibility:visible;display:inline;overflow:visible;enable-background:accumulate"
         id="path3194"
         transform="matrix(0.8743776,0,0,1.4147727,1.7546365,-4.409091)"
         d="m 14.004663,9.8313255 c 0,0.5855545 -0.768058,1.0602415 -1.715506,1.0602415 -0.947448,0 -1.715506,-0.474687 -1.715506,-1.0602415 0,-0.5855549 0.768058,-1.060241 1.715506,-1.060241 0.947448,0 1.715506,0.4746861 1.715506,1.060241 z"
         inkscape:connector-curvature="0" />
      <path
         style="opacity:0.3;fill:none;stroke:#ffffff;stroke-width:0.48934197;stroke-linecap:round;stroke-linejoin:miter;stroke-miterlimit:4;stroke-opacity:1;stroke-dasharray:none;stroke-dashoffset:0;marker:none;visibility:visible;display:inline;overflow:visible;enable-background:accumulate"
         id="path3201"
         transform="matrix(1.0217803,0,0,1.0217803,-0.3522721,-0.2499998)"
         d="m 15.759036,9.5421686 c 0,1.7566644 -1.424058,3.1807234 -3.180723,3.1807234 -1.756665,0 -3.1807231,-1.424059 -3.1807231,-3.1807234 0,-1.7566648 1.4240581,-3.1807231 3.1807231,-3.1807231 1.756665,0 3.180723,1.4240583 3.180723,3.1807231 l 0,0 z"
         inkscape:connector-curvature="0" />
      <path
         style="opacity:0.3;fill:none;stroke:#ffffff;stroke-width:0.90877789;stroke-linecap:round;stroke-linejoin:miter;stroke-miterlimit:4;stroke-opacity:1;stroke-dasharray:none;stroke-dashoffset:0;marker:none;visibility:visible;display:inline;overflow:visible;enable-background:accumulate"
         id="path3203"
         transform="matrix(0.5501894,0,0,0.5501894,5.5795458,4.2500001)"
         d="m 15.759036,9.5421686 c 0,1.7566644 -1.424058,3.1807234 -3.180723,3.1807234 -1.756665,0 -3.1807231,-1.424059 -3.1807231,-3.1807234 0,-1.7566648 1.4240581,-3.1807231 3.1807231,-3.1807231 1.756665,0 3.180723,1.4240583 3.180723,3.1807231 l 0,0 z"
         inkscape:connector-curvature="0" />
    </g>
  </g>
</svg>
