<?xml version="1.0" encoding="UTF-8" standalone="no"?>
<!-- Created with Inkscape (http://www.inkscape.org/) -->

<svg
   xmlns:dc="http://purl.org/dc/elements/1.1/"
   xmlns:cc="http://creativecommons.org/ns#"
   xmlns:rdf="http://www.w3.org/1999/02/22-rdf-syntax-ns#"
   xmlns:svg="http://www.w3.org/2000/svg"
   xmlns="http://www.w3.org/2000/svg"
   xmlns:sodipodi="http://sodipodi.sourceforge.net/DTD/sodipodi-0.dtd"
   xmlns:inkscape="http://www.inkscape.org/namespaces/inkscape"
   version="1.0"
   width="22"
   height="22"
   id="svg2816"
   style="display:inline"
   inkscape:version="0.48.0 r9654"
   sodipodi:docname="kopete.svg">
  <metadata
     id="metadata8">
    <rdf:RDF>
      <cc:Work
         rdf:about="">
        <dc:format>image/svg+xml</dc:format>
        <dc:type
           rdf:resource="http://purl.org/dc/dcmitype/StillImage" />
      </cc:Work>
    </rdf:RDF>
  </metadata>
  <sodipodi:namedview
     pagecolor="#ffffff"
     bordercolor="#666666"
     borderopacity="1"
     objecttolerance="10"
     gridtolerance="10"
     guidetolerance="10"
     inkscape:pageopacity="0"
     inkscape:pageshadow="2"
     inkscape:window-width="693"
     inkscape:window-height="480"
     id="namedview6"
     showgrid="true"
     inkscape:zoom="12.136364"
     inkscape:cx="31.37026"
     inkscape:cy="7.9449614"
     inkscape:window-x="400"
     inkscape:window-y="58"
     inkscape:window-maximized="0"
     inkscape:current-layer="svg2816">
    <inkscape:grid
       type="xygrid"
       id="grid3006" />
  </sodipodi:namedview>
  <defs
     id="defs2818" />
  <g
     id="kopete-offline">
    <rect
       style="fill:#000000;fill-opacity:0.00392157;stroke:none"
       id="rect3778"
       width="22"
       height="22"
       x="25"
       y="1" />
    <g
       transform="translate(11.30112,-3.0842697)"
       id="g3001">
      <g
         style="display:inline"
         id="g2993"
         transform="translate(13.69888,3.0842697)">
        <path
           style="opacity:0.6;fill:#3a3935;fill-opacity:1;fill-rule:evenodd;stroke:none;stroke-width:1.69999993;marker:none;visibility:visible;display:inline;overflow:visible;enable-background:accumulate"
           id="path3162-7"
           d="M 10.5,3 C 5.8201419,3 2.0000001,6.8201419 2,11.5 c 0,4.679858 3.820142,8.5 8.5,8.5 2.036607,0 3.879002,-0.801057 5.34375,-2 L 21,18 c 0.412848,0.01209 0.778152,-0.243952 0.9375,-0.625 0.159348,-0.381049 0.0798,-0.808344 -0.21875,-1.09375 l -3,-3 C 18.853483,12.705488 19,12.139671 19,11.5 19,6.8201419 15.179858,3.0000001 10.5,3 z M 8.3125,8 10.5,10.25 12.75,8.03125 14,9.3125 11.75,11.5 13.96875,13.75 12.6875,15 10.5,12.75 8.25,14.96875 7,13.6875 9.25,11.5 7.03125,9.25 8.3125,8 z"
           inkscape:connector-curvature="0" />
        <path
           style="fill:#eae3d1;fill-opacity:1;fill-rule:evenodd;stroke:none;stroke-width:1;marker:none;visibility:visible;display:inline;overflow:visible;enable-background:accumulate"
           id="path2396-9"
           d="M 10.5,4 C 6.36,4 3.0000001,7.3599999 3,11.5 c 0,4.14 3.3600001,7.5 7.5,7.5 1.964788,0 3.756106,-0.76222 5.09375,-2 L 21,17 17.65625,13.65625 C 17.864192,12.968633 18,12.255184 18,11.5 18,7.36 14.64,4.0000001 10.5,4 z M 8.3125,8 10.5,10.25 12.75,8.03125 14,9.3125 11.75,11.5 13.96875,13.75 12.6875,15 10.5,12.75 8.25,14.96875 7,13.6875 9.25,11.5 7.03125,9.25 8.3125,8 z"
           inkscape:connector-curvature="0" />
      </g>
    </g>
  </g>
  <g
     id="kopete">
    <g
       id="g2997">
      <path
         d="M 10.5,3 C 5.8201419,3 2.0000001,6.8201419 2,11.5 c 0,4.679858 3.820142,8.5 8.5,8.5 2.036607,0 3.879002,-0.801057 5.34375,-2 L 21,18 c 0.412848,0.01209 0.790476,-0.231412 0.949824,-0.61246 0.159347,-0.381048 0.06748,-0.820884 -0.231074,-1.10629 l -3,-3 C 18.853483,12.705488 19,12.139671 19,11.5 19,6.8201419 15.179858,3.0000001 10.5,3 z"
         id="path3162"
         style="opacity:0.6;fill:#3a3935;fill-opacity:1;fill-rule:evenodd;stroke:none;stroke-width:1.69999993;marker:none;visibility:visible;display:inline;overflow:visible;enable-background:accumulate"
         inkscape:connector-curvature="0" />
      <path
         d="M 10.5,4 C 6.36,4 3.0000001,7.3599999 3,11.5 c 0,4.14 3.3600001,7.5 7.5,7.5 1.964788,0 3.756106,-0.76222 5.09375,-2 L 21,17 17.65625,13.65625 C 17.864192,12.968633 18,12.255184 18,11.5 18,7.36 14.64,4.0000001 10.5,4 z"
         id="path2396"
         style="fill:#eae3d1;fill-opacity:1;fill-rule:evenodd;stroke:none;stroke-width:1;marker:none;visibility:visible;display:inline;overflow:visible;enable-background:accumulate"
         inkscape:connector-curvature="0" />
    </g>
    <rect
       y="1"
       x="0"
       height="22"
       width="22"
       id="rect3008"
       style="fill:#000000;fill-opacity:0.00392157;stroke:none" />
  </g>
</svg>
