<?xml version="1.0" encoding="UTF-8" standalone="no"?>
<svg
   width="32"
   height="32"
   version="1"
   id="svg12"
   sodipodi:docname="strawberry.svg"
   inkscape:version="1.1.2 (0a00cf5339, 2022-02-04)"
   xmlns:inkscape="http://www.inkscape.org/namespaces/inkscape"
   xmlns:sodipodi="http://sodipodi.sourceforge.net/DTD/sodipodi-0.dtd"
   xmlns="http://www.w3.org/2000/svg"
   xmlns:svg="http://www.w3.org/2000/svg">
  <defs
     id="defs3">
    <style
       id="current-color-scheme"
       type="text/css">.ColorScheme-Text { color:#ffffff; }</style>
  </defs>
  <sodipodi:namedview
     id="namedview14"
     pagecolor="#ffffff"
     bordercolor="#666666"
     borderopacity="1.0"
     inkscape:pageshadow="2"
     inkscape:pageopacity="0.0"
     inkscape:pagecheckerboard="0"
     showgrid="false"
     inkscape:zoom="19.71875"
     inkscape:cx="-2.3074485"
     inkscape:cy="15.974643"
     inkscape:window-width="1920"
     inkscape:window-height="1032"
     inkscape:window-x="0"
     inkscape:window-y="0"
     inkscape:window-maximized="1"
     inkscape:current-layer="svg12" />
  <g
     id="22-22-strawberry"
     transform="translate(32,10)">
    <rect
       style="opacity:0.001"
       width="22"
       height="22"
       x="0"
       y="0"
       id="rect2" />
    <path
       style="opacity:1;fill:#eff0f1"
       d="m 13.087373,3.0000203 c -0.08879,0 -0.115275,0.181015 -0.06055,0.4199219 0,0 0.15734,0.7619522 1.21289,1.3203125 0.734159,0.3629505 0.733731,0.573374 -0.0039,0.7910156 -0.321469,0.094846 -0.713233,0.273527 -0.86914,0.3984375 -0.257133,0.2060136 -0.163188,0.290926 1.009765,0.9160156 0.711194,0.3790096 1.425049,0.8002842 1.585938,0.9355469 0.279332,0.2348395 0.267634,0.2672029 -0.277344,0.7226562 -0.608397,0.5084535 -1.328125,1.6971555 -1.328125,2.1933595 0,0.268262 0.119072,0.291638 1.121094,0.207031 0.616429,-0.05205 1.293297,-0.118481 1.505859,-0.146485 l 0.386719,-0.05078 -0.05469,1.34961 c -0.03035,0.74213 -0.11895,1.534076 -0.197265,1.759765 -0.07831,0.22569 -0.110753,0.44416 -0.07227,0.486328 0.162017,0.17752 0.822036,-0.213548 1.275391,-0.755859 0.463478,-0.554422 0.493251,-0.566767 0.591796,-0.226563 0.331871,0.609879 0.479188,1.145229 0.994141,1.679688 0.114993,0.01131 0.201612,-0.136263 0.275391,-0.439453 0.227139,-0.933414 0.10531,-1.836435 -0.373047,-2.769531 -0.257766,-0.502807 -0.509504,-1.295915 -0.560544,-1.76172 -0.05104,-0.4658049 -0.134056,-1.0065695 -0.185547,-1.2031248 -0.07824,-0.2986775 0.07175,-0.4742129 0.921875,-1.0625 0.967991,-0.6698438 1.219598,-1.0509254 0.853516,-1.2988281 -0.09096,-0.061593 -0.571545,0.125064 -1.066406,0.4140624 -0.494862,0.2889975 -0.996348,0.5253907 -1.115235,0.5253907 -0.118886,0 -0.491278,-0.3625728 -0.828125,-0.8046875 -0.585419,-0.7683677 -0.613281,-0.8561844 -0.613281,-1.9902344 0,-1.0775591 -0.03025,-1.1900384 -0.326172,-1.2363281 -0.239184,-0.037414 -0.378069,0.085476 -0.521484,0.4648437 -0.107448,0.2842238 -0.24821,0.5175782 -0.314453,0.5175782 -0.06624,0 -0.727156,-0.3050904 -1.466797,-0.6777344 -0.739656,-0.372642 -1.414223,-0.6777344 -1.5,-0.6777344 z m -0.873047,1.0410156 c -0.06635,0.00626 -0.09727,0.00375 -0.171875,0.011719 -2.4426544,0.260912 -4.4795644,1.774117 -6.8105454,5.0546873 -0.703828,0.9905528 -1.608029,2.2616538 -2.009766,2.8261718 -1.692378,2.378122 -1.620267,4.819444 0.173828,5.845703 1.159538,0.663275 2.279051,0.925376 4.052735,0.951172 0.891515,0.01295 2.198516,0.07777 2.9023434,0.142578 1.963706,0.180839 2.209598,0.17624 3.591795,-0.06445 1.546994,-0.269402 2.73888,-0.83045 3.697266,-1.738282 0.38599,-0.365628 0.852472,-1.062621 1.242187,-1.771484 -0.135912,-0.219608 -0.216507,-0.4261 -0.328124,-0.648437 -0.157601,0.132513 -0.299836,0.304158 -0.46875,0.404297 -0.180998,0.107294 -0.360995,0.200902 -0.619141,0.257812 -0.258146,0.05691 -0.766022,0.09377 -1.158203,-0.335938 -0.347774,-0.381027 -0.272544,-0.5705 -0.277344,-0.697265 -0.0048,-0.126766 0.0069,-0.213818 0.01953,-0.298828 0.02531,-0.170015 0.06514,-0.3253 0.123047,-0.492188 -0.04121,0.118766 0.03562,-0.17892 0.06836,-0.470703 0.03274,-0.291783 0.06203,-0.656165 0.07617,-1.001953 l 0.0078,-0.189453 c -0.271467,0.02598 -0.456151,0.04825 -0.763672,0.07422 -0.511484,0.04319 -0.771607,0.09436 -1.201172,0.01563 -0.214783,-0.03938 -0.573515,-0.17616 -0.791016,-0.488282 -0.217487,-0.312122 -0.21289,-0.589621 -0.21289,-0.730468 0,-0.7316494 0.279178,-1.1124668 0.580078,-1.6093751 C 14.141994,8.7493678 14.422605,8.4626057 14.690888,8.1679891 14.448626,8.028104 14.186941,7.8773568 13.907685,7.7285359 13.314383,7.4123537 13.019005,7.2933499 12.665498,6.9726765 12.577118,6.8925085 12.473108,6.7892054 12.378388,6.6074422 12.283678,6.4256789 12.222226,6.1348192 12.270966,5.8828328 12.368446,5.37886 12.630001,5.2414439 12.743623,5.1504109 12.855942,5.0604219 12.957834,5.0601939 13.061982,4.9980672 12.848776,4.7982545 12.526626,4.6066957 12.403779,4.4199422 12.314329,4.283957 12.267074,4.1618981 12.214326,4.0410359 Z m -0.757812,1.2871094 c -0.05208,0.1309597 -0.139077,0.2158767 -0.167969,0.3652344 -0.100795,0.5211216 -0.01609,0.9246172 0.177735,1.3183594 -0.08766,-0.01127 -0.179852,-0.014615 -0.275391,-0.00195 -0.32117,0.042563 -0.664493,0.2094159 -0.880858,0.4257813 -0.3846534,0.3846491 -0.4164984,0.9780336 -0.07031,1.3242187 0.346183,0.3461847 0.939569,0.3143404 1.324218,-0.070312 0.242895,-0.2428941 0.403433,-0.640227 0.416016,-0.9921875 0.0037,0.00345 0.01012,0.012406 0.01367,0.015625 0.384151,0.3484723 0.761459,0.5189479 1.185546,0.7382813 -0.03274,0.048977 -0.06594,0.06676 -0.09766,0.1191406 -0.2762,0.4561189 -0.724609,1.1409209 -0.724609,2.1269525 0,0.119083 0.01237,0.757085 0.392578,1.302734 0.156033,0.223913 0.331476,0.379275 0.509766,0.507812 -0.325124,0.383793 -0.346122,0.925365 -0.01953,1.251955 0.346184,0.346184 0.939569,0.314336 1.324219,-0.07031 0.191003,-0.191003 0.341878,-0.480972 0.404297,-0.767579 0.09267,-0.0081 0.186364,-0.01522 0.279297,-0.02344 -2.49e-4,0.0022 2.49e-4,0.0056 0,0.0078 -0.01091,0.0972 -0.0332,0.221389 -0.05078,0.314454 -0.0088,0.04653 -0.01294,0.04576 -0.02734,0.164063 -4.38e-4,0.0036 -0.0015,0.0115 -0.002,0.01563 -0.03985,0.142581 -0.08507,0.28344 -0.107422,0.433593 -0.01402,0.09437 -0.03708,0.27696 -0.0293,0.482422 -0.0058,-0.152837 -0.03538,0.128051 0.03516,0.4375 0.07053,0.309449 0.250178,0.618493 0.503906,0.896485 0.44717,0.489958 0.959,0.613146 1.417969,0.642578 -0.0078,0.0079 -0.02792,0.04393 -0.03516,0.05078 -0.807207,0.764627 -1.780304,1.236432 -3.181641,1.480469 -0.875125,0.152392 -1.226627,0.197284 -1.857421,0.167969 0.230858,-0.01896 0.465378,-0.117723 0.65039,-0.302735 0.38465,-0.384651 0.61181,-1.173347 0.265625,-1.519531 -0.08655,-0.08654 -0.201484,-0.136813 -0.330078,-0.158203 -0.09644,-0.01609 -0.201537,-0.01614 -0.308594,-0.002 -0.321168,0.04256 -0.664491,0.209416 -0.880858,0.425781 -0.384651,0.38465 -0.416497,0.978033 -0.07031,1.324219 0.153619,0.153618 0.357228,0.219616 0.56836,0.226562 -0.336446,-0.01935 -0.734577,-0.0513 -1.365234,-0.109375 -0.7556714,-0.06948 -2.0546474,-0.132986 -2.9804274,-0.146433 -1.681317,-0.02445 -2.553017,-0.23645 -3.570312,-0.81836 -0.605406,-0.346304 -0.868291,-0.825576 -0.890625,-1.578125 -0.02233,-0.752548 0.286585,-1.768424 1.035156,-2.820312 0.401905,-0.564755 1.30567,-1.835242 2.009766,-2.8261717 1.994863,-2.8075254 3.617815,-3.9425382 5.4101554,-4.359375 z M 7.1908896,9.0097859 c -0.32117,0.042563 -0.664494,0.2094157 -0.880859,0.4257813 -0.384651,0.3846493 -0.416498,0.9780398 -0.07031,1.3242188 0.346185,0.346185 0.939569,0.314337 1.324219,-0.07031 0.38465,-0.38465 0.61181,-1.1733458 0.265625,-1.5195308 -0.08655,-0.086546 -0.201484,-0.1368131 -0.330078,-0.1582031 -0.09644,-0.01604 -0.201537,-0.016141 -0.308594,-0.00195 z M 10.19089,11.009786 c -0.3211704,0.04256 -0.6644934,0.209415 -0.8808594,0.425781 -0.384649,0.38465 -0.416498,0.978034 -0.07031,1.324219 0.346184,0.346184 0.9395694,0.314336 1.3242174,-0.07031 0.384651,-0.384649 0.61181,-1.173345 0.265625,-1.519531 -0.08655,-0.08654 -0.201485,-0.136813 -0.330077,-0.158203 -0.09645,-0.01609 -0.201538,-0.01614 -0.308594,-0.002 z m -5.0000004,2 c -0.32117,0.04256 -0.664493,0.209415 -0.880859,0.425781 -0.384649,0.38465 -0.416498,0.978034 -0.07031,1.324219 0.346184,0.346184 0.939569,0.314336 1.324218,-0.07031 0.38465,-0.38465 0.611811,-1.173346 0.265625,-1.519531 -0.08655,-0.08655 -0.201484,-0.136816 -0.330078,-0.158206 -0.09644,-0.01609 -0.201537,-0.01614 -0.308594,-0.002 z m 4,2 c -0.32117,0.04256 -0.664494,0.209415 -0.880859,0.425781 -0.38465,0.384648 -0.416498,0.978033 -0.07031,1.324219 0.346184,0.346184 0.93957,0.314336 1.324218,-0.07031 0.384651,-0.38465 0.6118104,-1.173345 0.265625,-1.519531 -0.08655,-0.08655 -0.201484,-0.136816 -0.330078,-0.158206 -0.09645,-0.01609 -0.201537,-0.01614 -0.308594,-0.002 z"
       id="path4" />
  </g>
  <g
     id="strawberry">
    <rect
       style="opacity:0.00100002"
       width="32"
       height="32"
       x="0"
       y="0"
       id="rect7" />
    <path
       style="opacity:1;fill:currentColor"
       d="m 18.134766,6 c -0.117507,0 -0.15055,0.2208938 -0.07813,0.5136719 0,0 0.208413,0.9348757 1.605468,1.6191406 0.971682,0.4447924 0.968521,0.7020323 -0.0078,0.96875 -0.425474,0.1162329 -0.94209,0.3371579 -1.148438,0.4902344 -0.340324,0.2524677 -0.216504,0.3570059 1.335938,1.1230471 0.941287,0.464473 1.886669,0.978768 2.099609,1.144531 0.369705,0.287793 0.352157,0.328566 -0.36914,0.886719 -0.805231,0.623105 -1.757813,2.079405 -1.757813,2.6875 0,0.32875 0.158167,0.35564 1.484375,0.251953 0.815863,-0.06379 1.712809,-0.143417 1.994141,-0.177735 l 0.511719,-0.0625 -0.07422,1.652344 c -0.04016,0.909475 -0.156116,1.881623 -0.259766,2.158203 -0.103649,0.276579 -0.146636,0.544029 -0.0957,0.595703 0.214435,0.21755 1.08747,-0.263136 1.6875,-0.927734 0.613428,-0.679437 0.652775,-0.692307 0.783203,-0.27539 0.439242,0.747399 0.63485,1.401666 1.316406,2.05664 0.152198,0.01385 0.267587,-0.165552 0.365235,-0.537109 0.300626,-1.143888 0.138981,-2.251031 -0.494141,-3.394531 -0.341166,-0.616183 -0.674633,-1.587364 -0.742187,-2.158204 -0.06755,-0.570839 -0.179899,-1.235685 -0.248047,-1.476562 -0.103557,-0.366026 0.09748,-0.579841 1.222656,-1.300781 1.281168,-0.820887 1.613428,-1.287994 1.128906,-1.591797 -0.120383,-0.07548 -0.75519,0.153648 -1.410156,0.507812 -0.654964,0.354164 -1.319211,0.642578 -1.476563,0.642578 -0.15735,0 -0.651828,-0.442568 -1.097656,-0.984375 -0.774821,-0.9416271 -0.810547,-1.0496857 -0.810547,-2.4394528 0,-1.3205378 -0.03997,-1.4588974 -0.43164,-1.515625 -0.316567,-0.045851 -0.499638,0.1054015 -0.689453,0.5703126 -0.14221,0.3483134 -0.330294,0.6328124 -0.417969,0.6328124 -0.08768,0 -0.960515,-0.3734066 -1.939453,-0.8300781 C 19.142179,6.3734106 18.248296,6 18.134766,6 Z m -0.955078,1.0136719 c -0.191228,0.010526 -0.353326,0.013545 -0.625,0.042969 -3.05332,0.3306971 -5.601899,2.2462792 -8.5156255,6.4042974 -0.8797846,1.255486 -2.0095485,2.868476 -2.5117187,3.583984 -2.1154737,3.014191 -2.0238691,6.107458 0.21875,7.408203 1.4494223,0.84068 2.8493013,1.174339 5.0664062,1.207031 1.114394,0.01642 2.745215,0.09755 3.625,0.179688 2.454633,0.229207 2.762488,0.223045 4.490234,-0.08203 1.933743,-0.341456 3.425064,-1.052483 4.623047,-2.203124 0.680731,-0.653832 1.562963,-2.137917 2.083985,-3.326172 -0.05732,-0.117271 -0.12017,-0.236251 -0.179688,-0.353516 -0.29217,0.269374 -0.585117,0.547644 -0.90039,0.720703 -0.218967,0.120194 -0.433863,0.218841 -0.710938,0.275391 -0.277075,0.05655 -0.760324,0.11103 -1.181641,-0.316406 -0.366303,-0.371635 -0.302893,-0.597055 -0.308593,-0.738282 -0.0057,-0.141226 0.0077,-0.2399 0.02344,-0.33789 0.0315,-0.195979 0.08312,-0.379088 0.15625,-0.574219 -0.03945,0.105269 0.05384,-0.249711 0.09766,-0.611328 0.04381,-0.361618 0.08268,-0.81084 0.101563,-1.238281 l 0.02148,-0.496094 c -0.422476,0.04015 -0.82165,0.07948 -1.378906,0.123047 -0.672816,0.0526 -1.021291,0.10366 -1.482422,0.02539 -0.230565,-0.03914 -0.591119,-0.158404 -0.832031,-0.478515 -0.240894,-0.320112 -0.246094,-0.63305 -0.246094,-0.794922 0,-0.826277 0.352359,-1.291675 0.740235,-1.884766 0.310352,-0.474554 0.711106,-0.891415 1.125,-1.27539 -0.364934,-0.199088 -0.823486,-0.437192 -1.279297,-0.66211 -0.782853,-0.386292 -1.176952,-0.546171 -1.580079,-0.884766 -0.10078,-0.08465 -0.214486,-0.189351 -0.322265,-0.380859 -0.10778,-0.191507 -0.1821,-0.511819 -0.125,-0.7851561 C 17.487251,9.0138726 17.775284,8.8891165 17.910156,8.7890625 18.123181,8.6310332 18.353474,8.594345 18.568359,8.5 18.184371,8.2099155 17.715723,7.9226434 17.519531,7.6464844 17.352649,7.4115808 17.247604,7.1861899 17.179688,7.0136719 Z M 16.617188,8.0625 c 0.03773,0.060217 0.04389,0.1021249 0.08789,0.1640625 0.06034,0.084932 0.110156,0.075952 0.171875,0.1464844 -0.209368,0.2396542 -0.397738,0.5770553 -0.482422,0.9824219 -0.124593,0.5964251 -0.01274,1.0448542 0.232422,1.4804692 0.17881,0.317719 0.422683,0.548656 0.550781,0.65625 0.530195,0.44532 1.017685,0.639814 1.779297,1.015624 0.04729,0.02334 0.08551,0.04476 0.132813,0.06836 -0.121683,0.151534 -0.262605,0.256906 -0.373047,0.425781 -0.367195,0.561468 -0.902344,1.321069 -0.902344,2.431641 0,0.183288 0.02225,0.831703 0.447266,1.396484 0.457411,0.607784 1.071436,0.796834 1.46289,0.863281 0.613816,0.104186 1.079084,0.03515 1.728516,-0.01563 0.09208,-0.0072 0.142114,-0.01253 0.226563,-0.01953 -0.01521,0.174163 -0.02315,0.366244 -0.04102,0.513672 -0.01642,0.135476 -0.04565,0.29327 -0.06836,0.408203 -0.01136,0.05747 -0.01898,0.08977 -0.03125,0.166016 -0.0012,0.0078 -0.0024,0.02875 -0.0039,0.03906 -0.05512,0.174596 -0.116369,0.347824 -0.146484,0.535156 -0.01832,0.113988 -0.04422,0.313852 -0.03516,0.53711 -0.004,-0.100108 -0.02824,0.177671 0.05078,0.488281 0.07903,0.31061 0.270561,0.631802 0.544922,0.910156 0.492171,0.49932 1.048984,0.589823 1.513672,0.597657 -0.216741,0.314274 -0.459905,0.840656 -0.605469,0.980468 -1.047391,1.006 -2.31717,1.624025 -4.103516,1.939454 -1.709985,0.301939 -1.777381,0.298647 -4.222656,0.07031 C 13.598266,24.75664 11.976667,24.677079 10.828125,24.660156 8.7051143,24.62886 7.5550756,24.345981 6.2480469,23.587891 5.4192232,23.107163 5.0324868,22.394498 5.0019531,21.361328 4.9714194,20.328158 5.38427,18.98902 6.3457031,17.619141 6.848695,16.902462 7.9777475,15.290487 8.8574219,14.035156 11.680392,10.006653 13.936146,8.3688475 16.617188,8.0625 Z M 15.5,12.011719 c -0.385782,-0.06417 -0.900965,0.13534 -1.189453,0.423828 -0.384654,0.38465 -0.416498,0.978034 -0.07031,1.324219 0.346185,0.346182 0.939569,0.314337 1.324219,-0.07031 0.38465,-0.384651 0.611811,-1.173346 0.265625,-1.519531 C 15.743532,12.083375 15.628594,12.033109 15.5,12.011719 Z m -6,3 c -0.3857818,-0.06417 -0.900965,0.13534 -1.1894531,0.423828 -0.3846499,0.38465 -0.4164979,0.978033 -0.070312,1.324219 0.3461847,0.346182 0.9395689,0.314337 1.3242187,-0.07031 0.3846513,-0.38465 0.6118109,-1.173345 0.265625,-1.519531 C 9.7435318,15.083376 9.6285939,15.033109 9.5,15.011719 Z m 4,1 c -0.385782,-0.06417 -0.900965,0.13534 -1.189453,0.423828 -0.384654,0.38465 -0.416498,0.978034 -0.07031,1.324219 0.346184,0.346182 0.939569,0.314337 1.324219,-0.07031 0.38465,-0.384651 0.611811,-1.173346 0.265625,-1.519531 C 13.743532,16.083375 13.628594,16.033109 13.5,16.011719 Z m 6,2 c -0.385782,-0.06417 -0.900965,0.135341 -1.189453,0.423828 -0.384653,0.38465 -0.416497,0.978034 -0.07031,1.324219 0.346185,0.346183 0.939569,0.314338 1.324219,-0.07031 0.384651,-0.38465 0.611809,-1.173346 0.265625,-1.519531 C 19.743532,18.083375 19.628594,18.033109 19.5,18.011719 Z m 2.216797,0.324219 a 1.0001,1.0001 0 0 0 -0.01953,0.02539 c 0.0016,-0.0026 0.0098,-0.01571 0.0098,-0.01563 -1.2e-5,1.8e-5 0.0089,-0.0088 0.0098,-0.0098 z m -0.08203,0.134765 a 1.0001,1.0001 0 0 0 -0.02344,0.05078 c 0.0036,-0.0091 0.0017,-0.008 0.01367,-0.0332 0.0014,-0.003 0.0068,-0.01216 0.0098,-0.01758 z M 7.5,19.011719 c -0.3857815,-0.06417 -0.9009653,0.13534 -1.1894531,0.423828 -0.3846506,0.38465 -0.4164976,0.978033 -0.070312,1.324219 0.3461845,0.346182 0.9395692,0.314338 1.3242187,-0.07031 0.3846505,-0.384649 0.61181,-1.173346 0.265625,-1.519531 C 7.7435319,19.083376 7.6285938,19.033109 7.5,19.011719 Z m 5,2 c -0.385782,-0.06417 -0.900966,0.135341 -1.189453,0.423828 -0.384654,0.38465 -0.416498,0.978033 -0.07031,1.324219 0.346184,0.346182 0.939569,0.314338 1.324219,-0.07031 0.384651,-0.38465 0.61181,-1.173345 0.265625,-1.519531 C 12.743532,21.083376 12.628594,21.033109 12.5,21.011719 Z m 5,1 c -0.385782,-0.06417 -0.900965,0.13534 -1.189453,0.423828 -0.384654,0.384649 -0.416498,0.978034 -0.07031,1.324219 0.346185,0.346182 0.939569,0.314337 1.324219,-0.07031 0.38465,-0.384651 0.611811,-1.173346 0.265625,-1.519531 C 17.743532,22.083375 17.628594,22.033109 17.5,22.011719 Z"
       id="path9"
       class="ColorScheme-Text" />
  </g>
</svg>
