<?xml version="1.0" encoding="UTF-8" standalone="no"?>
<svg
   id="svg4379"
   width="200"
   height="200"
   inkscape:version="1.1.2 (0a00cf5339, 2022-02-04)"
   sodipodi:docname="kde.svg"
   version="1.1"
   viewBox="0 0 200 200"
   xmlns:inkscape="http://www.inkscape.org/namespaces/inkscape"
   xmlns:sodipodi="http://sodipodi.sourceforge.net/DTD/sodipodi-0.dtd"
   xmlns="http://www.w3.org/2000/svg"
   xmlns:svg="http://www.w3.org/2000/svg"
   xmlns:rdf="http://www.w3.org/1999/02/22-rdf-syntax-ns#"
   xmlns:cc="http://creativecommons.org/ns#"
   xmlns:dc="http://purl.org/dc/elements/1.1/">
  <metadata
     id="metadata10">
    <rdf:RDF>
      <cc:Work
         rdf:about="">
        <dc:format>image/svg+xml</dc:format>
        <dc:type
           rdf:resource="http://purl.org/dc/dcmitype/StillImage" />
      </cc:Work>
    </rdf:RDF>
  </metadata>
  <defs
     id="defs8">
    <style
       id="current-color-scheme"
       type="text/css">
      .ColorScheme-Text {
        color:#31363b;
      }
      </style>
    <style
       type="text/css"
       id="style832" />
    <linearGradient
       id="linearGradient8660"
       x1="-7.6728001"
       x2="-5.027"
       y1="-29.104"
       y2="-27.252001"
       gradientTransform="matrix(19.102507,0,0,19.102507,-8.3673106,603.14466)"
       gradientUnits="userSpaceOnUse">
      <stop
         stop-color="#00bffb"
         offset="0"
         id="stop17" />
      <stop
         stop-color="#01a0f3"
         offset="1"
         id="stop19" />
    </linearGradient>
    <linearGradient
       id="linearGradient8668"
       x1="-4.7624002"
       x2="-1.852"
       y1="-27.252001"
       y2="-30.122999"
       gradientTransform="matrix(20.03297,0,0,19.102507,-3.9472134,603.14466)"
       gradientUnits="userSpaceOnUse">
      <stop
         stop-color="#11c2f4"
         offset="0"
         id="stop12" />
      <stop
         stop-color="#2dc5f4"
         offset="1"
         id="stop14" />
    </linearGradient>
    <linearGradient
       id="linearGradient8676"
       x1="-7.6728001"
       x2="-5.027"
       y1="-26.722"
       y2="-24.493"
       gradientTransform="matrix(19.102507,0,0,19.102507,-8.3673106,603.14466)"
       gradientUnits="userSpaceOnUse">
      <stop
         stop-color="#0954a8"
         offset="0"
         id="stop7" />
      <stop
         stop-color="#0954a8"
         offset="1"
         id="stop9" />
    </linearGradient>
    <linearGradient
       id="linearGradient8684"
       x1="-4.4977999"
       x2="-1.852"
       y1="-26.722"
       y2="-24.111"
       gradientTransform="matrix(20.03297,0,0,19.102507,-3.9472134,603.14466)"
       gradientUnits="userSpaceOnUse">
      <stop
         stop-color="#339ed9"
         offset="0"
         id="stop2" />
      <stop
         stop-color="#2386c9"
         offset="1"
         id="stop4" />
    </linearGradient>
  </defs>
  <sodipodi:namedview
     id="namedview39"
     bordercolor="#666666"
     borderopacity="1"
     gridtolerance="10"
     guidetolerance="10"
     inkscape:current-layer="svg4379"
     inkscape:cx="162.95369"
     inkscape:cy="90.863579"
     inkscape:pageopacity="0"
     inkscape:pageshadow="2"
     inkscape:window-height="1007"
     inkscape:window-maximized="1"
     inkscape:window-width="1920"
     inkscape:window-x="0"
     inkscape:window-y="0"
     inkscape:zoom="1.9975"
     objecttolerance="10"
     pagecolor="#dfe2e4"
     showgrid="true"
     inkscape:snap-bbox="true"
     inkscape:bbox-nodes="true"
     inkscape:snap-bbox-edge-midpoints="true"
     inkscape:document-rotation="0"
     inkscape:pagecheckerboard="0">
    <inkscape:grid
       id="grid839"
       type="xygrid" />
  </sodipodi:namedview>
  <path
     id="path1086"
     style="opacity:1;fill:#ffffff;fill-opacity:0.99984;stroke:none;stroke-width:1.22738;stroke-linecap:round;stroke-linejoin:round;paint-order:fill markers stroke"
     d="M 98.816919,3.472684 A 60.851326,60.851326 0 0 0 52.120753,25.422952 L 70,55 C 73.575891,41.287234 85.590855,32.657902 99.122071,32.653225 115.86298,31.896314 132.79238,31.409249 149.68279,30.941128 A 60.851326,60.851326 0 0 0 98.816919,3.472684 Z M 46.231658,33.977947 A 60.851326,60.851326 0 0 0 37.965359,64.32242 60.851326,60.851326 0 0 0 87.236071,123.91869 L 105.9138,93.073561 C 103.6884,93.60655 101.41027,93.88845 99.122071,93.91408 88.570419,93.88826 78.966507,88.459203 73.433326,79.855533 Z m 108.574622,6.537754 -33.7778,1.366756 c 5.59106,5.72054 8.72212,13.401252 8.72493,21.400279 -0.0277,6.509062 -2.12822,12.840064 -5.9969,18.074755 L 97.422762,125.07349 a 60.851326,60.851326 0 0 0 1.394157,0.10049 60.851326,60.851326 0 0 0 60.851571,-60.85156 60.851326,60.851326 0 0 0 -4.86221,-23.806719 z M 98.816919,41.895245 A 22.428484,22.428484 0 0 0 76.387921,64.32242 22.428484,22.428484 0 0 0 98.816919,86.751418 22.428484,22.428484 0 0 0 121.24592,64.32242 22.428484,22.428484 0 0 0 98.816919,41.895245 Z" />
</svg>
