<?xml version="1.0" encoding="UTF-8" standalone="no"?>
<!-- Created with Inkscape (http://www.inkscape.org/) -->

<svg
   xmlns:dc="http://purl.org/dc/elements/1.1/"
   xmlns:cc="http://creativecommons.org/ns#"
   xmlns:rdf="http://www.w3.org/1999/02/22-rdf-syntax-ns#"
   xmlns:svg="http://www.w3.org/2000/svg"
   xmlns="http://www.w3.org/2000/svg"
   xmlns:xlink="http://www.w3.org/1999/xlink"
   xmlns:sodipodi="http://sodipodi.sourceforge.net/DTD/sodipodi-0.dtd"
   xmlns:inkscape="http://www.inkscape.org/namespaces/inkscape"
   width="95"
   height="85"
   id="svg2"
   version="1.1"
   inkscape:version="0.48.0 r9654"
   sodipodi:docname="slider.svg"
   inkscape:export-filename="/home/anton/Teman/mockups/gree-hey.png"
   inkscape:export-xdpi="90"
   inkscape:export-ydpi="90">
  <defs
     id="defs4">
    <linearGradient
       id="linearGradient5432">
      <stop
         style="stop-color:#4c4c4c;stop-opacity:1;"
         offset="0"
         id="stop5434" />
      <stop
         style="stop-color:#222222;stop-opacity:1;"
         offset="1"
         id="stop5436" />
    </linearGradient>
    <linearGradient
       id="linearGradient4833">
      <stop
         style="stop-color:#1d1d1d;stop-opacity:1;"
         offset="0"
         id="stop4835" />
      <stop
         id="stop4841"
         offset="0.5"
         style="stop-color:#1a1a1a;stop-opacity:0.49803922;" />
      <stop
         style="stop-color:#1a1a1a;stop-opacity:0.24705882;"
         offset="0.75"
         id="stop4843" />
      <stop
         style="stop-color:#292929;stop-opacity:0.47058824;"
         offset="1"
         id="stop4837" />
    </linearGradient>
    <linearGradient
       id="linearGradient4783">
      <stop
         id="stop4785"
         offset="0"
         style="stop-color:#ffffff;stop-opacity:0;" />
      <stop
         style="stop-color:#ffffff;stop-opacity:0.39072847;"
         offset="0.5"
         id="stop4787" />
      <stop
         id="stop4789"
         offset="1"
         style="stop-color:#ffffff;stop-opacity:0;" />
    </linearGradient>
    <linearGradient
       id="linearGradient4769">
      <stop
         style="stop-color:#000000;stop-opacity:0;"
         offset="0"
         id="stop4771" />
      <stop
         id="stop4777"
         offset="0.5"
         style="stop-color:#000000;stop-opacity:0.29139072;" />
      <stop
         style="stop-color:#000000;stop-opacity:0;"
         offset="1"
         id="stop4773" />
    </linearGradient>
    <linearGradient
       id="linearGradient4459">
      <stop
         style="stop-color:#1e1e1e;stop-opacity:1;"
         offset="0"
         id="stop4461" />
      <stop
         style="stop-color:#1e1e1e;stop-opacity:1;"
         offset="1"
         id="stop4463" />
    </linearGradient>
    <linearGradient
       id="linearGradient4018">
      <stop
         style="stop-color:#000000;stop-opacity:1;"
         offset="0"
         id="stop4020" />
      <stop
         id="stop4377"
         offset="0.5"
         style="stop-color:#000000;stop-opacity:0.31125829;" />
      <stop
         style="stop-color:#000000;stop-opacity:0.08609272;"
         offset="0.75"
         id="stop4379" />
      <stop
         style="stop-color:#000000;stop-opacity:0;"
         offset="1"
         id="stop4022" />
    </linearGradient>
    <linearGradient
       id="linearGradient3955">
      <stop
         id="stop3957"
         offset="0"
         style="stop-color:#1d1d1d;stop-opacity:1;" />
      <stop
         id="stop3959"
         offset="1"
         style="stop-color:#070707;stop-opacity:0.32941177;" />
    </linearGradient>
    <linearGradient
       id="linearGradient3928">
      <stop
         style="stop-color:#ffffff;stop-opacity:0.01960784;"
         offset="0"
         id="stop3930" />
      <stop
         style="stop-color:#ffffff;stop-opacity:0.01960784;"
         offset="1"
         id="stop3932" />
    </linearGradient>
    <linearGradient
       id="linearGradient3913">
      <stop
         style="stop-color:#161616;stop-opacity:1;"
         offset="0"
         id="stop3915" />
      <stop
         style="stop-color:#0c0c0c;stop-opacity:1;"
         offset="1"
         id="stop3917" />
    </linearGradient>
    <linearGradient
       id="linearGradient3836">
      <stop
         style="stop-color:#292929;stop-opacity:1;"
         offset="0"
         id="stop3838" />
      <stop
         style="stop-color:#292929;stop-opacity:1;"
         offset="1"
         id="stop3840" />
    </linearGradient>
    <linearGradient
       id="linearGradient3799">
      <stop
         id="stop3801"
         offset="0"
         style="stop-color:#2a2a2a;stop-opacity:1;" />
      <stop
         id="stop3803"
         offset="1"
         style="stop-color:#202020;stop-opacity:1;" />
    </linearGradient>
    <linearGradient
       id="linearGradient3738">
      <stop
         style="stop-color:#000000;stop-opacity:0.25827813;"
         offset="0"
         id="stop3740" />
      <stop
         id="stop3746"
         offset="0.5"
         style="stop-color:#000000;stop-opacity:0.08609272;" />
      <stop
         style="stop-color:#000000;stop-opacity:0;"
         offset="1"
         id="stop3742" />
    </linearGradient>
    <linearGradient
       id="linearGradient3730">
      <stop
         style="stop-color:#565656;stop-opacity:0.36423841;"
         offset="0"
         id="stop3732" />
      <stop
         style="stop-color:#3d3d3d;stop-opacity:0;"
         offset="1"
         id="stop3734" />
    </linearGradient>
    <linearGradient
       id="linearGradient3720">
      <stop
         id="stop3722"
         offset="0"
         style="stop-color:#3d3d3d;stop-opacity:0.20529801;" />
      <stop
         id="stop3724"
         offset="1"
         style="stop-color:#3d3d3d;stop-opacity:0;" />
    </linearGradient>
    <linearGradient
       id="linearGradient3704">
      <stop
         style="stop-color:#3d3d3d;stop-opacity:0.23178808;"
         offset="0"
         id="stop3706" />
      <stop
         style="stop-color:#3d3d3d;stop-opacity:0;"
         offset="1"
         id="stop3708" />
    </linearGradient>
    <linearGradient
       id="linearGradient3684">
      <stop
         style="stop-color:#3f3f3f;stop-opacity:0.10596026;"
         offset="0"
         id="stop3686" />
      <stop
         style="stop-color:#3f3f3f;stop-opacity:0;"
         offset="1"
         id="stop3688" />
    </linearGradient>
    <linearGradient
       id="linearGradient3666">
      <stop
         style="stop-color:#1e1e1e;stop-opacity:1;"
         offset="0"
         id="stop3668" />
      <stop
         style="stop-color:#161616;stop-opacity:1;"
         offset="1"
         id="stop3670" />
    </linearGradient>
    <linearGradient
       id="linearGradient3631">
      <stop
         style="stop-color:#2a2a2a;stop-opacity:1;"
         offset="0"
         id="stop3633" />
      <stop
         style="stop-color:#202020;stop-opacity:1;"
         offset="1"
         id="stop3635" />
    </linearGradient>
    <linearGradient
       id="linearGradient3616">
      <stop
         id="stop3618"
         offset="0"
         style="stop-color:#111111;stop-opacity:1;" />
      <stop
         id="stop3620"
         offset="1"
         style="stop-color:#111111;stop-opacity:1;" />
    </linearGradient>
    <linearGradient
       id="linearGradient3594">
      <stop
         style="stop-color:#0f0f0f;stop-opacity:1;"
         offset="0"
         id="stop3596" />
      <stop
         style="stop-color:#161616;stop-opacity:1;"
         offset="1"
         id="stop3598" />
    </linearGradient>
    <inkscape:perspective
       sodipodi:type="inkscape:persp3d"
       inkscape:vp_x="0 : 526.18109 : 1"
       inkscape:vp_y="0 : 1000 : 0"
       inkscape:vp_z="744.09448 : 526.18109 : 1"
       inkscape:persp3d-origin="372.04724 : 350.78739 : 1"
       id="perspective10" />
    <linearGradient
       inkscape:collect="always"
       xlink:href="#linearGradient3684"
       id="linearGradient3991"
       gradientUnits="userSpaceOnUse"
       gradientTransform="matrix(1,0,0,-1,-43,1171)"
       x1="256.5"
       y1="575"
       x2="256.5"
       y2="594" />
    <linearGradient
       inkscape:collect="always"
       xlink:href="#linearGradient3616"
       id="linearGradient4663"
       gradientUnits="userSpaceOnUse"
       gradientTransform="matrix(1,0,0,-1.9285713,0,1702.7193)"
       x1="770"
       y1="560"
       x2="770"
       y2="480" />
    <radialGradient
       inkscape:collect="always"
       xlink:href="#linearGradient4018"
       id="radialGradient4665"
       gradientUnits="userSpaceOnUse"
       gradientTransform="matrix(-2,0,0,-2,405,-37.362162)"
       cx="585"
       cy="485"
       fx="585"
       fy="485"
       r="5" />
    <linearGradient
       inkscape:collect="always"
       xlink:href="#linearGradient3616"
       id="linearGradient4667"
       gradientUnits="userSpaceOnUse"
       gradientTransform="matrix(1,0,0,-1,0,1040)"
       x1="770"
       y1="560"
       x2="770"
       y2="480" />
    <linearGradient
       inkscape:collect="always"
       xlink:href="#linearGradient3720"
       id="linearGradient4669"
       gradientUnits="userSpaceOnUse"
       x1="581"
       y1="557.9375"
       x2="581"
       y2="556.875" />
    <linearGradient
       inkscape:collect="always"
       xlink:href="#linearGradient3704"
       id="linearGradient4671"
       gradientUnits="userSpaceOnUse"
       x1="770"
       y1="490"
       x2="770"
       y2="555" />
    <linearGradient
       inkscape:collect="always"
       xlink:href="#linearGradient4018"
       id="linearGradient4673"
       gradientUnits="userSpaceOnUse"
       gradientTransform="translate(190,-2.6171874e-6)"
       x1="575"
       y1="972.36218"
       x2="585"
       y2="972.36218" />
    <linearGradient
       inkscape:collect="always"
       xlink:href="#linearGradient3616"
       id="linearGradient4675"
       gradientUnits="userSpaceOnUse"
       gradientTransform="matrix(1,0,0,-1,0,1040)"
       x1="770"
       y1="560"
       x2="770"
       y2="480" />
    <linearGradient
       inkscape:collect="always"
       xlink:href="#linearGradient3704"
       id="linearGradient4677"
       gradientUnits="userSpaceOnUse"
       x1="770"
       y1="490"
       x2="770"
       y2="555" />
    <radialGradient
       inkscape:collect="always"
       xlink:href="#linearGradient4018"
       id="radialGradient4679"
       gradientUnits="userSpaceOnUse"
       gradientTransform="matrix(-2,0,0,-2,405,1907.3622)"
       cx="585"
       cy="485"
       fx="585"
       fy="485"
       r="5" />
    <linearGradient
       inkscape:collect="always"
       xlink:href="#linearGradient3616"
       id="linearGradient4681"
       gradientUnits="userSpaceOnUse"
       gradientTransform="matrix(1,0,0,-1,0,1040)"
       x1="770"
       y1="560"
       x2="770"
       y2="480" />
    <linearGradient
       inkscape:collect="always"
       xlink:href="#linearGradient3704"
       id="linearGradient4683"
       gradientUnits="userSpaceOnUse"
       x1="770"
       y1="490"
       x2="770"
       y2="555" />
    <linearGradient
       inkscape:collect="always"
       xlink:href="#linearGradient4018"
       id="linearGradient4685"
       gradientUnits="userSpaceOnUse"
       gradientTransform="matrix(1,0,0,2.5714286,432.36217,-3175.3599)"
       x1="575"
       y1="972.36218"
       x2="585"
       y2="972.36218" />
    <linearGradient
       inkscape:collect="always"
       xlink:href="#linearGradient3616"
       id="linearGradient4687"
       gradientUnits="userSpaceOnUse"
       gradientTransform="matrix(1,0,0,-1,0,1040)"
       x1="770"
       y1="560"
       x2="770"
       y2="480" />
    <linearGradient
       inkscape:collect="always"
       xlink:href="#linearGradient3720"
       id="linearGradient4689"
       gradientUnits="userSpaceOnUse"
       x1="581"
       y1="557.9375"
       x2="581"
       y2="556.875" />
    <radialGradient
       inkscape:collect="always"
       xlink:href="#linearGradient4018"
       id="radialGradient4691"
       gradientUnits="userSpaceOnUse"
       gradientTransform="matrix(-2,0,0,-2,1755,-37.362165)"
       cx="585"
       cy="485"
       fx="585"
       fy="485"
       r="5" />
    <linearGradient
       inkscape:collect="always"
       xlink:href="#linearGradient3616"
       id="linearGradient4693"
       gradientUnits="userSpaceOnUse"
       gradientTransform="matrix(1,0,0,-1,0,1040)"
       x1="770"
       y1="560"
       x2="770"
       y2="480" />
    <linearGradient
       inkscape:collect="always"
       xlink:href="#linearGradient3720"
       id="linearGradient4695"
       gradientUnits="userSpaceOnUse"
       x1="581"
       y1="557.9375"
       x2="581"
       y2="556.875" />
    <linearGradient
       inkscape:collect="always"
       xlink:href="#linearGradient3704"
       id="linearGradient4697"
       gradientUnits="userSpaceOnUse"
       x1="770"
       y1="490"
       x2="770"
       y2="555" />
    <linearGradient
       inkscape:collect="always"
       xlink:href="#linearGradient4018"
       id="linearGradient4699"
       gradientUnits="userSpaceOnUse"
       gradientTransform="translate(-1160,0)"
       x1="575"
       y1="972.36218"
       x2="585"
       y2="972.36218" />
    <linearGradient
       inkscape:collect="always"
       xlink:href="#linearGradient3616"
       id="linearGradient4701"
       gradientUnits="userSpaceOnUse"
       gradientTransform="matrix(1,0,0,-1,0,1040)"
       x1="770"
       y1="560"
       x2="770"
       y2="480" />
    <linearGradient
       inkscape:collect="always"
       xlink:href="#linearGradient3704"
       id="linearGradient4703"
       gradientUnits="userSpaceOnUse"
       x1="770"
       y1="490"
       x2="770"
       y2="555" />
    <radialGradient
       inkscape:collect="always"
       xlink:href="#linearGradient4018"
       id="radialGradient4705"
       gradientUnits="userSpaceOnUse"
       gradientTransform="matrix(-2,0,0,-2,1755,1455)"
       cx="585"
       cy="485"
       fx="585"
       fy="485"
       r="5" />
    <linearGradient
       inkscape:collect="always"
       xlink:href="#linearGradient3616"
       id="linearGradient4707"
       gradientUnits="userSpaceOnUse"
       gradientTransform="matrix(1,0,0,-1,0,1040)"
       x1="770"
       y1="560"
       x2="770"
       y2="480" />
    <linearGradient
       inkscape:collect="always"
       xlink:href="#linearGradient3704"
       id="linearGradient4709"
       gradientUnits="userSpaceOnUse"
       x1="770"
       y1="490"
       x2="770"
       y2="555" />
    <linearGradient
       inkscape:collect="always"
       xlink:href="#linearGradient4018"
       id="linearGradient4711"
       gradientUnits="userSpaceOnUse"
       gradientTransform="matrix(1,0,0,2.5714286,-1512.3622,-3175.3599)"
       x1="575"
       y1="972.36218"
       x2="585"
       y2="972.36218" />
    <linearGradient
       inkscape:collect="always"
       xlink:href="#linearGradient3616"
       id="linearGradient4713"
       gradientUnits="userSpaceOnUse"
       gradientTransform="matrix(1,0,0,-1,0,1040)"
       x1="770"
       y1="560"
       x2="770"
       y2="480" />
    <linearGradient
       inkscape:collect="always"
       xlink:href="#linearGradient3704"
       id="linearGradient4715"
       gradientUnits="userSpaceOnUse"
       x1="770"
       y1="490"
       x2="770"
       y2="555" />
  </defs>
  <sodipodi:namedview
     id="base"
     pagecolor="#ffffff"
     bordercolor="#666666"
     borderopacity="1.0"
     inkscape:pageopacity="0.0"
     inkscape:pageshadow="2"
     inkscape:zoom="1"
     inkscape:cx="61.585483"
     inkscape:cy="25.602625"
     inkscape:document-units="px"
     inkscape:current-layer="layer1"
     showgrid="false"
     inkscape:window-width="838"
     inkscape:window-height="699"
     inkscape:window-x="89"
     inkscape:window-y="54"
     inkscape:window-maximized="0">
    <inkscape:grid
       type="xygrid"
       id="grid2816"
       empspacing="5"
       visible="true"
       enabled="true"
       snapvisiblegridlinesonly="true" />
  </sodipodi:namedview>
  <metadata
     id="metadata7">
    <rdf:RDF>
      <cc:Work
         rdf:about="">
        <dc:format>image/svg+xml</dc:format>
        <dc:type
           rdf:resource="http://purl.org/dc/dcmitype/StillImage" />
        <dc:title />
      </cc:Work>
    </rdf:RDF>
  </metadata>
  <g
     inkscape:label="Layer 1"
     inkscape:groupmode="layer"
     id="layer1"
     transform="translate(0,-967.36218)">
    <path
       transform="matrix(1,0,0,0.83333333,-5.5,891.94551)"
       d="m 72,134 c 0,3.31371 -2.238576,6 -5,6 -2.761424,0 -5,-2.68629 -5,-6 0,-3.31371 2.238576,-6 5,-6 2.761424,0 5,2.68629 5,6 z"
       sodipodi:ry="6"
       sodipodi:rx="5"
       sodipodi:cy="134"
       sodipodi:cx="67"
       id="path4137"
       style="opacity:0.7;fill:#000000;fill-opacity:0.26442339;stroke:none"
       sodipodi:type="arc" />
    <g
       id="horizontal-slider-line">
      <rect
         y="1032.2997"
         x="26"
         height="6.0625"
         width="59"
         id="rect4160"
         style="opacity:0.7;fill:#191919;fill-opacity:0.00392157;stroke:none" />
      <path
         style="fill:#191919;fill-opacity:0.16666669;stroke:none"
         d="M 85 68 C 85 67.723 84.76775 67.462 84.40625 67.28125 C 84.04475 67.1005 83.554 67 83 67 L 28 67 C 27.446 67 26.95525 67.1005 26.59375 67.28125 C 26.23225 67.462 26 67.723 26 68 C 26 68.277 26.23225 68.538 26.59375 68.71875 C 26.95525 68.8995 27.446 69 28 69 L 83 69 C 83.554 69 84.04475 68.8995 84.40625 68.71875 C 84.76775 68.538 85 68.277 85 68 z "
         id="path3879"
         transform="translate(0,967.36218)" />
      <path
         style="fill:#191919;fill-opacity:0.21111111;stroke:none"
         d="M 85 68 C 85 68.277 84.76775 68.538 84.40625 68.71875 C 84.04475 68.8995 83.554 69 83 69 L 28 69 C 27.446 69 26.95525 68.8995 26.59375 68.71875 C 26.23225 68.538 26 68.277 26 68 C 26 69.108 27.892 70 29 70 L 82 70 C 83.108 70 85 69.108 85 68 z "
         id="path3877"
         transform="translate(0,967.36218)" />
      <path
         style="fill:#191919;fill-opacity:0.34999999;stroke:none"
         d="M 29 66 C 27.892 66 26 66.892 26 68 C 26 67.723 26.23225 67.462 26.59375 67.28125 C 26.95525 67.1005 27.446 67 28 67 L 83 67 C 83.554 67 84.04475 67.1005 84.40625 67.28125 C 84.76775 67.462 85 67.723 85 68 C 85 66.892 83.108 66 82 66 L 29 66 z "
         id="rect4721"
         transform="translate(0,967.36218)" />
      <path
         id="path3881"
         d="m 85,1036.3622 c 0,0.277 -0.23225,0.538 -0.59375,0.7187 -0.3615,0.1808 -0.85225,0.2813 -1.40625,0.2813 l -55,0 c -0.554,0 -1.04475,-0.1005 -1.40625,-0.2813 C 26.23225,1036.9002 26,1036.6392 26,1036.3622 c 0,1.108 1.892,2 3,2 l 53,0 c 1.108,0 3,-0.892 3,-2 z"
         style="fill:#ffffff;fill-opacity:0.07142857;stroke:none"
         inkscape:connector-curvature="0" />
    </g>
    <g
       id="g4741"
       transform="translate(-585.5,248.25)">
      <path
         sodipodi:type="arc"
         style="fill:#464646;fill-opacity:1;stroke:none"
         id="path4733"
         sodipodi:cx="757"
         sodipodi:cy="246"
         sodipodi:rx="4"
         sodipodi:ry="4"
         d="m 761,246 c 0,2.20914 -1.79086,4 -4,4 -2.20914,0 -4,-1.79086 -4,-4 0,-2.20914 1.79086,-4 4,-4 2.20914,0 4,1.79086 4,4 z"
         transform="translate(-110,509.3622)" />
      <path
         transform="matrix(0.75,0,0,0.75,79.250003,570.8622)"
         d="m 761,246 c 0,2.20914 -1.79086,4 -4,4 -2.20914,0 -4,-1.79086 -4,-4 0,-2.20914 1.79086,-4 4,-4 2.20914,0 4,1.79086 4,4 z"
         sodipodi:ry="4"
         sodipodi:rx="4"
         sodipodi:cy="246"
         sodipodi:cx="757"
         id="path4735"
         style="fill:#3c3c3c;fill-opacity:1;stroke:none"
         sodipodi:type="arc" />
      <rect
         ry="1.968751"
         rx="2"
         y="755.39343"
         x="646"
         height="1.968751"
         width="1.999998"
         id="rect4737"
         style="fill:#464646;fill-opacity:1;stroke:none" />
      <rect
         style="fill:#2d2d2d;fill-opacity:1;stroke:none"
         id="rect4739"
         width="1.999998"
         height="1.968751"
         x="646"
         y="754.39343"
         rx="2"
         ry="1.968751" />
    </g>
    <g
       id="horizontal-slider-handle">
      <rect
         transform="translate(0,902.36218)"
         y="125"
         x="59"
         height="16"
         width="16"
         id="rect4143"
         style="opacity:0.7;fill:#000000;fill-opacity:0.00392157;stroke:none" />
      <path
         transform="matrix(1,0,0,0.83333333,0,923.69551)"
         d="m 72,134 c 0,3.31371 -2.238576,6 -5,6 -2.761424,0 -5,-2.68629 -5,-6 0,-3.31371 2.238576,-6 5,-6 2.761424,0 5,2.68629 5,6 z"
         sodipodi:ry="6"
         sodipodi:rx="5"
         sodipodi:cy="134"
         sodipodi:cx="67"
         id="path3363"
         style="opacity:0.69999999999999996;fill:#000000;fill-opacity:0.24175824;stroke:none"
         sodipodi:type="arc" />
      <path
         sodipodi:type="arc"
         style="fill:#ffffff;fill-opacity:1;stroke:none"
         id="path4755"
         sodipodi:cx="757"
         sodipodi:cy="246"
         sodipodi:rx="4"
         sodipodi:ry="4"
         d="m 761,246 c 0,2.20914 -1.79086,4 -4,4 -2.20914,0 -4,-1.79086 -4,-4 0,-2.20914 1.79086,-4 4,-4 2.20914,0 4,1.79086 4,4 z"
         transform="translate(-690,789.33093)" />
      <path
         transform="matrix(0.75,0,0,0.75,-500.75,850.83093)"
         d="m 761,246 c 0,2.20914 -1.79086,4 -4,4 -2.20914,0 -4,-1.79086 -4,-4 0,-2.20914 1.79086,-4 4,-4 2.20914,0 4,1.79086 4,4 z"
         sodipodi:ry="4"
         sodipodi:rx="4"
         sodipodi:cy="246"
         sodipodi:cx="757"
         id="path4757"
         style="fill:#e3e0cd;fill-opacity:1;stroke:none"
         sodipodi:type="arc" />
      <rect
         ry="1.968751"
         rx="2"
         y="1035.3622"
         x="66"
         height="1.968751"
         width="1.999998"
         id="rect4759"
         style="fill:#ffffff;fill-opacity:1;stroke:none" />
      <rect
         style="fill:#989273;fill-opacity:1;stroke:none"
         id="rect4761"
         width="1.999998"
         height="1.968751"
         x="66"
         y="1034.3622"
         rx="2"
         ry="1.968751" />
    </g>
    <g
       id="vertical-slider-line"
       transform="matrix(0,-1,1,0,-1023.3622,1063.3622)">
      <rect
         style="opacity:0.7;fill:#191919;fill-opacity:0.00392157;stroke:none"
         id="rect4169"
         width="59"
         height="6.0625"
         x="26"
         y="1032.2997" />
      <path
         style="fill:#191919;fill-opacity:0.25;stroke:none"
         d="M 12 11 C 10.892 11 10 12.892 10 14 L 10 67 C 10 68.108 10.892 70 12 70 C 11.723 70 11.462 69.76775 11.28125 69.40625 C 11.1005 69.04475 11 68.554 11 68 L 11 13 C 11 12.446 11.1005 11.95525 11.28125 11.59375 C 11.462 11.23225 11.723 11 12 11 z "
         id="path3886"
         transform="matrix(0,1,-1,0,96.00002,1023.3622)" />
      <path
         style="fill:#191919;fill-opacity:0.16862746;stroke:none"
         d="M 12 11 C 11.723 11 11.462 11.23225 11.28125 11.59375 C 11.1005 11.95525 11 12.446 11 13 L 11 68 C 11 68.554 11.1005 69.04475 11.28125 69.40625 C 11.462 69.76775 11.723 70 12 70 C 12.277 70 12.538 69.76775 12.71875 69.40625 C 12.8995 69.04475 13 68.554 13 68 L 13 13 C 13 12.446 12.8995 11.95525 12.71875 11.59375 C 12.538 11.23225 12.277 11 12 11 z "
         id="path3884"
         transform="matrix(0,1,-1,0,96.00002,1023.3622)" />
      <path
         style="fill:#191919;fill-opacity:0.22222224;stroke:none"
         d="M 12 11 C 12.277 11 12.538 11.23225 12.71875 11.59375 C 12.8995 11.95525 13 12.446 13 13 L 13 68 C 13 68.554 12.8995 69.04475 12.71875 69.40625 C 12.538 69.76775 12.277 70 12 70 C 13.108 70 14 68.108 14 67 L 14 14 C 14 12.892 13.108 11 12 11 z "
         id="path4171"
         transform="matrix(0,1,-1,0,96.00002,1023.3622)" />
    </g>
    <g
       id="vertical-slider-handle"
       transform="translate(-55,-22.968753)">
      <rect
         style="opacity:0.7;fill:#000000;fill-opacity:0.00392157;stroke:none"
         id="rect2932"
         width="16"
         height="16"
         x="59"
         y="125"
         transform="translate(0,902.36218)" />
      <path
         sodipodi:type="arc"
         style="opacity:0.69999999999999996;fill:#000000;fill-opacity:0.24175824;stroke:none"
         id="path2934"
         sodipodi:cx="67"
         sodipodi:cy="134"
         sodipodi:rx="5"
         sodipodi:ry="6"
         d="m 72,134 c 0,3.31371 -2.238576,6 -5,6 -2.761424,0 -5,-2.68629 -5,-6 0,-3.31371 2.238576,-6 5,-6 2.761424,0 5,2.68629 5,6 z"
         transform="matrix(1,0,0,0.83333333,0,923.69551)" />
      <path
         transform="translate(-690,789.33093)"
         d="m 761,246 c 0,2.20914 -1.79086,4 -4,4 -2.20914,0 -4,-1.79086 -4,-4 0,-2.20914 1.79086,-4 4,-4 2.20914,0 4,1.79086 4,4 z"
         sodipodi:ry="4"
         sodipodi:rx="4"
         sodipodi:cy="246"
         sodipodi:cx="757"
         id="path2936"
         style="fill:#ffffff;fill-opacity:1;stroke:none"
         sodipodi:type="arc" />
      <path
         sodipodi:type="arc"
         style="fill:#e3e0cd;fill-opacity:1;stroke:none"
         id="path2938"
         sodipodi:cx="757"
         sodipodi:cy="246"
         sodipodi:rx="4"
         sodipodi:ry="4"
         d="m 761,246 c 0,2.20914 -1.79086,4 -4,4 -2.20914,0 -4,-1.79086 -4,-4 0,-2.20914 1.79086,-4 4,-4 2.20914,0 4,1.79086 4,4 z"
         transform="matrix(0.75,0,0,0.75,-500.75,850.83093)" />
      <rect
         style="fill:#ffffff;fill-opacity:1;stroke:none"
         id="rect2940"
         width="1.999998"
         height="1.968751"
         x="66"
         y="1035.3622"
         rx="2"
         ry="1.968751" />
      <rect
         ry="1.968751"
         rx="2"
         y="1034.3622"
         x="66"
         height="1.968751"
         width="1.999998"
         id="rect2942"
         style="fill:#989273;fill-opacity:1;stroke:none" />
    </g>
  </g>
</svg>
