<?xml version="1.0" encoding="UTF-8" standalone="no"?>
<svg
   width="22"
   height="22"
   enable-background="new"
   version="1.1"
   id="svg137"
   sodipodi:docname="audio.svg"
   inkscape:version="1.1.2 (0a00cf5339, 2022-02-04)"
   xmlns:inkscape="http://www.inkscape.org/namespaces/inkscape"
   xmlns:sodipodi="http://sodipodi.sourceforge.net/DTD/sodipodi-0.dtd"
   xmlns="http://www.w3.org/2000/svg"
   xmlns:svg="http://www.w3.org/2000/svg">
  <sodipodi:namedview
     id="namedview139"
     pagecolor="#ffffff"
     bordercolor="#666666"
     borderopacity="1.0"
     inkscape:pageshadow="2"
     inkscape:pageopacity="0.0"
     inkscape:pagecheckerboard="0"
     showgrid="false"
     inkscape:zoom="14.931818"
     inkscape:cx="58.499239"
     inkscape:cy="-1.7077626"
     inkscape:window-width="1920"
     inkscape:window-height="1007"
     inkscape:window-x="0"
     inkscape:window-y="0"
     inkscape:window-maximized="1"
     inkscape:current-layer="svg137" />
  <defs
     id="defs3">
    <style
       id="current-color-scheme"
       type="text/css">.ColorScheme-Text { color:#363636; } .ColorScheme-Highlight { color:#5294e2; } .ColorScheme-ButtonBackground { color:#363636; }</style>
  </defs>
  <g
     id="22-22-audio-volume-high"
     transform="translate(0,29)"
     fill="currentColor"
     class="ColorScheme-Text">
    <g
       transform="translate(-.5 -6.999)"
       class="ColorScheme-Text"
       fill="currentColor"
       id="g13">
      <path
         d="m4.2778-14 4.4444-3c0.84454-0.57006 1.7778 0.892 1.7778 2v8c0 1.108-0.93324 2.5701-1.7778 2l-4.4444-3c-0.84454-0.57006-1.7778-0.892-1.7778-2v-2c0-1.108 0.93324-1.4299 1.7778-2z"
         id="path5" />
      <path
         d="m13.326-15.141-1.6582 1.0352c-0.0048 0.01377-0.01302 0.02515-0.01758 0.03906a6 6 0 0 1 0.84961 3.0664 6 6 0 0 1-0.84961 3.0645c0.0047 0.0145 0.01262 0.026669 0.01758 0.041016l1.6602 1.0371a8 8 0 0 0 1.1719-4.1426 8 8 0 0 0-1.1738-4.1406z"
         id="path7" />
      <path
         d="m15.869-16.73-1.6953 1.0605a9 9 0 0 1 1.3262 4.6699 9 9 0 0 1-1.3281 4.6699l1.6914 1.0566a11 11 0 0 0 1.6367-5.7266 11 11 0 0 0-1.6309-5.7305z"
         id="path9" />
      <path
         d="m18.41-18.318-1.6992 1.0625a12 12 0 0 1 1.7891 6.2559 12 12 0 0 1-1.7812 6.2617l1.6875 1.0547a14 14 0 0 0 2.0938-7.3164 14 14 0 0 0-2.0898-7.3184z"
         id="path11" />
    </g>
    <rect
       y="-29"
       width="22"
       height="22"
       ry="0"
       fill="none"
       id="rect15" />
  </g>
  <g
     id="22-22-audio-volume-medium"
     transform="translate(23,29)"
     fill="currentColor"
     class="ColorScheme-Text">
    <g
       transform="translate(-.5 -6.999)"
       class="ColorScheme-Text"
       fill="currentColor"
       id="g26">
      <path
         d="m4.2778-14 4.4444-3c0.84454-0.57006 1.7778 0.892 1.7778 2v8c0 1.108-0.93324 2.5701-1.7778 2l-4.4444-3c-0.84454-0.57006-1.7778-0.892-1.7778-2v-2c0-1.108 0.93324-1.4299 1.7778-2z"
         id="path18" />
      <path
         d="m13.326-15.141-1.6582 1.0352c-0.0048 0.01377-0.01302 0.02515-0.01758 0.03906a6 6 0 0 1 0.84961 3.0664 6 6 0 0 1-0.84961 3.0645c0.0047 0.0145 0.01262 0.026669 0.01758 0.041016l1.6602 1.0371a8 8 0 0 0 1.1719-4.1426 8 8 0 0 0-1.1738-4.1406z"
         id="path20" />
      <path
         d="m15.869-16.73-1.6953 1.0605a9 9 0 0 1 1.3262 4.6699 9 9 0 0 1-1.3281 4.6699l1.6914 1.0566a11 11 0 0 0 1.6367-5.7266 11 11 0 0 0-1.6309-5.7305z"
         id="path22" />
      <path
         d="m18.41-18.318-1.6992 1.0625a12 12 0 0 1 1.7891 6.2559 12 12 0 0 1-1.7812 6.2617l1.6875 1.0547a14 14 0 0 0 2.0938-7.3164 14 14 0 0 0-2.0898-7.3184z"
         opacity=".35"
         id="path24" />
    </g>
    <rect
       y="-29"
       width="22"
       height="22"
       ry="0"
       fill="none"
       id="rect28" />
  </g>
  <g
     id="22-22-audio-volume-low"
     transform="translate(46,29)"
     fill="currentColor"
     class="ColorScheme-Text">
    <g
       transform="translate(-.5 -6.999)"
       class="ColorScheme-Text"
       fill="currentColor"
       id="g39">
      <path
         d="m4.2778-14 4.4444-3c0.84454-0.57006 1.7778 0.892 1.7778 2v8c0 1.108-0.93324 2.5701-1.7778 2l-4.4444-3c-0.84454-0.57006-1.7778-0.892-1.7778-2v-2c0-1.108 0.93324-1.4299 1.7778-2z"
         id="path31" />
      <path
         d="m13.326-15.141-1.6582 1.0352c-0.0048 0.01377-0.01302 0.02515-0.01758 0.03906a6 6 0 0 1 0.84961 3.0664 6 6 0 0 1-0.84961 3.0645c0.0047 0.0145 0.01262 0.026669 0.01758 0.041016l1.6602 1.0371a8 8 0 0 0 1.1719-4.1426 8 8 0 0 0-1.1738-4.1406z"
         id="path33" />
      <path
         d="m15.869-16.73-1.6953 1.0605a9 9 0 0 1 1.3262 4.6699 9 9 0 0 1-1.3281 4.6699l1.6914 1.0566a11 11 0 0 0 1.6367-5.7266 11 11 0 0 0-1.6309-5.7305z"
         opacity=".35"
         id="path35" />
      <path
         d="m18.41-18.318-1.6992 1.0625a12 12 0 0 1 1.7891 6.2559 12 12 0 0 1-1.7812 6.2617l1.6875 1.0547a14 14 0 0 0 2.0938-7.3164 14 14 0 0 0-2.0898-7.3184z"
         opacity=".35"
         id="path37" />
    </g>
    <rect
       y="-29"
       width="22"
       height="22"
       ry="0"
       fill="none"
       id="rect41" />
  </g>
  <g
     id="22-22-audio-volume-muted"
     transform="translate(-24 28.999)"
     opacity=".35"
     fill="currentColor"
     class="ColorScheme-Text">
    <g
       transform="translate(-.5 -6.999)"
       class="ColorScheme-Text"
       fill="currentColor"
       style=""
       id="g52">
      <path
         d="m4.2778-14 4.4444-3c0.84454-0.57006 1.7778 0.892 1.7778 2v8c0 1.108-0.93324 2.5701-1.7778 2l-4.4444-3c-0.84454-0.57006-1.7778-0.892-1.7778-2v-2c0-1.108 0.93324-1.4299 1.7778-2z"
         opacity="1"
         id="path44" />
      <path
         d="m13.326-15.141-1.6582 1.0352c-0.0048 0.01377-0.01302 0.02515-0.01758 0.03906a6 6 0 0 1 0.84961 3.0664 6 6 0 0 1-0.84961 3.0645c0.0047 0.0145 0.01262 0.026669 0.01758 0.041016l1.6602 1.0371a8 8 0 0 0 1.1719-4.1426 8 8 0 0 0-1.1738-4.1406z"
         opacity="1"
         id="path46" />
      <path
         d="m15.869-16.73-1.6953 1.0605a9 9 0 0 1 1.3262 4.6699 9 9 0 0 1-1.3281 4.6699l1.6914 1.0566a11 11 0 0 0 1.6367-5.7266 11 11 0 0 0-1.6309-5.7305z"
         opacity="1"
         id="path48" />
      <path
         d="m18.41-18.318-1.6992 1.0625a12 12 0 0 1 1.7891 6.2559 12 12 0 0 1-1.7812 6.2617l1.6875 1.0547a14 14 0 0 0 2.0938-7.3164 14 14 0 0 0-2.0898-7.3184z"
         opacity="1"
         id="path50" />
    </g>
    <rect
       y="-29"
       width="22"
       height="22"
       ry="0"
       fill="none"
       opacity="1"
       id="rect54" />
  </g>
  <g
     id="16-16-audio-volume-muted"
     fill="currentColor"
     class="ColorScheme-Text">
    <rect
       x="-23"
       y="-22"
       width="16"
       height="16"
       ry="0"
       fill="none"
       id="rect57" />
    <path
       d="m-20.222-17 4.4444-3c0.84454-0.57006 1.7778 0.892 1.7778 2v8c0 1.108-0.93324 2.5701-1.7778 2l-4.4444-3c-0.84454-0.57006-1.7778-0.892-1.7778-2v-2c0-1.108 0.93324-1.4299 1.7778-2z"
       class="ColorScheme-Text"
       fill="currentColor"
       opacity=".35"
       id="path59" />
    <path
       d="m-11.174-18.141-1.6582 1.0352c-0.0048 0.01377-0.01302 0.02515-0.01758 0.03906a6 6 0 0 1 0.84961 3.0664 6 6 0 0 1-0.84961 3.0645c0.0047 0.0145 0.01262 0.02667 0.01758 0.04102l1.6602 1.0371a8 8 0 0 0 1.1719-4.1426 8 8 0 0 0-1.1738-4.1406z"
       class="ColorScheme-Text"
       fill="currentColor"
       opacity=".35"
       id="path61" />
    <path
       d="m-8.631-19.73-1.6953 1.0605a9 9 0 0 1 1.3262 4.6699 9 9 0 0 1-1.3281 4.6699l1.6914 1.0566a11 11 0 0 0 1.6367-5.7266 11 11 0 0 0-1.6309-5.7305z"
       class="ColorScheme-Text"
       fill="currentColor"
       opacity=".35"
       id="path63" />
  </g>
  <g
     id="16-16-audio-volume-high"
     transform="translate(24)"
     fill="currentColor"
     class="ColorScheme-Text">
    <rect
       x="-23"
       y="-22"
       width="16"
       height="16"
       ry="0"
       fill="none"
       id="rect66" />
    <path
       d="m-20.222-17 4.4444-3c0.84454-0.57006 1.7778 0.892 1.7778 2v8c0 1.108-0.93324 2.5701-1.7778 2l-4.4444-3c-0.84454-0.57006-1.7778-0.892-1.7778-2v-2c0-1.108 0.93324-1.4299 1.7778-2z"
       class="ColorScheme-Text"
       fill="currentColor"
       id="path68" />
    <path
       d="m-11.174-18.141-1.6582 1.0352c-0.0048 0.01377-0.01302 0.02515-0.01758 0.03906a6 6 0 0 1 0.84961 3.0664 6 6 0 0 1-0.84961 3.0645c0.0047 0.0145 0.01262 0.02667 0.01758 0.04102l1.6602 1.0371a8 8 0 0 0 1.1719-4.1426 8 8 0 0 0-1.1738-4.1406z"
       class="ColorScheme-Text"
       fill="currentColor"
       id="path70" />
    <path
       d="m-8.631-19.73-1.6953 1.0605a9 9 0 0 1 1.3262 4.6699 9 9 0 0 1-1.3281 4.6699l1.6914 1.0566a11 11 0 0 0 1.6367-5.7266 11 11 0 0 0-1.6309-5.7305z"
       class="ColorScheme-Text"
       fill="currentColor"
       id="path72" />
  </g>
  <g
     id="16-16-audio-volume-medium"
     transform="translate(48)"
     fill="currentColor"
     class="ColorScheme-Text">
    <rect
       x="-23"
       y="-22"
       width="16"
       height="16"
       ry="0"
       fill="none"
       id="rect75" />
    <path
       d="m-20.222-17 4.4444-3c0.84454-0.57006 1.7778 0.892 1.7778 2v8c0 1.108-0.93324 2.5701-1.7778 2l-4.4444-3c-0.84454-0.57006-1.7778-0.892-1.7778-2v-2c0-1.108 0.93324-1.4299 1.7778-2z"
       class="ColorScheme-Text"
       fill="currentColor"
       id="path77" />
    <path
       d="m-11.174-18.141-1.6582 1.0352c-0.0048 0.01377-0.01302 0.02515-0.01758 0.03906a6 6 0 0 1 0.84961 3.0664 6 6 0 0 1-0.84961 3.0645c0.0047 0.0145 0.01262 0.02667 0.01758 0.04102l1.6602 1.0371a8 8 0 0 0 1.1719-4.1426 8 8 0 0 0-1.1738-4.1406z"
       class="ColorScheme-Text"
       fill="currentColor"
       id="path79" />
    <path
       d="m-8.631-19.73-1.6953 1.0605a9 9 0 0 1 1.3262 4.6699 9 9 0 0 1-1.3281 4.6699l1.6914 1.0566a11 11 0 0 0 1.6367-5.7266 11 11 0 0 0-1.6309-5.7305z"
       class="ColorScheme-Text"
       fill="currentColor"
       opacity=".35"
       id="path81" />
  </g>
  <g
     id="16-16-audio-volume-low"
     transform="translate(70)"
     fill="currentColor"
     class="ColorScheme-Text">
    <rect
       x="-23"
       y="-22"
       width="16"
       height="16"
       ry="0"
       fill="none"
       id="rect84" />
    <path
       d="m-20.222-17 4.4444-3c0.84454-0.57006 1.7778 0.892 1.7778 2v8c0 1.108-0.93324 2.5701-1.7778 2l-4.4444-3c-0.84454-0.57006-1.7778-0.892-1.7778-2v-2c0-1.108 0.93324-1.4299 1.7778-2z"
       class="ColorScheme-Text"
       fill="currentColor"
       id="path86" />
    <path
       d="m-11.174-18.141-1.6582 1.0352c-0.0048 0.01377-0.01302 0.02515-0.01758 0.03906a6 6 0 0 1 0.84961 3.0664 6 6 0 0 1-0.84961 3.0645c0.0047 0.0145 0.01262 0.02667 0.01758 0.04102l1.6602 1.0371a8 8 0 0 0 1.1719-4.1426 8 8 0 0 0-1.1738-4.1406z"
       class="ColorScheme-Text"
       fill="currentColor"
       opacity=".35"
       id="path88" />
    <path
       d="m-8.631-19.73-1.6953 1.0605a9 9 0 0 1 1.3262 4.6699 9 9 0 0 1-1.3281 4.6699l1.6914 1.0566a11 11 0 0 0 1.6367-5.7266 11 11 0 0 0-1.6309-5.7305z"
       class="ColorScheme-Text"
       fill="currentColor"
       opacity=".35"
       id="path90" />
  </g>
  <g
     id="audio-volume-high"
     transform="translate(-7)">
    <rect
       x="9"
       y="30"
       width="32"
       height="32"
       ry="0"
       fill="none"
       id="rect93" />
    <path
       d="m14.667 41.5 6.6666-4.5c1.2668-0.85509 2.6667 1.338 2.6667 3v12c0 1.662-1.3999 3.8552-2.6667 3l-6.6666-4.5c-1.2668-0.85509-2.6667-1.338-2.6667-3v-3c0-1.662 1.3999-2.1448 2.6667-3z"
       class="ColorScheme-Text"
       fill="currentColor"
       id="path95" />
    <path
       d="m27.266 39.516-1.6914 1.0703a11 11 0 0 1 1.4258 5.4141 11 11 0 0 1-1.4258 5.4141l1.6934 1.0703a13 13 0 0 0 1.7324-6.4844 13 13 0 0 0-1.7344-6.4844z"
       class="ColorScheme-Text"
       fill="currentColor"
       id="path97" />
    <path
       d="m30.65 37.379-1.6914 1.0684a15 15 0 0 1 2.041 7.5527 15 15 0 0 1-2.041 7.5527l1.6914 1.0684a17 17 0 0 0 2.3496-8.6211 17 17 0 0 0-2.3496-8.6211z"
       class="ColorScheme-Text"
       fill="currentColor"
       id="path99" />
    <path
       d="m34.033 35.242-1.6914 1.0684a19 19 0 0 1 2.6582 9.6895 19 19 0 0 1-2.6582 9.6895l1.6934 1.0684a21 21 0 0 0 2.9648-10.758 21 21 0 0 0-2.9668-10.758z"
       class="ColorScheme-Text"
       fill="currentColor"
       id="path101" />
  </g>
  <g
     id="audio-volume-medium"
     transform="translate(31)">
    <rect
       x="9"
       y="30"
       width="32"
       height="32"
       ry="0"
       fill="none"
       id="rect104" />
    <path
       d="m14.667 41.5 6.6666-4.5c1.2668-0.85509 2.6667 1.338 2.6667 3v12c0 1.662-1.3999 3.8552-2.6667 3l-6.6666-4.5c-1.2668-0.85509-2.6667-1.338-2.6667-3v-3c0-1.662 1.3999-2.1448 2.6667-3z"
       class="ColorScheme-Text"
       fill="currentColor"
       id="path106" />
    <path
       d="m27.266 39.516-1.6914 1.0703a11 11 0 0 1 1.4258 5.4141 11 11 0 0 1-1.4258 5.4141l1.6934 1.0703a13 13 0 0 0 1.7324-6.4844 13 13 0 0 0-1.7344-6.4844z"
       class="ColorScheme-Text"
       fill="currentColor"
       id="path108" />
    <path
       d="m30.65 37.379-1.6914 1.0684a15 15 0 0 1 2.041 7.5527 15 15 0 0 1-2.041 7.5527l1.6914 1.0684a17 17 0 0 0 2.3496-8.6211 17 17 0 0 0-2.3496-8.6211z"
       class="ColorScheme-Text"
       fill="currentColor"
       id="path110" />
    <path
       d="m34.033 35.242-1.6914 1.0684a19 19 0 0 1 2.6582 9.6895 19 19 0 0 1-2.6582 9.6895l1.6934 1.0684a21 21 0 0 0 2.9648-10.758 21 21 0 0 0-2.9668-10.758z"
       class="ColorScheme-Text"
       fill="currentColor"
       opacity=".35"
       id="path112" />
  </g>
  <g
     id="audio-volume-low"
     transform="translate(66)">
    <rect
       x="9"
       y="30"
       width="32"
       height="32"
       ry="0"
       fill="none"
       id="rect115" />
    <path
       d="m14.667 41.5 6.6666-4.5c1.2668-0.85509 2.6667 1.338 2.6667 3v12c0 1.662-1.3999 3.8552-2.6667 3l-6.6666-4.5c-1.2668-0.85509-2.6667-1.338-2.6667-3v-3c0-1.662 1.3999-2.1448 2.6667-3z"
       class="ColorScheme-Text"
       fill="currentColor"
       id="path117" />
    <path
       d="m27.266 39.516-1.6914 1.0703a11 11 0 0 1 1.4258 5.4141 11 11 0 0 1-1.4258 5.4141l1.6934 1.0703a13 13 0 0 0 1.7324-6.4844 13 13 0 0 0-1.7344-6.4844z"
       class="ColorScheme-Text"
       fill="currentColor"
       id="path119" />
    <path
       d="m30.65 37.379-1.6914 1.0684a15 15 0 0 1 2.041 7.5527 15 15 0 0 1-2.041 7.5527l1.6914 1.0684a17 17 0 0 0 2.3496-8.6211 17 17 0 0 0-2.3496-8.6211z"
       class="ColorScheme-Text"
       fill="currentColor"
       opacity=".35"
       id="path121" />
    <path
       d="m34.033 35.242-1.6914 1.0684a19 19 0 0 1 2.6582 9.6895 19 19 0 0 1-2.6582 9.6895l1.6934 1.0684a21 21 0 0 0 2.9648-10.758 21 21 0 0 0-2.9668-10.758z"
       class="ColorScheme-Text"
       fill="currentColor"
       opacity=".35"
       id="path123" />
  </g>
  <g
     id="audio-volume-muted"
     transform="translate(-44)">
    <rect
       x="9"
       y="30"
       width="32"
       height="32"
       ry="0"
       fill="none"
       id="rect126" />
    <path
       d="m14.667 41.5 6.6666-4.5c1.2668-0.85509 2.6667 1.338 2.6667 3v12c0 1.662-1.3999 3.8552-2.6667 3l-6.6666-4.5c-1.2668-0.85509-2.6667-1.338-2.6667-3v-3c0-1.662 1.3999-2.1448 2.6667-3z"
       class="ColorScheme-Text"
       fill="currentColor"
       opacity=".35"
       id="path128" />
    <path
       d="m27.266 39.516-1.6914 1.0703a11 11 0 0 1 1.4258 5.4141 11 11 0 0 1-1.4258 5.4141l1.6934 1.0703a13 13 0 0 0 1.7324-6.4844 13 13 0 0 0-1.7344-6.4844z"
       class="ColorScheme-Text"
       fill="currentColor"
       opacity=".35"
       id="path130" />
    <path
       d="m30.65 37.379-1.6914 1.0684a15 15 0 0 1 2.041 7.5527 15 15 0 0 1-2.041 7.5527l1.6914 1.0684a17 17 0 0 0 2.3496-8.6211 17 17 0 0 0-2.3496-8.6211z"
       class="ColorScheme-Text"
       fill="currentColor"
       opacity=".35"
       id="path132" />
    <path
       d="m34.033 35.242-1.6914 1.0684a19 19 0 0 1 2.6582 9.6895 19 19 0 0 1-2.6582 9.6895l1.6934 1.0684a21 21 0 0 0 2.9648-10.758 21 21 0 0 0-2.9668-10.758z"
       class="ColorScheme-Text"
       fill="currentColor"
       opacity=".35"
       id="path134" />
  </g>
</svg>
