<?xml version="1.0" encoding="UTF-8" standalone="no"?>
<svg
   width="22"
   height="22"
   enable-background="new"
   version="1.1"
   id="svg137"
   sodipodi:docname="device.svg"
   inkscape:version="1.1.2 (0a00cf5339, 2022-02-04)"
   xmlns:inkscape="http://www.inkscape.org/namespaces/inkscape"
   xmlns:sodipodi="http://sodipodi.sourceforge.net/DTD/sodipodi-0.dtd"
   xmlns="http://www.w3.org/2000/svg"
   xmlns:svg="http://www.w3.org/2000/svg">
  <sodipodi:namedview
     id="namedview139"
     pagecolor="#ffffff"
     bordercolor="#666666"
     borderopacity="1.0"
     inkscape:pageshadow="2"
     inkscape:pageopacity="0.0"
     inkscape:pagecheckerboard="0"
     showgrid="false"
     inkscape:zoom="14.931818"
     inkscape:cx="6.7975648"
     inkscape:cy="10.681887"
     inkscape:window-width="1920"
     inkscape:window-height="1032"
     inkscape:window-x="0"
     inkscape:window-y="24"
     inkscape:window-maximized="1"
     inkscape:current-layer="svg137" />
  <defs
     id="defs3">
    <style
       id="current-color-scheme"
       type="text/css">.ColorScheme-Text { color:#363636; } .ColorScheme-Highlight { color:#5294e2; } .ColorScheme-ButtonBackground { color:#363636; }</style>
  </defs>
  <g
     id="22-22-device-notifier"
     transform="translate(0.02857066,0.0169374)"
     fill="currentColor">
    <rect
       id="rect12"
       class="ColorScheme-Text"
       width="22"
       height="22"
       color="#dedede"
       fill-opacity="0"
       x="0"
       y="0" />
    <rect
       id="rect14"
       width="22"
       height="22"
       opacity="0"
       x="0"
       y="0" />
    <rect
       id="rect16"
       class="ColorScheme-Text"
       width="22"
       height="22"
       color="#dedede"
       fill-opacity="0"
       x="0"
       y="0" />
    <path
       id="rect849"
       d="M 10,2 C 7.23,2 5,4.23 5,7 v 3 6 H 17 V 10 7 C 17,4.23 14.77,2 12,2 Z m 1,1 a 1,1 0 0 1 1,1 1,1 0 0 1 -1,1 1,1 0 0 1 -1,-1 1,1 0 0 1 1,-1 z"
       fill="currentColor"
       class="ColorScheme-Text" />
    <path
       id="path20"
       d="m 7,17 v 3 h 8 v -3 z m 1,1 h 2 v 1 H 8 Z m 4,0 h 2 v 1 h -2 z"
       fill="currentColor"
       stroke-width="1.4142"
       class="ColorScheme-Text" />
  </g>
  <g
     id="16-16-device-notifier"
     transform="translate(0.02857066,0.0169374)">
    <rect
       id="rect5"
       x="-4.9999999e-05"
       y="25.993"
       width="16"
       height="16"
       opacity="0" />
    <rect
       id="rect7"
       class="ColorScheme-Text"
       x="-4.9999999e-05"
       y="25.993"
       width="16"
       height="16"
       color="#dedede"
       fill-opacity="0" />
    <path
       id="path9"
       class="ColorScheme-Text"
       d="m 5,38.994 v 1.999 h 6 v -1.999 z"
       enable-background="new"
       fill="currentColor"
       inkscape:connector-curvature="0"
       sodipodi:nodetypes="ccccc" />
    <path
       id="rect853"
       d="m 6,27 c -1.662,0 -3,1.338 -3,3 v 2 3 3 h 3 4 3 v -3 -3 -2 c 0,-1.662 -1.338,-3 -3,-3 z"
       class="ColorScheme-Text"
       fill="currentColor" />
  </g>
  <g
     id="device-notifier"
     transform="translate(0.02857066,0.0169374)"
     class="ColorScheme-Text">
    <rect
       id="rect23"
       y="-34"
       width="32"
       height="32"
       opacity="0"
       x="0" />
    <rect
       id="rect25"
       class="ColorScheme-Text"
       y="-34"
       width="32"
       height="32"
       color="#dedede"
       fill-opacity="0"
       x="0" />
    <path
       id="path29"
       d="m 11,-9 v 4 h 10 v -4 z m 2,1 h 2 v 2 h -2 z m 4,0 h 2 v 2 h -2 z"
       enable-background="new"
       fill="currentColor"
       class="ColorScheme-Text" />
    <g
       fill="#dedede"
       id="g24">
      <path
         id="rect871"
         d="m 14,-32 c -3.878,0 -7,3.122 -7,7 v 5 c 0,3.878 3.122,7 7,7 h 4 c 3.878,0 7,-3.122 7,-7 v -5 c 0,-3.878 -3.122,-7 -7,-7 z m -1,2 h 6 c 0.554,0 1,0.446 1,1 0,0.554 -0.446,1 -1,1 h -6 c -0.554,0 -1,-0.446 -1,-1 0,-0.554 0.446,-1 1,-1 z"
         class="ColorScheme-Text"
         fill="currentColor" />
      <rect
         id="rect873"
         x="7"
         y="-24"
         width="18"
         height="13"
         ry="2"
         fill="currentColor"
         class="ColorScheme-Text" />
    </g>
  </g>
</svg>
