<?xml version="1.0" encoding="UTF-8" standalone="no"?>
<svg
   width="32"
   height="32"
   version="1.1"
   id="svg12"
   sodipodi:docname="start.svg"
   inkscape:version="1.1.2 (0a00cf5339, 2022-02-04)"
   xmlns:inkscape="http://www.inkscape.org/namespaces/inkscape"
   xmlns:sodipodi="http://sodipodi.sourceforge.net/DTD/sodipodi-0.dtd"
   xmlns="http://www.w3.org/2000/svg"
   xmlns:svg="http://www.w3.org/2000/svg"
   xmlns:rdf="http://www.w3.org/1999/02/22-rdf-syntax-ns#"
   xmlns:cc="http://creativecommons.org/ns#"
   xmlns:dc="http://purl.org/dc/elements/1.1/">
  <metadata
     id="metadata16">
    <rdf:RDF>
      <cc:Work
         rdf:about="">
        <dc:format>image/svg+xml</dc:format>
        <dc:type
           rdf:resource="http://purl.org/dc/dcmitype/StillImage" />
      </cc:Work>
    </rdf:RDF>
  </metadata>
  <sodipodi:namedview
     pagecolor="#c8c8c8"
     bordercolor="#666666"
     borderopacity="1"
     objecttolerance="10"
     gridtolerance="10"
     guidetolerance="10"
     inkscape:pageopacity="0"
     inkscape:pageshadow="2"
     inkscape:window-width="1920"
     inkscape:window-height="1030"
     id="namedview14"
     showgrid="true"
     inkscape:zoom="16"
     inkscape:cx="40.78125"
     inkscape:cy="4.03125"
     inkscape:window-x="0"
     inkscape:window-y="24"
     inkscape:window-maximized="1"
     inkscape:current-layer="svg12"
     inkscape:snap-bbox="true"
     inkscape:bbox-nodes="true"
     inkscape:snap-bbox-edge-midpoints="true"
     inkscape:snap-nodes="true"
     inkscape:document-rotation="0"
     inkscape:object-paths="true"
     inkscape:snap-intersection-paths="true"
     inkscape:snap-smooth-nodes="true"
     inkscape:snap-midpoints="true"
     inkscape:pagecheckerboard="0">
    <inkscape:grid
       type="xygrid"
       id="grid4539" />
  </sodipodi:namedview>
  <defs
     id="defs7386">
    <style
       id="current-color-scheme"
       type="text/css">
   .ColorScheme-Text { color:#dedede; } .ColorScheme-Highlight { color:#5294e2; } .ColorScheme-ButtonBackground { color:#dedede; }
  </style>
    <linearGradient
       id="linearGradient8660"
       x1="-7.6728001"
       x2="-5.027"
       y1="-29.104"
       y2="-27.252001"
       gradientTransform="matrix(3.3620413,0,0,3.3620413,56.979969,79.985673)"
       gradientUnits="userSpaceOnUse">
      <stop
         stop-color="#00bffb"
         offset="0"
         id="stop17" />
      <stop
         stop-color="#01a0f3"
         offset="1"
         id="stop19" />
    </linearGradient>
    <linearGradient
       id="linearGradient8668"
       x1="-4.7624002"
       x2="-1.852"
       y1="-27.252001"
       y2="-30.122999"
       gradientTransform="matrix(3.5258028,0,0,3.3620413,57.757906,79.985673)"
       gradientUnits="userSpaceOnUse">
      <stop
         stop-color="#11c2f4"
         offset="0"
         id="stop12" />
      <stop
         stop-color="#2dc5f4"
         offset="1"
         id="stop14" />
    </linearGradient>
    <linearGradient
       id="linearGradient8676"
       x1="-7.6728001"
       x2="-5.027"
       y1="-26.722"
       y2="-24.493"
       gradientTransform="matrix(3.3620413,0,0,3.3620413,56.979969,79.985673)"
       gradientUnits="userSpaceOnUse">
      <stop
         stop-color="#0954a8"
         offset="0"
         id="stop7" />
      <stop
         stop-color="#0954a8"
         offset="1"
         id="stop9" />
    </linearGradient>
    <linearGradient
       id="linearGradient8684"
       x1="-4.4977999"
       x2="-1.852"
       y1="-26.722"
       y2="-24.111"
       gradientTransform="matrix(3.5258028,0,0,3.3620413,57.757906,79.985673)"
       gradientUnits="userSpaceOnUse">
      <stop
         stop-color="#339ed9"
         offset="0"
         id="stop2" />
      <stop
         stop-color="#2386c9"
         offset="1"
         id="stop4" />
    </linearGradient>
  </defs>
  <g
     id="start-here-kde"
     transform="translate(0,30.5)">
    <circle
       style="opacity:0.2;fill:currentColor;fill-opacity:0.992667;stroke:none;stroke-width:3.35958;stroke-linejoin:round;paint-order:fill markers stroke"
       id="path1325"
       cx="16"
       cy="-15"
       r="15"
       class="ColorScheme-Text" />
    <path
       id="circle1566"
       style="opacity:1;fill:currentColor;fill-opacity:0.992667;stroke:none;stroke-width:1.95976;stroke-linejoin:round;paint-order:fill markers stroke"
       class="ColorScheme-Text"
       d="M 16,-23.75 A 8.75,8.75 0 0 0 7.25,-15 8.75,8.75 0 0 0 16,-6.25 8.75,8.75 0 0 0 24.75,-15 8.75,8.75 0 0 0 16,-23.75 Z m 0,2.041016 A 6.7095747,6.7095747 0 0 1 22.708984,-15 6.7095747,6.7095747 0 0 1 16,-8.2910156 6.7095747,6.7095747 0 0 1 9.2910156,-15 6.7095747,6.7095747 0 0 1 16,-21.708984 Z" />
    <circle
       style="opacity:1;fill:currentColor;fill-opacity:0.992667;stroke:none;stroke-width:2.70092;stroke-linejoin:round;stroke-opacity:1;paint-order:fill markers stroke"
       id="path1608"
       cx="16"
       cy="-15"
       r="4.9130058"
       class="ColorScheme-Text" />
  </g>
  <g
     id="22-22-start-here-kde"
     transform="matrix(0.68616429,0,0,0.67944443,39.247468,3.1916664)">
    <circle
       style="opacity:0.2;fill:currentColor;fill-opacity:0.992667;stroke:none;stroke-width:3.35958;stroke-linejoin:round;paint-order:fill markers stroke"
       id="circle1952"
       cx="16"
       cy="-15"
       r="15"
       class="ColorScheme-Text" />
    <path
       id="path1954"
       style="opacity:1;fill:currentColor;fill-opacity:0.992667;stroke:none;stroke-width:1.95976;stroke-linejoin:round;paint-order:fill markers stroke"
       class="ColorScheme-Text"
       d="M 16,-23.75 A 8.75,8.75 0 0 0 7.25,-15 8.75,8.75 0 0 0 16,-6.25 8.75,8.75 0 0 0 24.75,-15 8.75,8.75 0 0 0 16,-23.75 Z m 0,2.041016 A 6.7095747,6.7095747 0 0 1 22.708984,-15 6.7095747,6.7095747 0 0 1 16,-8.2910156 6.7095747,6.7095747 0 0 1 9.2910156,-15 6.7095747,6.7095747 0 0 1 16,-21.708984 Z" />
    <circle
       style="opacity:1;fill:currentColor;fill-opacity:0.992667;stroke:none;stroke-width:3.02362;stroke-linejoin:round;stroke-opacity:1;paint-order:fill markers stroke"
       id="circle1956"
       cx="16"
       cy="-15"
       r="5.5"
       class="ColorScheme-Text" />
  </g>
</svg>
