<?xml version="1.0" encoding="UTF-8" standalone="no"?>
<svg
   height="16"
   width="16"
   version="1.1"
   id="svg4"
   sodipodi:docname="geo.svg"
   inkscape:version="1.1.2 (0a00cf5339, 2022-02-04)"
   xmlns:inkscape="http://www.inkscape.org/namespaces/inkscape"
   xmlns:sodipodi="http://sodipodi.sourceforge.net/DTD/sodipodi-0.dtd"
   xmlns="http://www.w3.org/2000/svg"
   xmlns:svg="http://www.w3.org/2000/svg">
  <defs
     id="defs8" />
  <sodipodi:namedview
     id="namedview6"
     pagecolor="#ffffff"
     bordercolor="#666666"
     borderopacity="1.0"
     inkscape:pageshadow="2"
     inkscape:pageopacity="0.0"
     inkscape:pagecheckerboard="0"
     showgrid="false"
     inkscape:zoom="27.84233"
     inkscape:cx="3.555737"
     inkscape:cy="6.5368094"
     inkscape:window-width="1920"
     inkscape:window-height="1022"
     inkscape:window-x="0"
     inkscape:window-y="0"
     inkscape:window-maximized="1"
     inkscape:current-layer="svg4" />
  <path
     id="path849"
     style="fill:#535353;fill-opacity:1;stroke-width:0.0878019"
     d="m 7.7978183,1.7348933 c -2.3023815,-2.5e-6 -4.168837,1.8664597 -4.168837,4.1688403 0,1.1779775 0.5331047,2.4797265 1.0716173,3.6947805 0.6298332,1.4211149 1.4265014,2.7335339 2.0704321,3.6329669 0.5365766,0.749489 0.7866123,1.212227 1.1067369,1.212227 0.3004103,0 0.5740765,-0.472535 1.0883437,-1.235471 0.6079667,-0.901922 1.3489187,-2.209688 1.9432397,-3.6221109 0.510736,-1.213769 1.057311,-2.5058424 1.057311,-3.6823925 0,-2.3023781 -1.866469,-4.1688403 -4.1688437,-4.1688403 z m 0,2.4162743 A 1.7777766,1.7777766 0 0 1 9.5756732,5.9288925 1.7777766,1.7777766 0 0 1 7.7978183,7.7067441 1.7777766,1.7777766 0 0 1 6.0200934,5.9288925 1.7777766,1.7777766 0 0 1 7.7978183,4.1511676 Z" />
</svg>
