<?xml version="1.0" encoding="UTF-8" standalone="no"?>
<svg
   width="48"
   height="48"
   version="1.1"
   viewBox="0 0 12.698182 12.698182"
   id="svg24"
   sodipodi:docname="arrows.svg"
   inkscape:version="1.3 (0e150ed6c4, 2023-07-21)"
   xmlns:inkscape="http://www.inkscape.org/namespaces/inkscape"
   xmlns:sodipodi="http://sodipodi.sourceforge.net/DTD/sodipodi-0.dtd"
   xmlns="http://www.w3.org/2000/svg"
   xmlns:svg="http://www.w3.org/2000/svg"
   xmlns:rdf="http://www.w3.org/1999/02/22-rdf-syntax-ns#"
   xmlns:cc="http://creativecommons.org/ns#"
   xmlns:dc="http://purl.org/dc/elements/1.1/">
  <metadata
     id="metadata30">
    <rdf:RDF>
      <cc:Work
         rdf:about="">
        <dc:format>image/svg+xml</dc:format>
        <dc:type
           rdf:resource="http://purl.org/dc/dcmitype/StillImage" />
      </cc:Work>
    </rdf:RDF>
  </metadata>
  <defs
     id="defs28">
    <style
       type="text/css"
       id="current-color-scheme">&#10;      .ColorScheme-Text {&#10;        color:#31363b;&#10;      }&#10;      .ColorScheme-Background{&#10;        color:#eff0f1;&#10;      }&#10;      .ColorScheme-ViewText {&#10;        color:#31363b;&#10;      }&#10;      .ColorScheme-ViewBackground{&#10;        color:#fcfcfc;&#10;      }&#10;      .ColorScheme-ViewHover {&#10;        color:#3daee9;&#10;      }&#10;      .ColorScheme-ViewFocus{&#10;        color:#3daee9;&#10;      }&#10;      .ColorScheme-ButtonText {&#10;        color:#31363b;&#10;      }&#10;      .ColorScheme-ButtonBackground{&#10;        color:#eff0f1;&#10;      }&#10;      .ColorScheme-ButtonHover {&#10;        color:#3daee9;&#10;      }&#10;      .ColorScheme-ButtonFocus{&#10;        color:#3daee9;&#10;      }&#10;</style>
  </defs>
  <sodipodi:namedview
     pagecolor="#c8c8c8"
     bordercolor="#666666"
     borderopacity="1"
     objecttolerance="10"
     gridtolerance="10"
     guidetolerance="10"
     inkscape:pageopacity="0"
     inkscape:pageshadow="2"
     inkscape:window-width="1920"
     inkscape:window-height="989"
     id="namedview26"
     showgrid="true"
     inkscape:zoom="10.727273"
     inkscape:cx="14.402542"
     inkscape:cy="22.09322"
     inkscape:window-x="0"
     inkscape:window-y="0"
     inkscape:window-maximized="1"
     inkscape:current-layer="svg24"
     inkscape:showpageshadow="0"
     inkscape:pagecheckerboard="0"
     inkscape:deskcolor="#d1d1d1">
    <inkscape:grid
       type="xygrid"
       id="grid824"
       originx="0"
       originy="0"
       spacingy="1"
       spacingx="1"
       units="px"
       visible="true" />
  </sodipodi:namedview>
  <g
     id="right-arrow"
     transform="matrix(0.26454545,0,0,0.26454545,6.878182,3.439091)"
     inkscape:label="#right-arrow">
    <rect
       style="opacity:0;fill:#7d7d7d;fill-opacity:1;stroke:none"
       id="rect3772"
       width="22"
       height="22"
       x="0"
       y="0" />
    <path
       class="ColorScheme-Text"
       inkscape:connector-curvature="0"
       style="color:#31363b;fill:#eaeaea;fill-opacity:1"
       d="M 8,17 7,16 12,11 7,6 8,5 l 6,6 z"
       id="path3774"
       sodipodi:nodetypes="ccccccc" />
  </g>
  <g
     id="left-arrow"
     transform="matrix(0.26454545,0,0,0.26454545,9e-8,3.439091)">
    <rect
       style="opacity:0;fill:#7d7d7d;fill-opacity:1;stroke:none"
       id="rect3788"
       width="22"
       height="22"
       x="0"
       y="0" />
    <path
       class="ColorScheme-Text"
       inkscape:connector-curvature="0"
       style="color:#31363b;fill:#eaeaea;fill-opacity:1"
       d="M 14,17 15,16 10,11 15,6 14,5 8,11 Z"
       id="path3790"
       sodipodi:nodetypes="ccccccc" />
  </g>
  <g
     id="up-arrow">
    <rect
       y="2e-07"
       x="3.4390912"
       height="5.8199997"
       width="5.8199997"
       id="rect2992"
       style="opacity:0;fill:#7d7d7d;fill-opacity:1;stroke:none;stroke-width:0.264545" />
    <path
       d="m 4.7861548,3.7120195 c -0.1657359,0.205197 -0.019688,0.5108902 0.2440846,0.5108902 h 2.6377185 c 0.2637761,0 0.4097979,-0.3056932 0.2440715,-0.5108902 L 6.7152356,2.230237 c -0.1883795,-0.2332248 -0.5438944,-0.2332248 -0.732268,0 z M 7.6679579,3.909153 H 5.0302394 l 1.1968128,-1.48177 c 0.062788,-0.077742 0.1812978,-0.077742 0.244081,0 z"
       id="path1"
       style="fill:#fafafa;fill-opacity:1;stroke:#fafafa;stroke-width:0.112075;stroke-dasharray:none;stroke-opacity:1" />
  </g>
  <g
     id="down-arrow"
     transform="matrix(1,0,0,-1,-5.3009035e-8,12.698182)">
    <rect
       y="2e-07"
       x="3.4390912"
       height="5.8199997"
       width="5.8199997"
       id="rect1"
       style="opacity:0;fill:#7d7d7d;fill-opacity:1;stroke:none;stroke-width:0.264545" />
    <path
       d="m 4.7861548,3.2530724 c -0.1657359,0.205197 -0.019688,0.5108902 0.2440846,0.5108902 h 2.6377185 c 0.2637761,0 0.4097979,-0.3056932 0.2440715,-0.5108902 L 6.7152356,1.7712899 c -0.1883795,-0.2332248 -0.5438944,-0.2332248 -0.732268,0 z M 7.6679579,3.4502059 H 5.0302394 l 1.1968128,-1.48177 c 0.062788,-0.077742 0.1812978,-0.077742 0.244081,0 z"
       id="path2"
       style="fill:#fafafa;fill-opacity:1;stroke:#fafafa;stroke-width:0.112075;stroke-dasharray:none;stroke-opacity:1" />
  </g>
</svg>
