<?xml version="1.0" encoding="UTF-8" standalone="no"?>
<svg
   id="svg2"
   width="70"
   height="64"
   version="1.0"
   sodipodi:docname="computer.svg"
   inkscape:version="1.2.2 (b0a8486541, 2022-12-01)"
   xmlns:inkscape="http://www.inkscape.org/namespaces/inkscape"
   xmlns:sodipodi="http://sodipodi.sourceforge.net/DTD/sodipodi-0.dtd"
   xmlns="http://www.w3.org/2000/svg"
   xmlns:svg="http://www.w3.org/2000/svg">
  <sodipodi:namedview
     id="namedview290"
     pagecolor="#ffffff"
     bordercolor="#000000"
     borderopacity="0.25"
     inkscape:showpageshadow="2"
     inkscape:pageopacity="0.0"
     inkscape:pagecheckerboard="0"
     inkscape:deskcolor="#d1d1d1"
     showgrid="false"
     inkscape:zoom="13.0625"
     inkscape:cx="23.119617"
     inkscape:cy="32"
     inkscape:window-width="1920"
     inkscape:window-height="1021"
     inkscape:window-x="0"
     inkscape:window-y="0"
     inkscape:window-maximized="1"
     inkscape:current-layer="svg2" />
  <defs
     id="defs5">
    <style
       id="current-color-scheme"
       type="text/css">.ColorScheme-Text {
        color:#edeceb;
      }</style>
  </defs>
  <g
     id="computer-laptop"
     transform="translate(38)"
     style="clip-rule:evenodd;fill-rule:evenodd;stroke-linejoin:round;stroke-miterlimit:1.4142">
    <rect
       id="rect817-6"
       width="32"
       height="32"
       style="fill-opacity:0" />
    <line
       id="line71"
       x1="12.259"
       x2="12.259"
       y1="21.857"
       y2="26.878"
       stroke-miterlimit="3"
       style="fill:#898077;isolation:isolate;stroke-linecap:square;stroke-linejoin:miter;stroke-miterlimit:3;stroke-width:1.674;stroke:#f1fa8c;vector-effect:non-scaling-stroke" />
    <line
       id="line78"
       x1="19.791"
       x2="19.791"
       y1="21.857"
       y2="26.878"
       stroke-miterlimit="3"
       style="fill:#898077;isolation:isolate;stroke-linecap:square;stroke-linejoin:miter;stroke-miterlimit:3;stroke-width:1.674;stroke:#f1fa8c;vector-effect:non-scaling-stroke" />
    <line
       id="line85"
       x1="8.0737"
       x2="23.139"
       y1="26.878"
       y2="26.878"
       stroke-miterlimit="3"
       style="fill:#898077;isolation:isolate;stroke-linecap:square;stroke-linejoin:miter;stroke-miterlimit:3;stroke-width:1.674;stroke:#f1fa8c;vector-effect:non-scaling-stroke" />
    <path
       id="path92"
       d="m28.998 12.835h1.674v6.5109c0 1.386-1.1249 2.5109-2.5109 2.5109h-24.272c-0.92402 0-1.674-0.74993-1.674-1.674v-15.066c0-0.92402 0.74993-1.674 1.674-1.674h25.109c0.92402 0 1.674 0.74993 1.674 1.674v7.7177h-1.674v-7.7177h-25.109v15.066h25.109z"
       style="fill:#f1fa8c;isolation:isolate;stroke-width:.83698" />
  </g>
  <g
     id="22-22-computer-laptop"
     transform="translate(16 7)"
     style="clip-rule:evenodd;fill-rule:evenodd;stroke-linejoin:round;stroke-miterlimit:1.4142">
    <rect
       id="rect817-2"
       width="22"
       height="22"
       style="fill-opacity:0;stroke-width:.99794" />
    <line
       id="line71-1"
       x1="8.2856"
       x2="8.2856"
       y1="15.259"
       y2="18.435"
       stroke-miterlimit="3"
       style="clip-rule:evenodd;fill-rule:evenodd;isolation:isolate;stroke-linecap:square;stroke-linejoin:miter;stroke-miterlimit:3;stroke-width:1.0588;stroke:#f1fa8c;vector-effect:non-scaling-stroke" />
    <line
       id="line78-2"
       x1="13.05"
       x2="13.05"
       y1="15.259"
       y2="18.435"
       stroke-miterlimit="3"
       style="clip-rule:evenodd;fill-rule:evenodd;isolation:isolate;stroke-linecap:square;stroke-linejoin:miter;stroke-miterlimit:3;stroke-width:1.0588;stroke:#f1fa8c;vector-effect:non-scaling-stroke" />
    <line
       id="line85-7"
       x1="5.6386"
       x2="15.168"
       y1="18.435"
       y2="18.435"
       stroke-miterlimit="3"
       style="clip-rule:evenodd;fill-rule:evenodd;isolation:isolate;stroke-linecap:square;stroke-linejoin:miter;stroke-miterlimit:3;stroke-width:1.0588;stroke:#f1fa8c;vector-effect:non-scaling-stroke" />
    <path
       id="path92-0"
       d="m18.874 12.082c0-0.29224 0.23718-0.52941 0.52941-0.52941s0.52941 0.23718 0.52941 0.52941v1.5882c0 0.87671-0.71153 1.5882-1.5882 1.5882h-15.353c-0.58447 0-1.0588-0.47435-1.0588-1.0588v-9.5294c0-0.58447 0.47435-1.0588 1.0588-1.0588h15.882c0.58447 0 1.0588 0.47435 1.0588 1.0588v4.7647c0 0.29224-0.23718 0.52941-0.52941 0.52941s-0.52941-0.23718-0.52941-0.52941v-4.7647h-15.882v9.5294h15.882z"
       style="clip-rule:evenodd;fill-rule:evenodd;fill:#f1fa8c;isolation:isolate;stroke-linejoin:round;stroke-miterlimit:1.4142;stroke-width:.52941" />
  </g>
  <g
     id="16-16-computer-laptop"
     transform="translate(0 13)"
     style="clip-rule:evenodd;fill-rule:evenodd;stroke-linejoin:round;stroke-miterlimit:1.4142">
    <rect
       id="rect817-1"
       width="16"
       height="16"
       style="fill-opacity:0;stroke-width:.99778" />
    <line
       id="line71-1-7"
       x1="5.9098"
       x2="5.9098"
       y1="11.625"
       y2="14.096"
       stroke-miterlimit="3"
       style="clip-rule:evenodd;fill-rule:evenodd;isolation:isolate;stroke-linecap:square;stroke-linejoin:miter;stroke-miterlimit:3;stroke-width:.82353;stroke:#f1fa8c;vector-effect:non-scaling-stroke" />
    <line
       id="line78-2-3"
       x1="9.6157"
       x2="9.6157"
       y1="11.625"
       y2="14.096"
       stroke-miterlimit="3"
       style="clip-rule:evenodd;fill-rule:evenodd;isolation:isolate;stroke-linecap:square;stroke-linejoin:miter;stroke-miterlimit:3;stroke-width:.82353;stroke:#f1fa8c;vector-effect:non-scaling-stroke" />
    <line
       id="line85-7-6"
       x1="3.851"
       x2="11.263"
       y1="14.096"
       y2="14.096"
       stroke-miterlimit="3"
       style="clip-rule:evenodd;fill-rule:evenodd;isolation:isolate;stroke-linecap:square;stroke-linejoin:miter;stroke-miterlimit:3;stroke-width:.82353;stroke:#f1fa8c;vector-effect:non-scaling-stroke" />
    <path
       id="path92-0-1"
       d="m14.145 9.1548c0-0.22729 0.18447-0.41176 0.41177-0.41176s0.41176 0.18447 0.41176 0.41176v1.2353c0 0.68188-0.55341 1.2353-1.2353 1.2353h-11.941c-0.45459 0-0.82353-0.36894-0.82353-0.82353v-7.4118c0-0.45459 0.36894-0.82353 0.82353-0.82353h12.353c0.45459 0 0.82353 0.36894 0.82353 0.82353v3.7059c0 0.22729-0.18447 0.41176-0.41176 0.41176s-0.41177-0.18447-0.41177-0.41176v-3.7059h-12.353v7.4118h12.353z"
       style="clip-rule:evenodd;fill-rule:evenodd;fill:#f1fa8c;isolation:isolate;stroke-linejoin:round;stroke-miterlimit:1.4142;stroke-width:.41176" />
  </g>
  <g
     id="22-22-computer"
     transform="translate(0,1.1e-5)">
    <path
       id="rect858"
       d="m18 44v15h6v2h-2v1h10v-1h-2v-2h6v-15zm1 1h16v10h-16zm0 11h16v2h-16zm6 3h4v2h-4z"
       style="fill:#f1fa8c;stroke-width:1.0016" />
    <rect
       id="rect876"
       x="16"
       y="42"
       width="22"
       height="22"
       style="fill-opacity:0;stroke-width:1.0016" />
  </g>
  <g
     id="16-16-computer"
     transform="translate(0,1.1e-5)">
    <path
       id="rect888"
       d="m1 48v12h5v1h-1v1h6v-1h-1v-1h5v-12zm1 1h12v8h-12zm0 9h12v1h-12zm5 2h2v1h-2z"
       style="fill:#f1fa8c;stroke-width:1.0016" />
    <rect
       id="rect902"
       y="47"
       width="16"
       height="16"
       style="fill-opacity:0;stroke-width:1.0016" />
  </g>
  <g
     id="computer"
     transform="translate(19 16)">
    <path
       id="rect825"
       d="m22 19v22h10v3h-3v1h12v-1h-3v-3h10v-22zm1 1h24v17h-24zm0 18h24v2h-24zm10 3h4v3h-4z"
       style="fill:#f1fa8c;stroke-width:1.0016" />
    <rect
       id="rect852"
       x="19"
       y="16"
       width="32"
       height="32"
       style="fill-opacity:0;paint-order:markers stroke fill;stroke-width:.66596" />
  </g>
</svg>
