<?xml version="1.0" encoding="UTF-8" standalone="no"?>
<svg
   id="svg873"
   width="32"
   height="32"
   version="1.1"
   sodipodi:docname="view.svg"
   inkscape:version="1.2.2 (b0a8486541, 2022-12-01)"
   xmlns:inkscape="http://www.inkscape.org/namespaces/inkscape"
   xmlns:sodipodi="http://sodipodi.sourceforge.net/DTD/sodipodi-0.dtd"
   xmlns="http://www.w3.org/2000/svg"
   xmlns:svg="http://www.w3.org/2000/svg">
  <defs
     id="defs623" />
  <sodipodi:namedview
     id="namedview621"
     pagecolor="#ffffff"
     bordercolor="#000000"
     borderopacity="0.25"
     inkscape:showpageshadow="2"
     inkscape:pageopacity="0.0"
     inkscape:pagecheckerboard="0"
     inkscape:deskcolor="#d1d1d1"
     showgrid="false"
     inkscape:zoom="26.125"
     inkscape:cx="10.066986"
     inkscape:cy="16"
     inkscape:window-width="1920"
     inkscape:window-height="1021"
     inkscape:window-x="0"
     inkscape:window-y="0"
     inkscape:window-maximized="1"
     inkscape:current-layer="svg873" />
  <g
     id="view-refresh"
     transform="translate(-250 54)">
    <path
       id="path836"
       d="m282-38h16v16h-16z"
       style="opacity:.001" />
    <g
       id="g841"
       transform="translate(281.97 -37)">
      <g
         id="layer12-0"
         transform="translate(-485.03 -41.017)">
        <path
           id="path838"
           d="m499.06 49.018c0 3.3137-2.6863 6-6 6-3.2801 0-5.9403-2.6332-5.9941-5.9004a1 1 0 0 1-6e-3 -0.09961 1 1 0 0 1 1-1 1 1 0 0 1 1 1c0 2.2091 1.7909 4 4 4s4-1.7909 4-4-1.7909-4-4-4v2l-4-3 4-3v2c3.3137 0 6 2.6863 6 6z"
           style="fill:#e0dedc" />
      </g>
    </g>
  </g>
  <g
     id="view-history"
     style="clip-rule:evenodd;fill-rule:evenodd;stroke-linejoin:round;stroke-miterlimit:1.4142">
    <rect
       id="rect817-5"
       width="32"
       height="32"
       ry=".91473"
       style="fill-opacity:0;stroke-miterlimit:1.4142;stroke-width:1.0415" />
    <path
       id="path38"
       d="m16.585 3.1578 0.1583 0.00969c3.2502 0.19492 6.3065 1.624 8.54 3.9911 2.2346 2.3725 3.4763 5.5063 3.4763 8.7618 0 3.3891-1.3462 6.6371-3.7445 9.0343-2.3972 2.3972-5.6485 3.7423-9.0386 3.7423-3.3902 0-6.6414-1.3451-9.0386-3.7423-2.3983-2.3972-3.7445-5.6452-3.7445-9.0343 0-2.2637 0.60308-4.4908 1.7478-6.4432 1.1437-1.96 2.7871-3.5775 4.76-4.6911 0.29186-0.16477 0.39524-0.53523 0.23047-0.82815-0.16369-0.29185-0.53523-0.39523-0.82707-0.23046-2.1614 1.2223-3.9631 2.9928-5.2166 5.1348-1.2482 2.142-1.9115 4.5758-1.9115 7.0582 0 3.7111 1.4732 7.2703 4.1031 9.8926 2.6234 2.6288 6.1837 4.1009 9.8969 4.1009s7.2735-1.4722 9.8969-4.1009c2.6298-2.6223 4.1031-6.1815 4.1031-9.8926 0-3.5657-1.3634-6.9978-3.8048-9.5954-2.4468-2.5975-5.7938-4.1612-9.3552-4.3745l-0.23154-0.014v-0.010769h-0.17446l-0.20246-0.011848-1e-3 0.013997c-0.46954 0.024771-0.83892 0.28754-0.83892 0.60631v13.386c0 0.67092 0.54492 1.2169 1.2169 1.2169h6.6963c0.336 0 0.60846-0.27354 0.60846-0.60846 0-0.336-0.27246-0.60846-0.60846-0.60846h-6.0878c-0.336 0-0.60846-0.27354-0.60846-0.60846z"
       style="isolation:isolate;opacity:0;stroke-width:1.0769" />
    <path
       id="path7"
       d="m9.5318 4.2584c2.0151-1.0277 4.2561-1.5695 6.5392-1.5695 3.7156 0 7.2831 1.4378 9.9159 3.9881 2.625 2.5578 4.105 6.0237 4.105 9.6334s-1.48 7.0756-4.105 9.6334c-2.6328 2.5503-6.2004 3.9881-9.9159 3.9881-2.6951 0-5.3357-0.75676-7.6025-2.1794-2.2667-1.4227-4.0661-3.4508-5.18-5.8345-0.17604-0.37989-0.0016-0.82941 0.38947-1.0027 0.39103-0.1733 0.85528-0.0051 1.036 0.37458 0.98147 2.1265 2.5783 3.9275 4.5958 5.1913s4.3621 1.9373 6.7612 1.9373c3.3027 0 6.473-1.2789 8.8098-3.5492s3.6532-5.3502 3.6532-8.5589c0-3.2086-1.3164-6.2886-3.6532-8.5589s-5.5071-3.5492-8.8098-3.5492c-2.1133 0-4.1884 0.51762-6.0274 1.5135h2.1327c0.42998 0 0.77894 0.33903 0.77894 0.75675s-0.34896 0.75674-0.77894 0.75674h-4.0661c-0.42998 0-0.7104-0.33221-0.62627-0.74237l0.81321-3.9495c0.08572-0.4094 0.49774-0.67351 0.91915-0.59027 0.42141 0.083239 0.69326 0.48356 0.60757 0.89297zm-5.807 13.74c0.04752 0.41318-0.26172 0.78626-0.68937 0.83243-0.42764 0.04611-0.81321-0.25579-0.86073-0.67352l-0.07791-0.75674c-0.04752-0.41319 0.26172-0.78627 0.68936-0.83243s0.81322 0.25578 0.86073 0.6735zm0.0075-3.4129c-0.07321 0.4094-0.47593 0.68561-0.89968 0.61675-0.42375-0.0689-0.70806-0.46086-0.63484-0.87404l0.10126-0.6054c0.0732-0.40941 0.47593-0.68562 0.89967-0.61676 0.42375 0.0689 0.71118 0.46086 0.64263 0.87404zm18.064 3.5416c0.40427 0.14606 0.6099 0.58194 0.45957 0.97243s-0.60056 0.58876-1.0048 0.4427l-6.7378-2.4519v-7.3329c0-0.41772 0.34896-0.75674 0.77894-0.75674 0.42997 0 0.77894 0.33903 0.77894 0.75674v6.281z"
       style="fill-rule:evenodd;fill:#50fa7b;isolation:isolate;stroke-width:.76777" />
  </g>
</svg>
