<?xml version="1.0" encoding="UTF-8" standalone="no"?>
<svg
   id="svg11"
   width="32"
   height="32"
   version="1.1"
   sodipodi:docname="bookmarks.svg"
   inkscape:version="1.2.2 (b0a8486541, 2022-12-01)"
   xmlns:inkscape="http://www.inkscape.org/namespaces/inkscape"
   xmlns:sodipodi="http://sodipodi.sourceforge.net/DTD/sodipodi-0.dtd"
   xmlns="http://www.w3.org/2000/svg"
   xmlns:svg="http://www.w3.org/2000/svg">
  <defs
     id="defs141" />
  <sodipodi:namedview
     id="namedview139"
     pagecolor="#ffffff"
     bordercolor="#000000"
     borderopacity="0.25"
     inkscape:showpageshadow="2"
     inkscape:pageopacity="0.0"
     inkscape:pagecheckerboard="0"
     inkscape:deskcolor="#d1d1d1"
     showgrid="false"
     inkscape:zoom="26.125"
     inkscape:cx="10.066986"
     inkscape:cy="16"
     inkscape:window-width="1920"
     inkscape:window-height="1021"
     inkscape:window-x="0"
     inkscape:window-y="0"
     inkscape:window-maximized="1"
     inkscape:current-layer="svg11" />
  <g
     id="bookmarks">
    <g
       id="bookmarks-5"
       transform="translate(.025344 .27001)"
       style="clip-rule:evenodd;fill-rule:evenodd;stroke-linejoin:round;stroke-miterlimit:1.4142">
      <rect
         id="rect820"
         width="32"
         height="32"
         style="fill-opacity:0" />
      <path
         id="path14"
         d="m18.364 3.9372h-1.6912v-1.554l1.9066 0.00552 5.4757-0.00552c0.78507-7.92e-4 1.4225 0.6965 1.4225 1.554v25.47c0 0.8575-0.54259 1.1888-1.2112 0.7385l-7.5218-5.0517c-0.66863-0.44917-1.7418-0.42817-2.396 0.04784l-6.894 5.019c-0.65303 0.47484-1.1836 0.16567-1.1836-0.69183v-25.531c0-0.8575 0.63742-1.554 1.4225-1.554h8.9793v1.554h-8.2675c-0.39254 0-0.71185 0.34767-0.71185 0.77584v22.628c0 0.42817 0.26529 0.58334 0.59181 0.34534l6.6275-4.8242c0.32652-0.238 0.8631-0.2485 1.1968-0.02333l7.3394 4.9338c0.33492 0.224 0.60621 0.05833 0.60621-0.36983v-22.689c0-0.42817-0.31931-0.77584-0.71185-0.77584zm-5.0946 6.601-0.03602 0.0024-0.03481 0.0035-0.03601 0.0024-0.03362 0.0046-0.03361 0.0058-0.03481 0.0046-0.03241 0.0082-0.03481 7e-3 -0.0324 0.0093-0.03241 0.0093-0.03241 0.01048-0.03241 0.01161-0.03001 0.01284-0.03241 0.01284-0.03001 0.01284-0.03122 0.01516-0.06002 0.03032-0.05762 0.03498-0.02881 0.01867-0.02761 0.01866-0.02881 0.02101-0.0264 0.01984-0.02761 0.02101-0.02521 0.02217-0.0264 0.02335-0.02521 0.02217-0.02402 0.0245-0.02521 0.0245-0.02402 0.02566-0.02281 0.02566-0.02281 0.028-0.04324 0.05366-0.02162 0.028-0.01921 0.028-0.0192 0.03033-0.01921 0.02917-0.0192 0.0315-0.0168 0.03033-0.0168 0.0315-0.0168 0.03034-0.0156 0.03267-0.01321 0.03267-0.0288 0.06532-0.01194 0.03383-0.01079 0.035-0.01195 0.03383-0.01079 0.03383-0.0096 0.03616-0.0084 0.03501-0.0084 0.03616-0.0072 0.03734-0.0072 0.03616-0.0036 0.03734-0.0094 0.07468-0.0075 0.11553v0.03966l0.0024 0.08866 0.0025 0.04549 0.0036 0.04667 0.0047 0.04667 6e-3 0.04784 0.0047 0.04784 0.0084 0.049 0.0192 0.10032 0.01195 0.05134 0.01195 0.05135 0.01321 0.0525 0.01441 0.05483 0.0336 0.10732 0.0168 0.056 0.02041 0.05483 0.02041 0.05717 0.02041 0.056 0.02281 0.05717 0.02521 0.05717 0.02402 0.05834 0.0264 0.05717 0.0264 0.0595 0.02881 0.05949 0.02881 0.0595 0.03001 0.0595 0.03121 0.05951 0.03241 0.06066 0.0336 0.06067 0.0324 0.05717 0.07202 0.12484 0.07562 0.12134 0.07804 0.1225 0.07923 0.1225 0.08523 0.12134 0.08643 0.1225 0.08883 0.12134 0.09123 0.119 0.09363 0.12016 0.09604 0.11784 0.09604 0.11783 0.09963 0.11667 0.09842 0.11432 0.10204 0.11317 0.10083 0.112 0.10083 0.10966 0.10323 0.10734 0.10083 0.10616 0.10323 0.10383 0.10083 0.10151 0.10083 0.09917 0.10083 0.09683 0.09845 0.09334 0.09842 0.09216 0.09604 0.08866 0.09243 0.08517 0.18486 0.1645 0.17286 0.1505 0.16206 0.13767 0.018 0.01516 0.0192-0.01516 0.16086-0.13767 0.17406-0.1505 0.18486-0.1645 0.09242-0.08517 0.09604-0.08866 0.09724-0.09216 0.09963-0.09334 0.20167-0.196 0.10083-0.10151 0.10204-0.10383 0.10204-0.10616 0.10204-0.10734 0.10204-0.10966 0.10083-0.112 0.10083-0.11317 0.09963-0.11432 0.09845-0.11667 0.09724-0.11783 0.09483-0.11784 0.09483-0.12016 0.09003-0.119 0.09003-0.12134 0.08643-0.1225 0.08402-0.12134 0.08042-0.1225 0.07804-0.1225 0.07562-0.12134 0.07083-0.12484 0.0336-0.05717 0.03241-0.06067 0.0336-0.06066 0.03001-0.05951 0.03122-0.0595 0.02881-0.0595 0.02761-0.05949 0.02761-0.0595 0.02521-0.05717 0.02521-0.05834 0.02402-0.05717 0.02281-0.05717 0.02162-0.056 0.0192-0.05717 0.02041-0.05483 0.018-0.056 0.0168-0.05366 0.0156-0.05366 0.0144-0.05483 0.0144-0.0525 0.01195-0.05135 0.01195-0.05134 0.0084-0.05016 0.0096-0.05016 0.0084-0.049 0.012-0.09568 0.0047-0.04667 0.0036-0.04667 0.0025-0.04549 0.0024-0.08866v-0.03966l-0.0075-0.11553-0.0141-0.11202-0.0072-0.03616-0.0072-0.03734-0.0084-0.03616-0.0072-0.03501-0.0096-0.03616-0.01078-0.03383-0.01195-0.03383-0.01195-0.035-0.01195-0.03383-0.01321-0.03266-0.0144-0.03266-0.0144-0.03267-0.0156-0.03267-0.0156-0.03034-0.0168-0.0315-0.018-0.03033-0.01921-0.0315-0.018-0.02917-0.0192-0.03033-0.04082-0.056-0.02162-0.02683-0.02281-0.02683-0.0216-0.028-0.04804-0.05132-0.02401-0.0245-0.02521-0.0245-0.02402-0.02217-0.0264-0.02335-0.0264-0.02217-0.0264-0.02101-0.02761-0.01984-0.02761-0.02101-0.02881-0.01866-0.02761-0.01867-0.02881-0.01749-0.03001-0.01749-0.02881-0.01516-0.03122-0.01516-0.03001-0.01516-0.03122-0.01284-0.06242-0.02568-0.03122-0.01161-0.03361-0.01048-0.03121-0.0093-0.0336-0.0093-0.03362-7e-3 -0.0336-0.0082-0.0336-0.0046-0.03362-0.0058-0.03481-0.0046-0.03481-0.0024-0.03601-0.0035-0.03481-0.0024h-0.03481l-0.04802 0.0012-0.09122 7e-3 -0.04441 0.0046-0.0444 0.0082-0.04201 0.0082-0.04441 0.0093-0.04202 0.01161-0.04081 0.01284-0.04202 0.014-0.04081 0.01749-0.04081 0.01633-0.03842 0.01867-0.03842 0.01866-0.03962 0.02217-0.07442 0.04434-0.03602 0.02566-0.03481 0.02683-0.03601 0.02683-0.03241 0.028-0.03481 0.02917-0.03121 0.03149-0.03241 0.0315-0.03001 0.03266-0.03001 0.03383-0.02761 0.03383-0.05522 0.07232-0.02521 0.03734-0.02521 0.03851-0.70104 1.1725h-0.63617l-0.70105-1.1725-0.02402-0.03851-0.0264-0.03734-0.0264-0.03616-0.02761-0.03616-0.05762-0.06766-0.03122-0.03266-0.03122-0.0315-0.03241-0.03149-0.03361-0.02917-0.0336-0.028-0.03481-0.02683-0.03602-0.02683-0.03601-0.02566-0.03602-0.02217-0.07684-0.04434-0.03962-0.01866-0.03842-0.01867-0.03962-0.01633-0.04202-0.01749-0.04082-0.014-0.04081-0.01284-0.04321-0.01161-0.04321-0.0093-0.04202-0.0082-0.04561-0.0082-0.04441-0.0046-0.0444-0.0035-0.04681-0.0035-0.04802-0.0012zm4.4211-1.2845 0.06602 0.0024 0.06482 0.0035 0.06482 7e-3 0.06363 7e-3 0.06362 0.01048 0.06363 0.01161 0.06242 0.01284 0.06242 0.014 0.06122 0.01749 0.06002 0.01749 0.06122 0.01984 0.05882 0.02101 0.06002 0.02217 0.05882 0.0245 0.05762 0.02566 0.05642 0.02683 0.05642 0.03033 0.05521 0.02917 0.05402 0.0315 0.05402 0.03267 0.05402 0.035 0.05162 0.03501 0.05162 0.03734 0.05043 0.03851 0.04922 0.03966 0.04923 0.03967 0.04801 0.042 0.04561 0.04316 0.04561 0.04433 0.04562 0.04549 0.04321 0.04784 0.04321 0.04785 0.04202 0.04784 0.04081 0.05016 0.03842 0.0525 0.03962 0.05133 0.03721 0.0525 0.03601 0.05483 0.03481 0.05483 0.03481 0.056 0.06244 0.11434 0.03001 0.05951 0.03001 0.05949 0.0264 0.06067 0.02761 0.06184 0.02401 0.06067 0.02402 0.06301 0.02281 0.06534 0.0192 0.06416 0.02041 0.06416 0.018 0.06651 0.0156 0.06534 0.0156 0.06766 0.01321 0.06767 0.01195 0.06884 0.01079 0.06884 0.0084 0.06999 0.0072 0.06884 6e-3 0.07115 0.0036 0.07116 0.0025 0.07115 0.0012 0.07233-0.0012 0.07584-0.0025 0.07585-0.0036 0.07584-6e-3 0.07585-0.0072 0.07585-0.0096 0.07584-0.01078 0.07701-0.01195 0.07585-0.0144 0.07584-0.0144 0.07585-0.01681 0.07585-0.018 0.07584-0.0192 0.07585-0.02041 0.07585-0.02281 0.07584-0.02402 0.07584-0.02401 0.07467-0.0264 0.07585-0.0264 0.07467-0.02881 0.07585-0.03001 0.07467-0.03122 0.07467-0.03121 0.07467-0.03361 0.07467-0.0336 0.07467-0.03602 0.07467-0.03601 0.07349-0.03721 0.0735-0.03842 0.07233-0.07924 0.14698-0.04081 0.0735-0.08523 0.1435-0.08763 0.14467-0.09004 0.14117-0.09483 0.14234-0.09483 0.14-0.09963 0.13767-0.09963 0.1365-0.10323 0.13417-0.10444 0.13417-0.10564 0.13183-0.10684 0.1295-0.10923 0.12717-0.10923 0.126-0.10923 0.12366-0.11044 0.12134-0.11044 0.119-0.11044 0.11783-0.10923 0.11318-0.11044 0.112-0.10924 0.1085-0.10804 0.10734-0.10684 0.10267-0.10684 0.10151-0.10323 0.09799-0.10323 0.09334-0.10083 0.09334-0.19447 0.17383-0.18486 0.15867-0.17166 0.147-0.15846 0.13183-0.14405 0.11551-0.12604 0.10033-0.10564 0.084-0.15005 0.11317-0.05283 0.03966-0.05282-0.03966-0.15005-0.11317-0.10564-0.084-0.12604-0.10033-0.14285-0.11551-0.15846-0.13183-0.17166-0.147-0.18606-0.15867-0.19447-0.17383-0.09964-0.09334-0.10323-0.09334-0.10444-0.09799-0.10564-0.10151-0.10684-0.10267-0.10923-0.10734-0.10923-0.1085-0.10923-0.112-0.10923-0.11318-0.11164-0.11783-0.11044-0.119-0.10923-0.12134-0.11044-0.12366-0.10923-0.126-0.10804-0.12717-0.10684-0.1295-0.10684-0.13183-0.20646-0.26834-0.10083-0.1365-0.09842-0.13767-0.09604-0.14-0.09363-0.14234-0.09123-0.14117-0.08763-0.14467-0.08402-0.1435-0.04202-0.0735-0.03962-0.07349-0.03842-0.07349-0.03962-0.07233-0.03601-0.0735-0.03721-0.07349-0.03481-0.07467-0.03362-0.07467-0.0336-0.07467-0.03121-0.07467-0.03122-0.07467-0.03121-0.07467-0.02761-0.07585-0.02761-0.07467-0.02521-0.07585-0.02521-0.07467-0.04562-0.15168-0.02162-0.07585-0.0192-0.07585-0.01681-0.07584-0.018-0.07585-0.0144-0.07585-0.01321-0.07584-0.01195-0.07585-0.01078-0.07701-0.0096-0.07584-0.0084-0.07585-6e-3 -0.07585-0.0036-0.07584-0.0025-0.07585-0.0012-0.07584 0.0012-0.07233 0.0025-0.07115 0.0036-0.07116 6e-3 -0.07115 0.0072-0.06884 0.0096-0.06999 0.01078-0.06884 0.01195-0.06884 0.01195-0.06767 0.0156-0.06766 0.0168-0.06534 0.018-0.06651 0.01921-0.06416 0.02041-0.06416 0.02281-0.06534 0.02281-0.06301 0.02521-0.06067 0.0264-0.06184 0.02761-0.06067 0.02881-0.05949 0.03001-0.05951 0.03241-0.05717 0.03121-0.05717 0.03362-0.056 0.03602-0.05483 0.03481-0.05483 0.03842-0.0525 0.03842-0.05133 0.03962-0.0525 0.04081-0.05016 0.04082-0.04784 0.04441-0.04785 0.04321-0.04784 0.04441-0.04549 0.04561-0.04433 0.04681-0.04316 0.04802-0.042 0.04802-0.03967 0.04922-0.03966 0.05161-0.03851 0.05161-0.03734 0.05162-0.03501 0.05282-0.035 0.05402-0.03267 0.05402-0.0315 0.05642-0.02917 0.05642-0.03033 0.05642-0.02683 0.05762-0.02566 0.05882-0.0245 0.05882-0.02217 0.05882-0.02101 0.06122-0.01984 0.06002-0.01749 0.06121-0.01749 0.06242-0.014 0.06242-0.01284 0.06363-0.01161 0.06363-0.01048 0.06362-7e-3 0.06482-7e-3 0.06483-0.0035 0.06602-0.0024 0.06602-0.0012 0.08523 0.0012 0.08402 0.0046 0.08283 7e-3 0.08283 0.01161 0.08283 0.01284 0.08042 0.01516 0.08042 0.01867 0.07924 0.02216 0.07803 0.02334 0.07683 0.02683 0.07563 0.02917 0.07562 0.03266 0.07322 0.035 0.07322 0.03616 0.07202 0.03967 0.06962 0.04084 0.06723 0.04433 0.06723 0.04549 0.06602 0.04784 0.06482 0.05016 0.06242 0.0525 0.06123 0.056 0.06002 0.056 0.05882 0.05834 0.05642 0.06067 0.05402 0.06184 0.05283 0.06416 0.05161 0.06651 0.04922 0.06651 0.04802 0.07 0.04441 0.07115 0.04321 0.07116 0.04441-0.07116 0.04441-0.07115 0.04802-0.07 0.04801-0.06651 0.05283-0.06651 0.05282-0.06416 0.05402-0.06184 0.05642-0.06067 0.05762-0.05834 0.06002-0.056 0.06121-0.056 0.06242-0.0525 0.06482-0.05016 0.06602-0.04784 0.06723-0.04549 0.06843-0.04433 0.07083-0.04084 0.07083-0.03967 0.07322-0.03616 0.07202-0.035 0.07562-0.03266 0.07562-0.02917 0.07804-0.02683 0.07804-0.02334 0.07804-0.02216 0.08043-0.01867 0.08163-0.01516 0.08283-0.01284 0.08163-0.01161 0.08402-7e-3 0.08402-0.0046 0.08402-0.0012z"
         style="fill-rule:evenodd;fill:#8be9fd;isolation:isolate;stroke-width:1.1834" />
    </g>
  </g>
</svg>
