<?xml version="1.0" encoding="UTF-8" standalone="no"?>
<!-- Created with Inkscape (http://www.inkscape.org/) -->

<svg
   xmlns:dc="http://purl.org/dc/elements/1.1/"
   xmlns:cc="http://creativecommons.org/ns#"
   xmlns:rdf="http://www.w3.org/1999/02/22-rdf-syntax-ns#"
   xmlns:svg="http://www.w3.org/2000/svg"
   xmlns="http://www.w3.org/2000/svg"
   xmlns:xlink="http://www.w3.org/1999/xlink"
   xmlns:sodipodi="http://sodipodi.sourceforge.net/DTD/sodipodi-0.dtd"
   xmlns:inkscape="http://www.inkscape.org/namespaces/inkscape"
   width="100"
   height="150"
   id="svg2"
   version="1.1"
   inkscape:version="0.48.0 r9654"
   sodipodi:docname="tooltip.svg"
   inkscape:export-filename="/home/anton/Teman/mockups/gree-hey.png"
   inkscape:export-xdpi="90"
   inkscape:export-ydpi="90">
  <sodipodi:namedview
     id="base"
     pagecolor="#ffffff"
     bordercolor="#666666"
     borderopacity="1.0"
     inkscape:pageopacity="0.0"
     inkscape:pageshadow="2"
     inkscape:zoom="22.627417"
     inkscape:cx="-49.449712"
     inkscape:cy="-7.5103817"
     inkscape:document-units="px"
     inkscape:current-layer="layer1"
     showgrid="true"
     inkscape:window-width="972"
     inkscape:window-height="828"
     inkscape:window-x="155"
     inkscape:window-y="22"
     inkscape:window-maximized="0">
    <inkscape:grid
       snapvisiblegridlinesonly="true"
       enabled="true"
       visible="true"
       empspacing="5"
       id="grid2816"
       type="xygrid" />
  </sodipodi:namedview>
  <defs
     id="defs4">
    <linearGradient
       id="linearGradient7843">
      <stop
         style="stop-color:#626262;stop-opacity:0.03311258;"
         offset="0"
         id="stop7845" />
      <stop
         style="stop-color:#808080;stop-opacity:0.00392157;"
         offset="1"
         id="stop7847" />
    </linearGradient>
    <linearGradient
       id="linearGradient5432">
      <stop
         id="stop5434"
         offset="0"
         style="stop-color:#4c4c4c;stop-opacity:1;" />
      <stop
         id="stop5436"
         offset="1"
         style="stop-color:#222222;stop-opacity:1;" />
    </linearGradient>
    <linearGradient
       id="linearGradient4833">
      <stop
         id="stop4835"
         offset="0"
         style="stop-color:#1d1d1d;stop-opacity:1;" />
      <stop
         style="stop-color:#1a1a1a;stop-opacity:0.49803922;"
         offset="0.5"
         id="stop4841" />
      <stop
         id="stop4843"
         offset="0.75"
         style="stop-color:#1a1a1a;stop-opacity:0.24705882;" />
      <stop
         id="stop4837"
         offset="1"
         style="stop-color:#292929;stop-opacity:0.47058824;" />
    </linearGradient>
    <linearGradient
       id="linearGradient4783">
      <stop
         style="stop-color:#ffffff;stop-opacity:0;"
         offset="0"
         id="stop4785" />
      <stop
         id="stop4787"
         offset="0.5"
         style="stop-color:#ffffff;stop-opacity:0.39072847;" />
      <stop
         style="stop-color:#ffffff;stop-opacity:0;"
         offset="1"
         id="stop4789" />
    </linearGradient>
    <linearGradient
       id="linearGradient4769">
      <stop
         id="stop4771"
         offset="0"
         style="stop-color:#000000;stop-opacity:0;" />
      <stop
         style="stop-color:#000000;stop-opacity:0.29139072;"
         offset="0.5"
         id="stop4777" />
      <stop
         id="stop4773"
         offset="1"
         style="stop-color:#000000;stop-opacity:0;" />
    </linearGradient>
    <linearGradient
       id="linearGradient4459">
      <stop
         id="stop4461"
         offset="0"
         style="stop-color:#1e1e1e;stop-opacity:1;" />
      <stop
         id="stop4463"
         offset="1"
         style="stop-color:#1e1e1e;stop-opacity:1;" />
    </linearGradient>
    <linearGradient
       id="linearGradient4018">
      <stop
         id="stop4020"
         offset="0"
         style="stop-color:#000000;stop-opacity:0.64912283;" />
      <stop
         style="stop-color:#000000;stop-opacity:0.377193;"
         offset="0.5"
         id="stop4377" />
      <stop
         id="stop4379"
         offset="0.75"
         style="stop-color:#000000;stop-opacity:0.0877193;" />
      <stop
         id="stop4022"
         offset="1"
         style="stop-color:#000000;stop-opacity:0;" />
    </linearGradient>
    <linearGradient
       id="linearGradient3955">
      <stop
         style="stop-color:#1d1d1d;stop-opacity:1;"
         offset="0"
         id="stop3957" />
      <stop
         style="stop-color:#070707;stop-opacity:0.32941177;"
         offset="1"
         id="stop3959" />
    </linearGradient>
    <linearGradient
       id="linearGradient3928">
      <stop
         id="stop3930"
         offset="0"
         style="stop-color:#ffffff;stop-opacity:0.01960784;" />
      <stop
         id="stop3932"
         offset="1"
         style="stop-color:#ffffff;stop-opacity:0.01960784;" />
    </linearGradient>
    <linearGradient
       id="linearGradient3913">
      <stop
         id="stop3915"
         offset="0"
         style="stop-color:#161616;stop-opacity:1;" />
      <stop
         id="stop3917"
         offset="1"
         style="stop-color:#0c0c0c;stop-opacity:1;" />
    </linearGradient>
    <linearGradient
       id="linearGradient3836">
      <stop
         id="stop3838"
         offset="0"
         style="stop-color:#292929;stop-opacity:1;" />
      <stop
         id="stop3840"
         offset="1"
         style="stop-color:#292929;stop-opacity:1;" />
    </linearGradient>
    <linearGradient
       id="linearGradient3799">
      <stop
         style="stop-color:#2a2a2a;stop-opacity:1;"
         offset="0"
         id="stop3801" />
      <stop
         style="stop-color:#202020;stop-opacity:1;"
         offset="1"
         id="stop3803" />
    </linearGradient>
    <linearGradient
       id="linearGradient3738">
      <stop
         id="stop3740"
         offset="0"
         style="stop-color:#000000;stop-opacity:0.25827813;" />
      <stop
         style="stop-color:#000000;stop-opacity:0.08609272;"
         offset="0.5"
         id="stop3746" />
      <stop
         id="stop3742"
         offset="1"
         style="stop-color:#000000;stop-opacity:0;" />
    </linearGradient>
    <linearGradient
       id="linearGradient3730">
      <stop
         id="stop3732"
         offset="0"
         style="stop-color:#565656;stop-opacity:0.36423841;" />
      <stop
         id="stop3734"
         offset="1"
         style="stop-color:#3d3d3d;stop-opacity:0;" />
    </linearGradient>
    <linearGradient
       id="linearGradient3720">
      <stop
         style="stop-color:#3d3d3d;stop-opacity:0.20529801;"
         offset="0"
         id="stop3722" />
      <stop
         style="stop-color:#3d3d3d;stop-opacity:0;"
         offset="1"
         id="stop3724" />
    </linearGradient>
    <linearGradient
       id="linearGradient3704">
      <stop
         id="stop3706"
         offset="0"
         style="stop-color:#919191;stop-opacity:0.23137255;" />
      <stop
         id="stop3708"
         offset="1"
         style="stop-color:#828282;stop-opacity:0.0397351;" />
    </linearGradient>
    <linearGradient
       id="linearGradient3684">
      <stop
         id="stop3686"
         offset="0"
         style="stop-color:#3f3f3f;stop-opacity:0.10596026;" />
      <stop
         id="stop3688"
         offset="1"
         style="stop-color:#3f3f3f;stop-opacity:0;" />
    </linearGradient>
    <linearGradient
       id="linearGradient3666">
      <stop
         id="stop3668"
         offset="0"
         style="stop-color:#1e1e1e;stop-opacity:1;" />
      <stop
         id="stop3670"
         offset="1"
         style="stop-color:#161616;stop-opacity:1;" />
    </linearGradient>
    <linearGradient
       id="linearGradient3631">
      <stop
         id="stop3633"
         offset="0"
         style="stop-color:#2a2a2a;stop-opacity:1;" />
      <stop
         id="stop3635"
         offset="1"
         style="stop-color:#202020;stop-opacity:1;" />
    </linearGradient>
    <linearGradient
       id="linearGradient3616">
      <stop
         style="stop-color:#2e2e2e;stop-opacity:1;"
         offset="0"
         id="stop3618" />
      <stop
         style="stop-color:#181818;stop-opacity:1;"
         offset="1"
         id="stop3620" />
    </linearGradient>
    <linearGradient
       id="linearGradient3594">
      <stop
         id="stop3596"
         offset="0"
         style="stop-color:#0f0f0f;stop-opacity:1;" />
      <stop
         id="stop3598"
         offset="1"
         style="stop-color:#161616;stop-opacity:1;" />
    </linearGradient>
    <inkscape:perspective
       id="perspective10"
       inkscape:persp3d-origin="372.04724 : 350.78739 : 1"
       inkscape:vp_z="744.09448 : 526.18109 : 1"
       inkscape:vp_y="0 : 1000 : 0"
       inkscape:vp_x="0 : 526.18109 : 1"
       sodipodi:type="inkscape:persp3d" />
    <linearGradient
       y2="594"
       x2="256.5"
       y1="575"
       x1="256.5"
       gradientTransform="matrix(1,0,0,-1,-43,1171)"
       gradientUnits="userSpaceOnUse"
       id="linearGradient3991"
       xlink:href="#linearGradient3684"
       inkscape:collect="always" />
    <radialGradient
       gradientTransform="matrix(-2,0,0,-2,1205,1010)"
       gradientUnits="userSpaceOnUse"
       r="5"
       fy="485"
       fx="585"
       cy="485"
       cx="585"
       id="radialGradient4024"
       xlink:href="#linearGradient4018"
       inkscape:collect="always" />
    <radialGradient
       r="5"
       fy="485"
       fx="585"
       cy="485"
       cx="585"
       gradientTransform="matrix(-2,0,0,2,1205,-860.00001)"
       gradientUnits="userSpaceOnUse"
       id="radialGradient4028"
       xlink:href="#linearGradient4018"
       inkscape:collect="always" />
    <linearGradient
       gradientTransform="matrix(-1,0,0,1,610,-897.36218)"
       gradientUnits="userSpaceOnUse"
       y2="972.36218"
       x2="585"
       y1="972.36218"
       x1="575"
       id="linearGradient4034"
       xlink:href="#linearGradient4018"
       inkscape:collect="always" />
    <linearGradient
       y2="972.36218"
       x2="585"
       y1="972.36218"
       x1="575"
       gradientTransform="translate(-505,-897.36218)"
       gradientUnits="userSpaceOnUse"
       id="linearGradient4044"
       xlink:href="#linearGradient4018"
       inkscape:collect="always" />
    <radialGradient
       r="5"
       fy="485"
       fx="585"
       cy="485"
       cx="585"
       gradientTransform="matrix(2,0,0,2,-1100,-860.00002)"
       gradientUnits="userSpaceOnUse"
       id="radialGradient4046"
       xlink:href="#linearGradient4018"
       inkscape:collect="always" />
    <linearGradient
       y2="972.36218"
       x2="585"
       y1="972.36218"
       x1="575"
       gradientTransform="matrix(0,-1,-0.49999999,0,538.68108,615.00002)"
       gradientUnits="userSpaceOnUse"
       id="linearGradient4050"
       xlink:href="#linearGradient4018"
       inkscape:collect="always" />
    <linearGradient
       y2="972.36218"
       x2="585"
       y1="972.36218"
       x1="575"
       gradientTransform="matrix(0,1,-0.49999999,0,538.68108,-465.00001)"
       gradientUnits="userSpaceOnUse"
       id="linearGradient4054"
       xlink:href="#linearGradient4018"
       inkscape:collect="always" />
    <linearGradient
       inkscape:collect="always"
       xlink:href="#linearGradient3616"
       id="linearGradient4680"
       gradientUnits="userSpaceOnUse"
       gradientTransform="matrix(0.19444444,0,0,-1,-438.75,1442.3622)"
       x1="770"
       y1="560"
       x2="770"
       y2="480" />
    <radialGradient
       inkscape:collect="always"
       xlink:href="#linearGradient4018"
       id="radialGradient4682"
       gradientUnits="userSpaceOnUse"
       gradientTransform="matrix(-2,0,0,-2,405,-37.362162)"
       cx="585"
       cy="485"
       fx="585"
       fy="485"
       r="5" />
    <linearGradient
       inkscape:collect="always"
       xlink:href="#linearGradient3616"
       id="linearGradient4684"
       gradientUnits="userSpaceOnUse"
       gradientTransform="matrix(1,0,0,-1,0,1040)"
       x1="770"
       y1="560"
       x2="770"
       y2="480" />
    <linearGradient
       inkscape:collect="always"
       xlink:href="#linearGradient3720"
       id="linearGradient4686"
       gradientUnits="userSpaceOnUse"
       x1="581"
       y1="557.9375"
       x2="581"
       y2="556.875" />
    <linearGradient
       inkscape:collect="always"
       xlink:href="#linearGradient3704"
       id="linearGradient4688"
       gradientUnits="userSpaceOnUse"
       x1="770"
       y1="490"
       x2="770"
       y2="555" />
    <linearGradient
       inkscape:collect="always"
       xlink:href="#linearGradient4018"
       id="linearGradient4690"
       gradientUnits="userSpaceOnUse"
       gradientTransform="translate(190,-2.6171874e-6)"
       x1="575"
       y1="972.36218"
       x2="585"
       y2="972.36218" />
    <linearGradient
       inkscape:collect="always"
       xlink:href="#linearGradient3616"
       id="linearGradient4692"
       gradientUnits="userSpaceOnUse"
       gradientTransform="matrix(1,0,0,-1,0,1040)"
       x1="770"
       y1="560"
       x2="770"
       y2="480" />
    <linearGradient
       inkscape:collect="always"
       xlink:href="#linearGradient3704"
       id="linearGradient4694"
       gradientUnits="userSpaceOnUse"
       x1="770"
       y1="490"
       x2="770"
       y2="555" />
    <radialGradient
       inkscape:collect="always"
       xlink:href="#linearGradient4018"
       id="radialGradient4696"
       gradientUnits="userSpaceOnUse"
       gradientTransform="matrix(-2,0,0,-2,405,1907.3622)"
       cx="585"
       cy="485"
       fx="585"
       fy="485"
       r="5" />
    <linearGradient
       inkscape:collect="always"
       xlink:href="#linearGradient3616"
       id="linearGradient4698"
       gradientUnits="userSpaceOnUse"
       gradientTransform="matrix(1,0,0,-1,0,1040)"
       x1="770"
       y1="560"
       x2="770"
       y2="480" />
    <linearGradient
       inkscape:collect="always"
       xlink:href="#linearGradient3704"
       id="linearGradient4700"
       gradientUnits="userSpaceOnUse"
       x1="770"
       y1="490"
       x2="770"
       y2="555" />
    <linearGradient
       inkscape:collect="always"
       xlink:href="#linearGradient4018"
       id="linearGradient4702"
       gradientUnits="userSpaceOnUse"
       gradientTransform="matrix(1,0,0,2.5714286,432.36217,-3175.3599)"
       x1="575"
       y1="972.36218"
       x2="585"
       y2="972.36218" />
    <linearGradient
       inkscape:collect="always"
       xlink:href="#linearGradient3616"
       id="linearGradient4704"
       gradientUnits="userSpaceOnUse"
       gradientTransform="matrix(1,0,0,-1,0,1040)"
       x1="770"
       y1="560"
       x2="770"
       y2="480" />
    <linearGradient
       inkscape:collect="always"
       xlink:href="#linearGradient3720"
       id="linearGradient4706"
       gradientUnits="userSpaceOnUse"
       x1="581"
       y1="557.9375"
       x2="581"
       y2="556.875" />
    <radialGradient
       inkscape:collect="always"
       xlink:href="#linearGradient4018"
       id="radialGradient4708"
       gradientUnits="userSpaceOnUse"
       gradientTransform="matrix(-2,0,0,-2,1755,-37.362165)"
       cx="585"
       cy="485"
       fx="585"
       fy="485"
       r="5" />
    <linearGradient
       inkscape:collect="always"
       xlink:href="#linearGradient3616"
       id="linearGradient4710"
       gradientUnits="userSpaceOnUse"
       gradientTransform="matrix(1,0,0,-1,0,1040)"
       x1="770"
       y1="560"
       x2="770"
       y2="480" />
    <linearGradient
       inkscape:collect="always"
       xlink:href="#linearGradient3720"
       id="linearGradient4712"
       gradientUnits="userSpaceOnUse"
       x1="581"
       y1="557.9375"
       x2="581"
       y2="556.875" />
    <linearGradient
       inkscape:collect="always"
       xlink:href="#linearGradient3704"
       id="linearGradient4714"
       gradientUnits="userSpaceOnUse"
       x1="770"
       y1="490"
       x2="770"
       y2="555" />
    <linearGradient
       inkscape:collect="always"
       xlink:href="#linearGradient4018"
       id="linearGradient4716"
       gradientUnits="userSpaceOnUse"
       gradientTransform="translate(-1160,0)"
       x1="575"
       y1="972.36218"
       x2="585"
       y2="972.36218" />
    <linearGradient
       inkscape:collect="always"
       xlink:href="#linearGradient3616"
       id="linearGradient4718"
       gradientUnits="userSpaceOnUse"
       gradientTransform="matrix(1,0,0,-1,0,1040)"
       x1="770"
       y1="560"
       x2="770"
       y2="480" />
    <linearGradient
       inkscape:collect="always"
       xlink:href="#linearGradient3704"
       id="linearGradient4720"
       gradientUnits="userSpaceOnUse"
       x1="770"
       y1="490"
       x2="770"
       y2="555" />
    <radialGradient
       inkscape:collect="always"
       xlink:href="#linearGradient4018"
       id="radialGradient4722"
       gradientUnits="userSpaceOnUse"
       gradientTransform="matrix(-2,0,0,-2,1755,1455)"
       cx="585"
       cy="485"
       fx="585"
       fy="485"
       r="5" />
    <linearGradient
       inkscape:collect="always"
       xlink:href="#linearGradient3616"
       id="linearGradient4724"
       gradientUnits="userSpaceOnUse"
       gradientTransform="matrix(1,0,0,-1,0,1040)"
       x1="770"
       y1="560"
       x2="770"
       y2="480" />
    <linearGradient
       inkscape:collect="always"
       xlink:href="#linearGradient3704"
       id="linearGradient4726"
       gradientUnits="userSpaceOnUse"
       x1="770"
       y1="490"
       x2="770"
       y2="555" />
    <linearGradient
       inkscape:collect="always"
       xlink:href="#linearGradient4018"
       id="linearGradient4728"
       gradientUnits="userSpaceOnUse"
       gradientTransform="matrix(1,0,0,2.5714286,-1512.3622,-3175.3599)"
       x1="575"
       y1="972.36218"
       x2="585"
       y2="972.36218" />
    <linearGradient
       inkscape:collect="always"
       xlink:href="#linearGradient3616"
       id="linearGradient4730"
       gradientUnits="userSpaceOnUse"
       gradientTransform="matrix(1,0,0,-1,0,1040)"
       x1="770"
       y1="560"
       x2="770"
       y2="480" />
    <linearGradient
       inkscape:collect="always"
       xlink:href="#linearGradient3704"
       id="linearGradient4732"
       gradientUnits="userSpaceOnUse"
       x1="770"
       y1="490"
       x2="770"
       y2="555" />
    <inkscape:perspective
       id="perspective7925"
       inkscape:persp3d-origin="0.5 : 0.33333333 : 1"
       inkscape:vp_z="1 : 0.5 : 1"
       inkscape:vp_y="0 : 1000 : 0"
       inkscape:vp_x="0 : 0.5 : 1"
       sodipodi:type="inkscape:persp3d" />
    <radialGradient
       r="5"
       fy="485"
       fx="585"
       cy="485"
       cx="585"
       gradientTransform="matrix(2,0,0,-2,-1100,1010)"
       gradientUnits="userSpaceOnUse"
       id="radialGradient3939"
       xlink:href="#linearGradient4018"
       inkscape:collect="always" />
    <linearGradient
       inkscape:collect="always"
       xlink:href="#linearGradient4018"
       id="linearGradient3942"
       gradientUnits="userSpaceOnUse"
       gradientTransform="matrix(0,-1,-0.49999999,0,538.68108,615.00002)"
       x1="575"
       y1="972.36218"
       x2="585"
       y2="972.36218" />
  </defs>
  <metadata
     id="metadata7">
    <rdf:RDF>
      <cc:Work
         rdf:about="">
        <dc:format>image/svg+xml</dc:format>
        <dc:type
           rdf:resource="http://purl.org/dc/dcmitype/StillImage" />
        <dc:title />
      </cc:Work>
    </rdf:RDF>
  </metadata>
  <g
     transform="translate(0,-902.36218)"
     id="layer1"
     inkscape:groupmode="layer"
     inkscape:label="Layer 1">
    <rect
       y="907.36218"
       x="5"
       height="5.000001"
       width="5"
       id="hint-stretch-borders"
       style="fill:#008000;fill-opacity:1;stroke:none" />
    <path
       id="center"
       d="m 70.000003,942.36218 -35,0 0,70.00002 35,0 0,-70.00002 z"
       style="fill:#000000;fill-opacity:1;stroke:none;opacity:0.50000000000000000" />
    <g
       transform="translate(-695,5)"
       id="bottomright">
      <path
         style="fill:url(#radialGradient4046);fill-opacity:1;stroke:none"
         d="M 75 110 L 75 112 C 75 113.662 73.662 115 72 115 L 70 115 L 70 120 L 80 120 L 80 110 L 75 110 z M 73.25 113.53125 C 72.700924 113.88886 71.902913 114 71 114 L 72 114 C 72.480452 114 72.905892 113.81157 73.25 113.53125 z "
         transform="translate(695,897.36218)"
         id="rect4040" />
      <path
         id="path4148"
         transform="translate(695,897.36218)"
         d="M 70 110 L 70 113 L 70 114 L 71.53125 114 L 72 114 C 72.456572 114 72.882831 113.84938 73.21875 113.59375 C 73.230697 113.58466 73.238268 113.57185 73.25 113.5625 C 73.309619 113.52159 73.352529 113.45379 73.40625 113.40625 C 73.498589 113.32454 73.583671 113.22746 73.65625 113.125 C 73.732351 113.01756 73.7927 112.91318 73.84375 112.78125 C 73.877816 112.70044 73.914134 112.61714 73.9375 112.53125 C 73.945726 112.49359 73.962402 112.44561 73.96875 112.40625 C 73.995305 112.27582 74 112.1385 74 112 L 74 110 L 73 110 L 70 110 z "
         style="fill:#000000;fill-opacity:0.00392157;stroke:none;opacity:0.50000000000000000" />
      <path
         style="fill:#000000;fill-opacity:0.18309858;stroke:none"
         d="m 770,555 -1,0 0,1 0,1 c 0,1.108 -0.892,2 -2,2 l -1,0 -1,0 0,1 2,0 c 1.662,0 3,-1.338 3,-3 l 0,-2 z"
         id="path4135"
         transform="translate(0,452.36218)" />
    </g>
    <g
       transform="translate(-695,5)"
       id="right">
      <path
         style="fill:url(#linearGradient4044);fill-opacity:1;stroke:none"
         d="M 75 40 L 75 110 L 80 110 L 80 40 L 75 40 z "
         transform="translate(695,897.36218)"
         id="rect4038" />
      <path
         id="path4146"
         transform="translate(695,897.36218)"
         d="M 70 40 L 70 110 L 73 110 L 74 110 L 74 40 L 73 40 L 70 40 z "
         style="fill:#000000;fill-opacity:0.00392157;stroke:none;opacity:0.50000000000000000" />
      <path
         style="fill:#000000;fill-opacity:0.18309858;stroke:none"
         d="m 770,485 -1,0 0,70 1,0 0,-70 z"
         id="path4133"
         transform="translate(0,452.36218)" />
    </g>
    <g
       transform="translate(-695,5)"
       id="topright">
      <path
         style="fill:url(#radialGradient3939);fill-opacity:1;stroke:none"
         d="M 70 30 L 70 35 L 72 35 C 73.662 35 75 36.338 75 38 L 75 40 L 80 40 L 80 30 L 70 30 z M 71 36 C 71.902913 36 72.700924 36.111138 73.25 36.46875 C 72.905892 36.188426 72.480452 36 72 36 L 71 36 z "
         transform="translate(695,897.36218)"
         id="rect4036" />
      <path
         id="path4076"
         transform="translate(695,897.36218)"
         d="M 70 36 L 70 37 L 70 40 L 73 40 L 74 40 L 74 38 C 74 37.86735 73.992257 37.725439 73.96875 37.59375 C 73.942195 37.46332 73.894219 37.338469 73.84375 37.21875 C 73.797027 37.098314 73.726928 36.984606 73.65625 36.875 C 73.520406 36.664337 73.35508 36.48854 73.125 36.34375 C 73.037603 36.284803 72.94032 36.232244 72.84375 36.1875 C 72.823567 36.179173 72.802006 36.164026 72.78125 36.15625 C 72.541813 36.055312 72.277 36 72 36 L 70 36 z "
         style="fill:#000000;fill-opacity:0.00392157;stroke:none;opacity:0.50000000000000000" />
      <path
         style="fill:#000000;fill-opacity:0.18309858;stroke:none"
         d="m 765,480 0,1 1,0 1,0 c 1.108,0 2,0.892 2,2 l 0,1 0,1 1,0 0,-2 c 0,-1.662 -1.338,-3 -3,-3 l -2,0 z"
         id="path4083"
         transform="translate(0,452.36218)" />
    </g>
    <g
       transform="matrix(0.19444444,0,0,1,-78.749997,5)"
       id="bottom">
      <path
         style="fill:url(#linearGradient4054);fill-opacity:1;stroke:none"
         d="M 35 115 L 35 120 L 70 120 L 70 115 L 35 115 z "
         transform="matrix(5.1428573,0,0,1,404.99999,897.36218)"
         id="rect4052" />
      <path
         id="path4130"
         transform="matrix(5.1428573,0,0,1,404.99999,897.36218)"
         d="M 35 110 L 35 113 L 35 114 L 70 114 L 70 113 L 70 110 L 35 110 z "
         style="fill:#000000;fill-opacity:0.00392157;stroke:none;opacity:0.50000000000000000" />
      <path
         style="fill:#000000;fill-opacity:0.18309858;stroke:none"
         d="m 585,559 0,1 180,0 0,-1 -180,0 z"
         id="path4081"
         transform="translate(0,452.36218)" />
    </g>
    <g
       transform="translate(-550,5)"
       id="bottomleft">
      <path
         style="fill:url(#radialGradient4028);fill-opacity:1;stroke:none"
         d="M 25 110 L 25 120 L 35 120 L 35 115 L 33 115 C 31.338 115 30 113.662 30 112 L 30 110 L 25 110 z M 31.75 113.53125 C 32.094108 113.81157 32.519548 114 33 114 L 34 114 C 33.097087 114 32.299076 113.88886 31.75 113.53125 z "
         transform="translate(550,897.36218)"
         id="rect4026" />
      <path
         id="path4162"
         transform="translate(550,897.36218)"
         d="M 31 110 L 31 111.875 L 31 112 C 31 112.17312 31.022432 112.33864 31.0625 112.5 C 31.095728 112.63382 31.160998 112.7529 31.21875 112.875 C 31.233633 112.90539 31.233665 112.93973 31.25 112.96875 C 31.278357 113.02204 31.310993 113.07471 31.34375 113.125 C 31.374072 113.16761 31.4041 113.21082 31.4375 113.25 C 31.797133 113.71804 32.332989 114.03819 32.96875 114.03125 L 35 114 L 35 113 L 35 110 L 32 110 L 31 110 z "
         style="fill:#000000;fill-opacity:0.00392157;stroke:none;opacity:0.50000000000000000" />
      <path
         style="fill:#000000;fill-opacity:0.18309858;stroke:none"
         d="m 581,555 -1,0 0,2 c 0,1.662 1.338,3 3,3 l 2,0 0,-1 -1,0 -1,0 c -1.108,0 -2,-0.892 -2,-2 l 0,-1 0,-1 z"
         id="path4167"
         transform="translate(0,452.36218)" />
    </g>
    <g
       transform="translate(-550,5)"
       id="left">
      <path
         style="fill:url(#linearGradient4034);fill-opacity:1;stroke:none"
         d="M 25 40 L 25 110 L 30 110 L 30 40 L 25 40 z "
         transform="translate(550,897.36218)"
         id="rect4030" />
      <path
         id="path4160"
         transform="translate(550,897.36218)"
         d="M 31 40 L 31 110 L 32 110 L 35 110 L 35 40 L 32 40 L 31 40 z "
         style="fill:#000000;fill-opacity:0.00392157;stroke:none;opacity:0.50000000000000000" />
      <path
         style="fill:#000000;fill-opacity:0.18309858;stroke:none"
         d="m 581,485 -1,0 0,70 1,0 0,-70 z"
         id="path4165"
         transform="translate(0,452.36218)" />
    </g>
    <g
       transform="translate(-550,5)"
       id="topleft">
      <path
         style="fill:url(#radialGradient4024);fill-opacity:1;stroke:none"
         d="M 25 30 L 25 40 L 30 40 L 30 38 C 30 36.338 31.338 35 33 35 L 35 35 L 35 30 L 25 30 z M 33 36 C 32.519548 36 32.094108 36.188426 31.75 36.46875 C 32.299076 36.111138 33.097087 36 34 36 L 33 36 z "
         transform="translate(550,897.36218)"
         id="rect4016" />
      <path
         id="path4074"
         transform="translate(550,897.36218)"
         d="M 32.84375 36 C 32.788092 36.000204 32.678814 36.014325 32.59375 36.03125 C 32.541578 36.041872 32.488085 36.047925 32.4375 36.0625 C 32.381441 36.079152 32.341771 36.101465 32.28125 36.125 C 32.238218 36.141421 32.197779 36.168258 32.15625 36.1875 C 32.120832 36.203988 32.098323 36.231022 32.0625 36.25 C 31.961552 36.303816 31.870851 36.367804 31.78125 36.4375 C 31.715746 36.488452 31.652338 36.535162 31.59375 36.59375 C 31.504364 36.677735 31.418877 36.768198 31.34375 36.875 C 31.270612 36.978973 31.208911 37.091257 31.15625 37.21875 C 31.115638 37.317074 31.087315 37.417952 31.0625 37.53125 C 31.026157 37.682526 31 37.837263 31 38 L 31 40 L 32 40 L 35 40 L 35 37 L 35 36 L 32.84375 36 z "
         style="fill:#000000;fill-opacity:0.00392157;stroke:none;opacity:0.50000000000000000" />
      <path
         style="fill:#000000;fill-opacity:0.18309858;stroke:none"
         d="m 583,480 c -1.662,0 -3,1.338 -3,3 l 0,2 1,0 0,-1 0,-1 c 0,-1.108 0.892,-2 2,-2 l 1,0 1,0 0,-1 -2,0 z"
         id="path4079"
         transform="translate(0,452.36218)" />
    </g>
    <g
       transform="matrix(0.19444444,0,0,1,-78.749997,5)"
       id="top">
      <path
         style="fill:url(#linearGradient3942);fill-opacity:1;stroke:none"
         d="M 35 30 L 35 35 L 70 35 L 70 30 L 35 30 z "
         transform="matrix(5.1428573,0,0,1,404.99999,897.36218)"
         id="rect4048" />
      <path
         id="rect3606"
         transform="matrix(5.1428573,0,0,1,404.99999,897.36218)"
         d="M 35 36 L 35 37 L 35 40 L 70 40 L 70 37 L 70 36 L 35 36 z "
         style="fill:#000000;fill-opacity:0.00392157;stroke:none;opacity:0.50000000000000000" />
      <path
         style="fill:#000000;fill-opacity:0.18309858;stroke:none"
         d="m 585,480 0,1 180,0 0,-1 -180,0 z"
         id="rect3645"
         transform="translate(0,452.36218)" />
    </g>
    <rect
       transform="translate(0,902.36218)"
       y="78"
       x="75"
       height="2"
       width="5"
       id="shadow-hint-right-margin"
       style="fill:#008000;fill-opacity:1;stroke:none" />
    <rect
       transform="matrix(0,-1,1,0,0,0)"
       style="fill:#008000;fill-opacity:1;stroke:none"
       id="shadow-hint-top-margin"
       width="5"
       height="2"
       x="-937.36218"
       y="53" />
    <rect
       y="-982.36218"
       x="-30"
       height="2"
       width="5"
       id="shadow-hint-left-margin"
       style="fill:#008000;fill-opacity:1;stroke:none"
       transform="scale(-1,-1)" />
    <rect
       transform="matrix(0,-1,1,0,0,0)"
       style="fill:#008000;fill-opacity:1;stroke:none"
       id="shadow-hint-bottom-margin"
       width="5"
       height="2"
       x="-1022.3622"
       y="53" />
    <rect
       inkscape:export-ydpi="90"
       inkscape:export-xdpi="90"
       inkscape:export-filename="/home/diau/svn/playground-plasma/desktoptheme/air/widgets/image2579.png"
       style="fill:#008000;fill-opacity:1;stroke:none"
       id="hint-compose-over-border"
       width="5"
       height="5.0000005"
       x="15"
       y="907.36218" />
    <path
       inkscape:connector-curvature="0"
       style="fill:#000000;fill-opacity:1;stroke:none"
       d="m -52,1028.3622 0,32 31.999999,0 0,-32 -31.999999,0 z"
       id="mask-center" />
    <g
       id="mask-right"
       transform="matrix(-0.55545944,0,0,0.99999997,-73.879314,966.36218)">
      <path
         inkscape:connector-curvature="0"
         id="path3487"
         d="M -96.999554,61.999999 -96.999554,94 -115,94 c -0.006,-0.05339 0,-0.100037 0,-0.153846 l 0,-31.692308 c 0,-0.05381 -0.006,-0.100456 0,-0.153847 l 18.000446,0 z"
         style="fill:#000000;fill-opacity:0;fill-rule:nonzero;stroke:none" />
      <path
         inkscape:connector-curvature="0"
         style="fill:#000000;fill-opacity:1;fill-rule:nonzero;stroke:none"
         d="m -96.999552,61.999999 0,32.000001 -9.000218,3e-6 c -0.003,-0.05339 0,-0.100037 0,-0.153846 l 0,-31.692308 c 0,-0.05381 -0.003,-0.100456 0,-0.153847 z"
         id="path3489"
         sodipodi:nodetypes="cccsscc" />
    </g>
    <g
       transform="matrix(0,0.55554117,0.99999988,0,-113.99999,1082.2494)"
       id="mask-top">
      <path
         inkscape:connector-curvature="0"
         style="fill:#000000;fill-opacity:0;fill-rule:nonzero;stroke:none"
         d="m -97,62 0,32 -18,0 c 0,0 0,0 0,0 l 0,-32 c 0,0 0,0 0,0 l 18,0 z"
         id="path3493" />
      <path
         inkscape:connector-curvature="0"
         id="path3495"
         d="m -97,62 0,32 -8.99974,-4e-6 0,-32 z"
         style="fill:#000000;fill-opacity:1;fill-rule:nonzero;stroke:none"
         sodipodi:nodetypes="ccccc" />
    </g>
    <g
       transform="matrix(1,0,0,0.99994123,-95.98718,99.054623)"
       id="mask-topright">
      <g
         id="g3956">
        <path
           id="path3505"
           d="m 75.987184,929.36218 10,0 0,-9.99881 c -0.01667,-0.004 -0.03127,0 -0.04807,0 l -9.903853,0 c -0.0168,0 -0.0314,-0.004 -0.04807,0 l 0,9.99881 z"
           style="opacity:0;fill:#000000;fill-opacity:1;fill-rule:nonzero;stroke:none"
           inkscape:connector-curvature="0" />
        <path
           sodipodi:nodetypes="cccccc"
           style="fill:#000000;fill-opacity:1;fill-rule:nonzero;stroke:none"
           d="m 80.98718,927.36218 c 0.01657,-1.27069 -1,-3 -3,-3 l -2,0 0,5 5,0 z"
           id="path3507"
           inkscape:connector-curvature="0" />
      </g>
    </g>
    <g
       id="mask-topleft"
       transform="matrix(-1,0,0,1,23.987184,99)">
      <g
         id="g3967">
        <path
           inkscape:connector-curvature="0"
           style="opacity:0;fill:#000000;fill-opacity:1;fill-rule:nonzero;stroke:none"
           d="m 75.987184,929.36218 10,0 0,-9.99881 c -0.01667,-0.004 -0.03127,0 -0.04807,0 l -9.903853,0 c -0.0168,0 -0.0314,-0.004 -0.04807,0 l 0,9.99881 z"
           id="path3969" />
        <path
           inkscape:connector-curvature="0"
           id="path3971"
           d="m 80.987184,927.36214 c 0.01657,-1.27069 -1,-3 -3,-3 l -2,0 0,5 5,0 z"
           style="fill:#000000;fill-opacity:1;fill-rule:nonzero;stroke:none"
           sodipodi:nodetypes="cccccc" />
      </g>
    </g>
    <g
       id="mask-bottom"
       transform="matrix(0,-0.55554117,1.0000743,0,-114.0046,1006.475)">
      <path
         id="path3975"
         d="m -97,62 0,32 -18,0 c 0,0 0,0 0,0 l 0,-32 c 0,0 0,0 0,0 l 18,0 z"
         style="fill:#000000;fill-opacity:0;fill-rule:nonzero;stroke:none"
         inkscape:connector-curvature="0" />
      <path
         sodipodi:nodetypes="ccccc"
         style="fill:#000000;fill-opacity:1;fill-rule:nonzero;stroke:none"
         d="m -97,62 0,32 -8.99974,-4e-6 0,-32 z"
         id="path3977"
         inkscape:connector-curvature="0" />
    </g>
    <g
       id="mask-bottomright"
       transform="matrix(1,0,0,-0.99993723,-95.98718,1989.6661)">
      <g
         id="g3981">
        <path
           inkscape:connector-curvature="0"
           style="opacity:0;fill:#000000;fill-opacity:1;fill-rule:nonzero;stroke:none"
           d="m 75.987184,929.36218 10,0 0,-9.99881 c -0.01667,-0.004 -0.03127,0 -0.04807,0 l -9.903853,0 c -0.0168,0 -0.0314,-0.004 -0.04807,0 l 0,9.99881 z"
           id="path3983" />
        <path
           inkscape:connector-curvature="0"
           id="path3985"
           d="m 80.98718,927.36222 c 0.01657,-1.27069 -1,-3 -3,-3 l -2,0 0,5 5,0 z"
           style="fill:#000000;fill-opacity:1;fill-rule:nonzero;stroke:none"
           sodipodi:nodetypes="cccccc" />
      </g>
    </g>
    <g
       transform="matrix(-1,0,0,-1,23.987184,1989.7238)"
       id="mask-bottomleft">
      <g
         id="g3989">
        <path
           id="path3991"
           d="m 75.987184,929.36218 10,0 0,-9.99881 c -0.01667,-0.004 -0.03127,0 -0.04807,0 l -9.903853,0 c -0.0168,0 -0.0314,-0.004 -0.04807,0 l 0,9.99881 z"
           style="opacity:0;fill:#000000;fill-opacity:1;fill-rule:nonzero;stroke:none"
           inkscape:connector-curvature="0" />
        <path
           sodipodi:nodetypes="cccccc"
           style="fill:#000000;fill-opacity:1;fill-rule:nonzero;stroke:none"
           d="m 80.987184,927.36222 c 0.01657,-1.27069 -1,-3 -3,-3 l -2,0 0,5 5,0 z"
           id="path3993"
           inkscape:connector-curvature="0" />
      </g>
    </g>
    <g
       transform="matrix(0.55554158,0,0,0.99999997,1.8887632,966.36218)"
       id="mask-left">
      <path
         style="fill:#000000;fill-opacity:0;fill-rule:nonzero;stroke:none"
         d="M -96.999554,61.999999 -96.999554,94 -115,94 c -0.006,-0.05339 0,-0.100037 0,-0.153846 l 0,-31.692308 c 0,-0.05381 -0.006,-0.100456 0,-0.153847 l 18.000446,0 z"
         id="path3997"
         inkscape:connector-curvature="0" />
      <path
         sodipodi:nodetypes="cccsscc"
         id="path3999"
         d="m -96.999552,61.999999 0,32.000001 -9.000218,3e-6 c -0.003,-0.05339 0,-0.100037 0,-0.153846 l 0,-31.692308 c 0,-0.05381 -0.003,-0.100456 0,-0.153847 z"
         style="fill:#000000;fill-opacity:1;fill-rule:nonzero;stroke:none"
         inkscape:connector-curvature="0" />
    </g>
  </g>
</svg>
