<?xml version="1.0" encoding="UTF-8" standalone="no"?>
<svg xmlns:dc="http://purl.org/dc/elements/1.1/" xmlns:cc="http://creativecommons.org/ns#" xmlns:rdf="http://www.w3.org/1999/02/22-rdf-syntax-ns#" xmlns:svg="http://www.w3.org/2000/svg" xmlns="http://www.w3.org/2000/svg" xmlns:sodipodi="http://sodipodi.sourceforge.net/DTD/sodipodi-0.dtd" xmlns:inkscape="http://www.inkscape.org/namespaces/inkscape" width="26" height="22" version="1.1" id="svg47" sodipodi:docname="close.svg" inkscape:version="0.92.5 (2060ec1f9f, 2020-04-08)">
    <metadata id="metadata53">
        <rdf:RDF>
            <cc:Work rdf:about="">
                <dc:format>
                    image/svg+xml
                </dc:format>
                <dc:type rdf:resource="http://purl.org/dc/dcmitype/StillImage"/>
            </cc:Work>
        </rdf:RDF>
    </metadata>
    <defs id="defs51"/>
    <sodipodi:namedview pagecolor="#ffffff" bordercolor="#666666" borderopacity="1" objecttolerance="10" gridtolerance="10" guidetolerance="10" inkscape:pageopacity="0" inkscape:pageshadow="2" inkscape:window-width="1302" inkscape:window-height="741" id="namedview49" showgrid="true" inkscape:zoom="7.5872558" inkscape:cx="103.83915" inkscape:cy="3.5303288" inkscape:window-x="64" inkscape:window-y="0" inkscape:window-maximized="1" inkscape:current-layer="active-center">
        <inkscape:grid type="xygrid" id="grid4565"/>
    </sodipodi:namedview>
    <g id="active-center" style="opacity:1" transform="translate(104)">
        <path style="opacity:1;fill:#df4a16;fill-opacity:1;stroke:none;stroke-width:1;stroke-linecap:round;stroke-linejoin:round;stroke-miterlimit:4;stroke-dasharray:none;stroke-opacity:1" id="path4563" sodipodi:type="arc" sodipodi:cx="13" sodipodi:cy="11" sodipodi:rx="10" sodipodi:ry="10" sodipodi:start="4.7422341" sodipodi:end="4.7124064" sodipodi:open="true" d="M 13.298407,1.0044533 A 10,10 0 0 1 22.997494,11.223863 10,10 0 0 1 12.850693,20.998885 10,10 0 0 1 3.0002793,10.925257 10,10 0 0 1 13.000174,1"/>
        <path d="M 0,0 H 26 V 22 H 0 Z" style="opacity:0;fill:#e81123" id="path2" inkscape:connector-curvature="0"/>
        <path d="m 9,7 v 1 h 1 V 7 Z m 1,1 v 1 h 1 V 8 Z m 1,1 v 1 h 1 V 9 Z m 1,1 v 2 h 2 v -2 z m 2,0 h 1 V 9 h -1 z m 1,-1 h 1 V 8 h -1 z m 1,-1 h 1 V 7 h -1 z m -2,4 v 1 h 1 v -1 z m 1,1 v 1 h 1 v -1 z m 1,1 v 1 h 1 v -1 z m -4,-2 h -1 v 1 h 1 z m -1,1 h -1 v 1 h 1 z m -1,1 H 9 v 1 h 1 z" id="path4" inkscape:connector-curvature="0" style="fill:#ffffff"/>
        <path d="M 8,6 V 7 H 9 V 6 Z m 9,0 v 1 h 1 V 6 Z m -9,9 v 1 h 1 v -1 z m 9,0 v 1 h 1 v -1 z" id="path6" inkscape:connector-curvature="0" style="opacity:0.7;fill:#ffffff"/>
        <path d="m 9,6 v 1 h 1 V 6 Z m 1,1 v 1 h 1 V 7 Z m 1,1 v 1 h 1 V 8 Z m 1,1 v 1 h 2 V 9 Z m 2,0 h 1 V 8 h -1 z m 1,-1 h 1 V 7 h -1 z m 1,-1 h 1 V 6 h -1 z m 1,0 v 1 h 1 V 7 Z m 0,1 h -1 v 1 h 1 z m -1,1 h -1 v 1 h 1 z m -1,1 h -1 v 2 h 1 z m 0,2 v 1 h 1 v -1 z m 1,1 v 1 h 1 v -1 z m 1,1 v 1 h 1 v -1 z m 0,1 h -1 v 1 h 1 z m -1,0 v -1 h -1 v 1 z m -1,-1 v -1 h -1 v 1 z m -1,-1 v -1 h -2 v 1 z m -2,0 h -1 v 1 h 1 z m -1,1 h -1 v 1 h 1 z m -1,1 H 9 v 1 h 1 z M 9,15 V 14 H 8 v 1 z m 0,-1 h 1 V 13 H 9 Z m 1,-1 h 1 v -1 h -1 z m 1,-1 h 1 v -2 h -1 z m 0,-2 V 9 h -1 v 1 z M 10,9 V 8 H 9 V 9 Z M 9,8 V 7 H 8 v 1 z" id="path8" inkscape:connector-curvature="0" style="opacity:0.3;fill:#ffffff"/>
    </g>
    <g id="hover-center" style="opacity:1" transform="translate(78)">
        <path d="M 0,0 H 26 V 22 H 0 Z" style="opacity:0;fill:#e81123" id="path11" inkscape:connector-curvature="0"/>
        <path style="opacity:0.8;fill:#df4a16;fill-opacity:1;stroke:none;stroke-width:1;stroke-linecap:round;stroke-linejoin:round;stroke-miterlimit:4;stroke-dasharray:none;stroke-opacity:1" id="path4563" sodipodi:type="arc" sodipodi:cx="13" sodipodi:cy="11" sodipodi:rx="10" sodipodi:ry="10" sodipodi:start="4.7422341" sodipodi:end="4.7124064" sodipodi:open="true" d="M 13.298407,1.0044533 A 10,10 0 0 1 22.997494,11.223863 10,10 0 0 1 12.850693,20.998885 10,10 0 0 1 3.0002793,10.925257 10,10 0 0 1 13.000174,1"/>
        <path d="m 9,7 v 1 h 1 V 7 Z m 1,1 v 1 h 1 V 8 Z m 1,1 v 1 h 1 V 9 Z m 1,1 v 2 h 2 v -2 z m 2,0 h 1 V 9 h -1 z m 1,-1 h 1 V 8 h -1 z m 1,-1 h 1 V 7 h -1 z m -2,4 v 1 h 1 v -1 z m 1,1 v 1 h 1 v -1 z m 1,1 v 1 h 1 v -1 z m -4,-2 h -1 v 1 h 1 z m -1,1 h -1 v 1 h 1 z m -1,1 H 9 v 1 h 1 z" id="path13" inkscape:connector-curvature="0" style="fill:#ffffff"/>
        <path d="M 8,6 V 7 H 9 V 6 Z m 9,0 v 1 h 1 V 6 Z m -9,9 v 1 h 1 v -1 z m 9,0 v 1 h 1 v -1 z" id="path15" inkscape:connector-curvature="0" style="opacity:0.7;fill:#ffffff"/>
        <path d="m 9,6 v 1 h 1 V 6 Z m 1,1 v 1 h 1 V 7 Z m 1,1 v 1 h 1 V 8 Z m 1,1 v 1 h 2 V 9 Z m 2,0 h 1 V 8 h -1 z m 1,-1 h 1 V 7 h -1 z m 1,-1 h 1 V 6 h -1 z m 1,0 v 1 h 1 V 7 Z m 0,1 h -1 v 1 h 1 z m -1,1 h -1 v 1 h 1 z m -1,1 h -1 v 2 h 1 z m 0,2 v 1 h 1 v -1 z m 1,1 v 1 h 1 v -1 z m 1,1 v 1 h 1 v -1 z m 0,1 h -1 v 1 h 1 z m -1,0 v -1 h -1 v 1 z m -1,-1 v -1 h -1 v 1 z m -1,-1 v -1 h -2 v 1 z m -2,0 h -1 v 1 h 1 z m -1,1 h -1 v 1 h 1 z m -1,1 H 9 v 1 h 1 z M 9,15 V 14 H 8 v 1 z m 0,-1 h 1 V 13 H 9 Z m 1,-1 h 1 v -1 h -1 z m 1,-1 h 1 v -2 h -1 z m 0,-2 V 9 h -1 v 1 z M 10,9 V 8 H 9 V 9 Z M 9,8 V 7 H 8 v 1 z" id="path17" inkscape:connector-curvature="0" style="opacity:0.3;fill:#ffffff"/>
    </g>
    <g id="pressed-center" style="opacity:1" transform="translate(52)">
        <path d="M 0,0 H 26 V 22 H 0 Z" style="opacity:0;fill:#e81123" id="path20" inkscape:connector-curvature="0"/>
        <path style="opacity:1;fill:#df4a16;fill-opacity:1;stroke:none;stroke-width:1;stroke-linecap:round;stroke-linejoin:round;stroke-miterlimit:4;stroke-dasharray:none;stroke-opacity:1" id="path4563" sodipodi:type="arc" sodipodi:cx="13" sodipodi:cy="11" sodipodi:rx="10" sodipodi:ry="10" sodipodi:start="4.7422341" sodipodi:end="4.7124064" sodipodi:open="true" d="M 13.298407,1.0044533 A 10,10 0 0 1 22.997494,11.223863 10,10 0 0 1 12.850693,20.998885 10,10 0 0 1 3.0002793,10.925257 10,10 0 0 1 13.000174,1"/>
        <path d="m 9,7 v 1 h 1 V 7 Z m 1,1 v 1 h 1 V 8 Z m 1,1 v 1 h 1 V 9 Z m 1,1 v 2 h 2 v -2 z m 2,0 h 1 V 9 h -1 z m 1,-1 h 1 V 8 h -1 z m 1,-1 h 1 V 7 h -1 z m -2,4 v 1 h 1 v -1 z m 1,1 v 1 h 1 v -1 z m 1,1 v 1 h 1 v -1 z m -4,-2 h -1 v 1 h 1 z m -1,1 h -1 v 1 h 1 z m -1,1 H 9 v 1 h 1 z" id="path22" inkscape:connector-curvature="0" style="fill:#ffffff"/>
        <path d="M 8,6 V 7 H 9 V 6 Z m 9,0 v 1 h 1 V 6 Z m -9,9 v 1 h 1 v -1 z m 9,0 v 1 h 1 v -1 z" id="path24" inkscape:connector-curvature="0" style="opacity:0.7;fill:#ffffff"/>
        <path d="m 9,6 v 1 h 1 V 6 Z m 1,1 v 1 h 1 V 7 Z m 1,1 v 1 h 1 V 8 Z m 1,1 v 1 h 2 V 9 Z m 2,0 h 1 V 8 h -1 z m 1,-1 h 1 V 7 h -1 z m 1,-1 h 1 V 6 h -1 z m 1,0 v 1 h 1 V 7 Z m 0,1 h -1 v 1 h 1 z m -1,1 h -1 v 1 h 1 z m -1,1 h -1 v 2 h 1 z m 0,2 v 1 h 1 v -1 z m 1,1 v 1 h 1 v -1 z m 1,1 v 1 h 1 v -1 z m 0,1 h -1 v 1 h 1 z m -1,0 v -1 h -1 v 1 z m -1,-1 v -1 h -1 v 1 z m -1,-1 v -1 h -2 v 1 z m -2,0 h -1 v 1 h 1 z m -1,1 h -1 v 1 h 1 z m -1,1 H 9 v 1 h 1 z M 9,15 V 14 H 8 v 1 z m 0,-1 h 1 V 13 H 9 Z m 1,-1 h 1 v -1 h -1 z m 1,-1 h 1 v -2 h -1 z m 0,-2 V 9 h -1 v 1 z M 10,9 V 8 H 9 V 9 Z M 9,8 V 7 H 8 v 1 z" id="path26" inkscape:connector-curvature="0" style="opacity:0.3;fill:#ffffff"/>
    </g>
    <g id="inactive-center" style="opacity:1" transform="translate(26)">
        <path d="M 0,0 H 26 V 22 H 0 Z" style="opacity:0;fill:#e5e5e5" id="path29" inkscape:connector-curvature="0"/>
        <path d="m 9,7 v 1 h 1 V 7 Z m 1,1 v 1 h 1 V 8 Z m 1,1 v 1 h 1 V 9 Z m 1,1 v 2 h 2 v -2 z m 2,0 h 1 V 9 h -1 z m 1,-1 h 1 V 8 h -1 z m 1,-1 h 1 V 7 h -1 z m -2,4 v 1 h 1 v -1 z m 1,1 v 1 h 1 v -1 z m 1,1 v 1 h 1 v -1 z m -4,-2 h -1 v 1 h 1 z m -1,1 h -1 v 1 h 1 z m -1,1 H 9 v 1 h 1 z" id="path31" inkscape:connector-curvature="0" style="fill:#808080"/>
        <path d="M 8,6 V 7 H 9 V 6 Z m 9,0 v 1 h 1 V 6 Z m -9,9 v 1 h 1 v -1 z m 9,0 v 1 h 1 v -1 z" id="path33" inkscape:connector-curvature="0" style="opacity:0.7;fill:#808080"/>
        <path d="m 9,6 v 1 h 1 V 6 Z m 1,1 v 1 h 1 V 7 Z m 1,1 v 1 h 1 V 8 Z m 1,1 v 1 h 2 V 9 Z m 2,0 h 1 V 8 h -1 z m 1,-1 h 1 V 7 h -1 z m 1,-1 h 1 V 6 h -1 z m 1,0 v 1 h 1 V 7 Z m 0,1 h -1 v 1 h 1 z m -1,1 h -1 v 1 h 1 z m -1,1 h -1 v 2 h 1 z m 0,2 v 1 h 1 v -1 z m 1,1 v 1 h 1 v -1 z m 1,1 v 1 h 1 v -1 z m 0,1 h -1 v 1 h 1 z m -1,0 v -1 h -1 v 1 z m -1,-1 v -1 h -1 v 1 z m -1,-1 v -1 h -2 v 1 z m -2,0 h -1 v 1 h 1 z m -1,1 h -1 v 1 h 1 z m -1,1 H 9 v 1 h 1 z M 9,15 V 14 H 8 v 1 z m 0,-1 h 1 V 13 H 9 Z m 1,-1 h 1 v -1 h -1 z m 1,-1 h 1 v -2 h -1 z m 0,-2 V 9 h -1 v 1 z M 10,9 V 8 H 9 V 9 Z M 9,8 V 7 H 8 v 1 z" id="path35" inkscape:connector-curvature="0" style="opacity:0.3;fill:#808080"/>
    </g>
    <g id="deactivated-center" style="opacity:1">
        <path d="M 0,0 H 26 V 22 H 0 Z" style="opacity:0;fill:#e5e5e5" id="path38" inkscape:connector-curvature="0"/>
        <path d="m 9,7 v 1 h 1 V 7 Z m 1,1 v 1 h 1 V 8 Z m 1,1 v 1 h 1 V 9 Z m 1,1 v 2 h 2 v -2 z m 2,0 h 1 V 9 h -1 z m 1,-1 h 1 V 8 h -1 z m 1,-1 h 1 V 7 h -1 z m -2,4 v 1 h 1 v -1 z m 1,1 v 1 h 1 v -1 z m 1,1 v 1 h 1 v -1 z m -4,-2 h -1 v 1 h 1 z m -1,1 h -1 v 1 h 1 z m -1,1 H 9 v 1 h 1 z" id="path40" inkscape:connector-curvature="0" style="fill:#808080"/>
        <path d="M 8,6 V 7 H 9 V 6 Z m 9,0 v 1 h 1 V 6 Z m -9,9 v 1 h 1 v -1 z m 9,0 v 1 h 1 v -1 z" id="path42" inkscape:connector-curvature="0" style="opacity:0.7;fill:#808080"/>
        <path d="m 9,6 v 1 h 1 V 6 Z m 1,1 v 1 h 1 V 7 Z m 1,1 v 1 h 1 V 8 Z m 1,1 v 1 h 2 V 9 Z m 2,0 h 1 V 8 h -1 z m 1,-1 h 1 V 7 h -1 z m 1,-1 h 1 V 6 h -1 z m 1,0 v 1 h 1 V 7 Z m 0,1 h -1 v 1 h 1 z m -1,1 h -1 v 1 h 1 z m -1,1 h -1 v 2 h 1 z m 0,2 v 1 h 1 v -1 z m 1,1 v 1 h 1 v -1 z m 1,1 v 1 h 1 v -1 z m 0,1 h -1 v 1 h 1 z m -1,0 v -1 h -1 v 1 z m -1,-1 v -1 h -1 v 1 z m -1,-1 v -1 h -2 v 1 z m -2,0 h -1 v 1 h 1 z m -1,1 h -1 v 1 h 1 z m -1,1 H 9 v 1 h 1 z M 9,15 V 14 H 8 v 1 z m 0,-1 h 1 V 13 H 9 Z m 1,-1 h 1 v -1 h -1 z m 1,-1 h 1 v -2 h -1 z m 0,-2 V 9 h -1 v 1 z M 10,9 V 8 H 9 V 9 Z M 9,8 V 7 H 8 v 1 z" id="path44" inkscape:connector-curvature="0" style="opacity:0.3;fill:#808080"/>
    </g>
</svg>
