<?xml version="1.0" encoding="UTF-8" standalone="no"?>
<svg
   width="22"
   height="22"
   version="1.1"
   id="svg21"
   sodipodi:docname="pamac.svg"
   inkscape:version="1.3 (0e150ed6c4, 2023-07-21)"
   xmlns:inkscape="http://www.inkscape.org/namespaces/inkscape"
   xmlns:sodipodi="http://sodipodi.sourceforge.net/DTD/sodipodi-0.dtd"
   xmlns="http://www.w3.org/2000/svg"
   xmlns:svg="http://www.w3.org/2000/svg">
  <sodipodi:namedview
     id="namedview23"
     pagecolor="#c8c8c8"
     bordercolor="#666666"
     borderopacity="1.0"
     inkscape:pageshadow="2"
     inkscape:pageopacity="0"
     inkscape:pagecheckerboard="0"
     showgrid="true"
     inkscape:snap-bbox="true"
     inkscape:bbox-nodes="true"
     inkscape:snap-bbox-edge-midpoints="true"
     inkscape:snap-nodes="false"
     inkscape:zoom="5.6568543"
     inkscape:cx="13.169864"
     inkscape:cy="5.3033008"
     inkscape:window-width="1920"
     inkscape:window-height="989"
     inkscape:window-x="0"
     inkscape:window-y="0"
     inkscape:window-maximized="1"
     inkscape:current-layer="svg21"
     inkscape:object-paths="true"
     inkscape:snap-intersection-paths="true"
     inkscape:showpageshadow="0"
     inkscape:deskcolor="#d1d1d1">
    <inkscape:grid
       type="xygrid"
       id="grid1777"
       originx="0"
       originy="0"
       spacingy="1"
       spacingx="1"
       units="px"
       visible="true" />
  </sodipodi:namedview>
  <defs
     id="defs3">
    <style
       id="current-color-scheme"
       type="text/css">.ColorScheme-Text{color:#dfdfdf;}.ColorScheme-Highlight{color:#5294e2;}</style>
  </defs>
  <defs
     id="defs7">
    <style
       type="text/css"
       id="style5" />
  </defs>
  <g
     id="pamac-tray-no-update"
     transform="translate(0,-0.05079269)">
    <rect
       style="fill:none;fill-opacity:1;stroke:none;stroke-width:2.11786;stroke-linecap:round;stroke-linejoin:round;stroke-miterlimit:4;stroke-dasharray:none;stroke-opacity:1;paint-order:stroke fill markers;stop-color:#000000"
       id="rect1079"
       width="32"
       height="32"
       x="-5"
       y="30.050793"
       rx="0"
       ry="0" />
    <g
       id="g1217"
       transform="translate(26,0.05079395)">
      <path
         d="m -14.999872,31.999999 a 4.3910942,4.3757636 0 0 1 1.904695,0.435864 l 7.7697952,3.753986 a 3.4784931,3.4663487 0 0 1 1.9497149,3.101294 v 5.798703 A 15.527315,15.473104 0 0 1 -13.851422,59.704277 l -0.0939,0.03068 a 3.4729265,3.4608014 0 0 1 -2.109428,0 l -0.0813,-0.02651 a 15.529279,15.475062 0 0 1 -10.48828,-14.61851 v -5.798704 a 3.4785751,3.4664303 0 0 1 1.94971,-3.101292 l 7.769807,-3.753988 a 4.3910942,4.3757636 0 0 1 1.904928,-0.435945 z m 0,26.430786 a 1.9823777,1.9754566 0 0 0 0.604799,-0.09405 c 5.7353613,-1.968849 9.5460481,-7.284048 9.5460481,-13.246883 v -5.798626 a 1.9965398,1.9895693 0 0 0 -1.1190576,-1.779998 l -7.7701195,-3.75407 a 2.8922773,2.8821794 0 0 0 -2.523736,0 l -7.769795,3.75407 a 1.9965398,1.9895693 0 0 0 -1.119064,1.779998 v 5.798703 a 14.052156,14.003095 0 0 0 9.485713,13.227386 2.0943654,2.0870533 0 0 0 0.665212,0.113477 z"
         p-id="1538"
         id="path6-3"
         style="fill:#fbfbfb;fill-opacity:1;stroke-width:0.0319216" />
      <g
         id="g1209"
         transform="matrix(1.4285713,0,0,1.3333333,2.1428556,32.724464)">
        <rect
           style="opacity:1;fill:#fbfbfb;fill-opacity:1;fill-rule:evenodd;stroke:none;stroke-width:3.16273;stroke-linecap:round;stroke-linejoin:round;paint-order:stroke fill markers"
           id="rect1201"
           width="6.6685567"
           height="1"
           x="-13.668557"
           y="-12.5"
           ry="0.5"
           transform="rotate(-90)" />
        <g
           id="g1207"
           transform="translate(0.70710691)">
          <rect
             style="opacity:1;fill:#fbfbfb;fill-opacity:1;fill-rule:evenodd;stroke:none;stroke-width:2.73861;stroke-linecap:round;stroke-linejoin:round;paint-order:stroke fill markers"
             id="rect1203"
             width="5"
             height="1"
             x="-18.227922"
             y="-4.7426405"
             ry="0.5"
             transform="rotate(-45)" />
          <rect
             style="opacity:1;fill:#fbfbfb;fill-opacity:1;fill-rule:evenodd;stroke:none;stroke-width:2.73861;stroke-linecap:round;stroke-linejoin:round;paint-order:stroke fill markers"
             id="rect1205"
             width="5"
             height="1"
             x="-0.2573595"
             y="13.227922"
             ry="0.5"
             transform="matrix(-0.70710678,-0.70710678,-0.70710678,0.70710678,0,0)" />
        </g>
      </g>
    </g>
  </g>
  <g
     id="22-22-pamac-tray-no-update">
    <rect
       width="22"
       height="22"
       opacity="0"
       id="rect9"
       x="0"
       y="0" />
    <g
       id="g4122"
       transform="translate(20.5)">
      <path
         d="m -9.4999101,2 a 3.0220009,2.823234 0 0 1 1.3108328,0.2812185 l 5.3472607,2.4220647 A 2.3939385,2.2364813 0 0 1 -1.5,6.7042319 v 3.7413111 a 10.686075,9.9832165 0 0 1 -7.2095345,9.429203 l -0.064631,0.01979 a 2.3901074,2.2329023 0 0 1 -1.4517325,0 l -0.05596,-0.01711 A 10.687426,9.9844795 0 0 1 -17.5,10.445597 V 6.7042844 a 2.3939948,2.236534 0 0 1 1.341812,-2.000948 l 5.34727,-2.4220654 A 3.0220009,2.823234 0 0 1 -9.4999262,2 Z m 0,17.053091 a 1.3642948,1.2745607 0 0 0 0.4162287,-0.06068 c 3.9471413,-1.270297 6.5696995,-4.699653 6.5696995,-8.546863 V 6.7042864 A 1.3740414,1.2836662 0 0 0 -3.28413,5.5558348 l -5.3474845,-2.422118 a 1.990498,1.8595765 0 0 0 -1.7368645,0 l -5.347262,2.422118 a 1.3740414,1.2836662 0 0 0 -0.770152,1.1484516 v 3.7413116 a 9.670853,9.0347696 0 0 0 6.5281765,8.534283 1.4413661,1.3465627 0 0 0 0.4578064,0.07321 z"
         p-id="1538"
         id="path871"
         style="fill:#fbfbfb;fill-opacity:1;stroke-width:0.0212711" />
      <g
         id="g3757"
         transform="translate(2.5,0.79334765)">
        <rect
           style="opacity:1;fill:#fbfbfb;fill-opacity:1;fill-rule:evenodd;stroke:none;stroke-width:3.24037;stroke-linecap:round;stroke-linejoin:round;paint-order:stroke fill markers"
           id="rect3749"
           width="7"
           height="1"
           x="-14.206653"
           y="-12.5"
           ry="0.5"
           transform="rotate(-90)" />
        <g
           id="g3755"
           transform="translate(0.70710691)">
          <rect
             style="opacity:1;fill:#fbfbfb;fill-opacity:1;fill-rule:evenodd;stroke:none;stroke-width:2.73861;stroke-linecap:round;stroke-linejoin:round;paint-order:stroke fill markers"
             id="rect3751"
             width="5"
             height="1"
             x="-18.227922"
             y="-4.7426405"
             ry="0.5"
             transform="rotate(-45)" />
          <rect
             style="opacity:1;fill:#fbfbfb;fill-opacity:1;fill-rule:evenodd;stroke:none;stroke-width:2.73861;stroke-linecap:round;stroke-linejoin:round;paint-order:stroke fill markers"
             id="rect3753"
             width="5"
             height="1"
             x="-0.2573595"
             y="13.227922"
             ry="0.5"
             transform="matrix(-0.70710678,-0.70710678,-0.70710678,0.70710678,0,0)" />
        </g>
      </g>
    </g>
  </g>
  <g
     id="22-22-pamac-tray-update">
    <rect
       width="22"
       height="22"
       opacity="0"
       id="rect2428"
       x="38"
       y="0" />
    <g
       id="g2"
       transform="translate(9,21)">
      <path
         d="m 33,-10 c 0,-3.86599 3.13401,-7 7,-7 3.866,0 7,3.13401 7,7 0,2.7916 -1.6342,5.2026 -4,6.3265 V -5.5 C 43,-5.7761 42.7761,-6 42.5,-6 42.2239,-6 42,-5.7761 42,-5.5 v 3 c 0,0.2761 0.2239,0.5 0.5,0.5 h 3 C 45.7761,-2 46,-2.2239 46,-2.5 46,-2.7761 45.7761,-3 45.5,-3 H 43.8758 C 46.3346,-4.3643 48,-6.9872 48,-10 c 0,-4.41828 -3.5817,-8 -8,-8 -4.41828,0 -8,3.58172 -8,8 0,0.2761 0.22386,0.5 0.5,0.5 0.27614,0 0.5,-0.2239 0.5,-0.5 z m 7,2 c 1.1046,0 2,-0.8954 2,-2 0,-1.10457 -0.8954,-2 -2,-2 -1.10457,0 -2,0.89543 -2,2 0,1.1046 0.89543,2 2,2 z m 0,-1 c -0.55228,0 -1,-0.4477 -1,-1 0,-0.55228 0.44772,-1 1,-1 0.5523,0 1,0.44772 1,1 0,0.5523 -0.4477,1 -1,1 z"
         id="path1"
         style="fill:#fbfbfb;fill-opacity:1" />
      <path
         id="path2"
         style="opacity:1;fill:#00a0ff;fill-opacity:1;fill-rule:evenodd;stroke:none;stroke-width:0.5;stroke-linecap:round;stroke-linejoin:round;paint-order:stroke fill markers"
         d="M 40 -12 A 2 2 0 0 0 38 -10 A 2 2 0 0 0 40 -8 A 2 2 0 0 0 42 -10 A 2 2 0 0 0 40 -12 z " />
    </g>
  </g>
  <g
     id="pamac-tray-update"
     transform="matrix(1.4545455,0,0,1.4545455,-20.272729,30)">
    <rect
       width="22"
       height="22"
       opacity="0"
       id="rect3"
       x="38"
       y="0" />
    <g
       id="g4"
       transform="translate(9,21)">
      <path
         d="m 33,-10 c 0,-3.86599 3.13401,-7 7,-7 3.866,0 7,3.13401 7,7 0,2.7916 -1.6342,5.2026 -4,6.3265 V -5.5 C 43,-5.7761 42.7761,-6 42.5,-6 42.2239,-6 42,-5.7761 42,-5.5 v 3 c 0,0.2761 0.2239,0.5 0.5,0.5 h 3 C 45.7761,-2 46,-2.2239 46,-2.5 46,-2.7761 45.7761,-3 45.5,-3 H 43.8758 C 46.3346,-4.3643 48,-6.9872 48,-10 c 0,-4.41828 -3.5817,-8 -8,-8 -4.41828,0 -8,3.58172 -8,8 0,0.2761 0.22386,0.5 0.5,0.5 0.27614,0 0.5,-0.2239 0.5,-0.5 z"
         id="path3"
         style="fill:#fbfbfb;fill-opacity:1;stroke:#fafafa;stroke-width:0.20625;stroke-dasharray:none;stroke-opacity:1"
         sodipodi:nodetypes="ssscsssssssscsssss" />
      <path
         id="path4"
         style="opacity:1;fill:#00a0ff;fill-opacity:1;fill-rule:evenodd;stroke:none;stroke-width:0.515625;stroke-linecap:round;stroke-linejoin:round;paint-order:stroke fill markers"
         d="M 40,-12.0625 A 2.0625003,2.0625003 0 0 0 37.9375,-10 2.0625003,2.0625003 0 0 0 40,-7.9374997 2.0625003,2.0625003 0 0 0 42.0625,-10 2.0625003,2.0625003 0 0 0 40,-12.0625 Z" />
    </g>
  </g>
</svg>
