<?xml version="1.0" encoding="UTF-8" standalone="no"?>
<svg
   viewBox="0 0 24 24"
   version="1.1"
   id="svg6"
   sodipodi:docname="nuevos iconos.svg"
   inkscape:version="1.1.2 (0a00cf5339, 2022-02-04)"
   xmlns:inkscape="http://www.inkscape.org/namespaces/inkscape"
   xmlns:sodipodi="http://sodipodi.sourceforge.net/DTD/sodipodi-0.dtd"
   xmlns="http://www.w3.org/2000/svg"
   xmlns:svg="http://www.w3.org/2000/svg">
  <defs
     id="defs10" />
  <sodipodi:namedview
     id="namedview8"
     pagecolor="#ffffff"
     bordercolor="#666666"
     borderopacity="1.0"
     inkscape:showpageshadow="2"
     inkscape:pageopacity="0.0"
     inkscape:pagecheckerboard="0"
     inkscape:deskcolor="#d1d1d1"
     showgrid="false"
     inkscape:zoom="19.666667"
     inkscape:cx="-10.525424"
     inkscape:cy="9.1271187"
     inkscape:window-width="1920"
     inkscape:window-height="1032"
     inkscape:window-x="0"
     inkscape:window-y="0"
     inkscape:window-maximized="1"
     inkscape:current-layer="svg6"
     inkscape:pageshadow="2" />
  <path
     d="m9.425 11.674c-0.133-1e-3 -0.272 6e-3 -0.417 0.025-2.304 0.301-2.233 2.306-2.233 2.306-0.944 0.163-1.715 0.998-1.715 1.872 0 0.873 0.986 1.647 1.813 1.872 0.491 0.134 1.137 0 1.137 0 0.134 0.24 0.408 0.444 0.732 0.593 0.19-0.35 0.474-0.644 0.838-0.806 0.402-0.975 1.363-1.828 2.464-1.759 0.807-0.044 1.593 0.374 2.104 1 0.938-0.313 2.324-0.071 2.727 0.99 0.268-0.056 0.533-0.035 0.781 0.042 0.088-0.018 0.162-0.039 0.223-0.063 1.369-0.535 0.943-2.209 0.032-2.774s-2.104-0.167-2.104-0.167-3e-3 -1.15-1.291-1.7-2.379 0.664-2.379 0.664-0.718-2.085-2.711-2.097zm2.703 4.905c-0.089-1e-3 -0.183 4e-3 -0.279 0.017-1.536 0.199-1.489 1.529-1.489 1.529-0.629 0.108-1.141 0.662-1.141 1.241s0.655 1.092 1.206 1.241c0.328 0.089 0.757 0 0.757 0 0.194 0.346 0.836 0.577 1.283 0.577 0.729 0 1.478-0.244 1.651-0.577 0 0 3.02 0.244 3.645 0 0.912-0.355 0.627-1.463 0.02-1.838s-1.4-0.113-1.4-0.113-3e-3 -0.763-0.862-1.128c-0.858-0.365-1.582 0.443-1.582 0.443s-0.481-1.383-1.809-1.391z"
     fill="#1c1c27"
     id="path2" />
  <path
     d="m10.406 3.999c-0.239 1.98-1.374 2.452-2.938 1.219 0.537 1.92-0.334 2.791-2.25 2.25 1.231 1.569 0.759 2.704-1.219 2.938 1.737 0.978 1.738 2.184 0 3.156 0.334 0.04 0.597 0.129 0.844 0.219 0.264-0.223 0.554-0.407 0.875-0.563 0.045-0.305-0.018-0.402 0.188-0.813 0.419-0.836 1.43-1.741 2.938-1.938 0.208-0.027 0.412-0.032 0.594-0.031 1.561 0.01 2.495 0.801 3.094 1.594 0.644-0.285 1.526-0.465 2.469-0.063 0.809 0.346 1.264 0.921 1.563 1.469 0.578-0.027 1.281 0.022 2 0.469 0.06 0.037 0.1 0.085 0.156 0.125 0.312-0.188 0.71-0.342 1.25-0.406-1.738-0.978-1.706-2.215 0.031-3.188-1.98-0.239-2.452-1.374-1.219-2.938-1.92 0.537-2.791-0.334-2.25-2.25-1.569 1.231-2.704 0.727-2.938-1.25-0.978 1.737-2.215 1.737-3.188 0z"
     id="path4"
     style="fill:#ebcb8b;fill-opacity:1" />
  <path
     id="path844"
     style="fill:#3fa4bb;stroke:none;stroke-width:0.0377953"
     d="m -29.033203,4.4746094 c -1.784061,0.00452 -3.420378,0.9920141 -4.255859,2.5683594 -0.411511,-0.1546758 -0.84749,-0.234065 -1.28711,-0.234375 -2.024785,-2.438e-4 -3.666259,1.6412298 -3.666016,3.6660152 -2.44e-4,2.024786 1.64123,3.66626 3.666016,3.666016 l 10.119141,0.002 c 1.60441,-8.49e-4 2.904526,-1.30184 2.904297,-2.90625 3.67e-4,-1.5445612 -1.207661,-2.8195115 -2.75,-2.9023436 -0.46098,-2.2461425 -2.437511,-3.8587039 -4.730469,-3.859375 z"
     sodipodi:nodetypes="ccccccccc" />
  <path
     id="path1124"
     style="fill:#3fa4bb;stroke:none;stroke-width:0.0377953"
     d="M -17.949219 -9.5585938 C -19.73328 -9.5540738 -21.369597 -8.5665798 -22.205078 -6.9902344 C -22.616589 -7.1449102 -23.052568 -7.2242995 -23.492188 -7.2246094 C -25.516973 -7.2248532 -27.158445 -5.5833787 -27.158203 -3.5585938 C -27.158447 -1.5338077 -25.516974 0.10766588 -23.492188 0.10742188 L -19.271484 0.10742188 C -19.551089 -0.33776607 -19.738456 -0.84593989 -19.804688 -1.3925781 L -23.492188 -1.3925781 C -24.706184 -1.3924321 -25.658349 -2.3445968 -25.658203 -3.5585938 C -25.658349 -4.7719289 -24.707191 -5.72372 -23.494141 -5.7246094 C -23.234408 -5.7244264 -22.975549 -5.6773223 -22.732422 -5.5859375 L -21.498047 -5.1210938 L -20.878906 -6.2871094 C -20.302157 -7.3752901 -19.180564 -8.054047 -17.949219 -8.0585938 L -17.947266 -8.0585938 C -16.40879 -8.0572674 -15.094839 -7.0234832 -14.722656 -5.5449219 C -14.419194 -6.0367207 -14.035227 -6.4613548 -13.591797 -6.8085938 C -14.37823 -8.4572961 -16.055252 -9.5580394 -17.949219 -9.5585938 z " />
  <circle
     style="fill:#3fa4bb;fill-opacity:1;stroke:none;stroke-width:3.48113;stroke-miterlimit:4;stroke-dasharray:none;stroke-opacity:1"
     id="path1488"
     cx="-8.5932207"
     cy="13.881356"
     r="6.2542372" />
  <path
     id="path1614"
     style="fill:#3fa4bb;stroke:none;stroke-width:0.0377953"
     d="m -10.625827,-7.8374634 c -1.784061,0.00452 -3.420378,0.992014 -4.255859,2.5683594 -0.411511,-0.1546758 -0.84749,-0.2340651 -1.28711,-0.234375 -2.024785,-2.438e-4 -3.666258,1.6412302 -3.666016,3.6660152 -2.44e-4,2.02478598 1.64123,3.66626 3.666016,3.666016 l 10.119141,0.00195 c 1.60441,-8.49e-4 2.904526,-1.30184002 2.904297,-2.90625 3.67e-4,-1.5445611 -1.207661,-2.8195115 -2.75,-2.9023436 -0.46098,-2.2461425 -2.437511,-3.8587039 -4.730469,-3.859375 z m 0,1.5 h 0.002 c 1.589091,0.00137 2.940253,1.1033177 3.259766,2.6601562 l 0.232422,1.1347656 1.15625,0.0625 c 0.76115,0.040878 1.330259,0.6420498 1.330078,1.4042968 1.13e-4,0.79395498 -0.610343,1.40582998 -1.404297,1.40624998 l -10.119141,-0.00195 c -1.213997,1.46e-4 -2.166162,-0.952019 -2.166016,-2.16601598 -1.46e-4,-1.2133351 0.951013,-2.1651258 2.164063,-2.1660152 0.259733,1.83e-4 0.518592,0.047287 0.761719,0.1386718 l 1.234375,0.4648438 0.61914,-1.1660156 c 0.576749,-1.0881807 1.698343,-1.7669376 2.929688,-1.7714844 z" />
</svg>
