<?xml version="1.0" encoding="UTF-8" standalone="no"?>
<svg
   width="32"
   height="32"
   viewBox="0 0 24 24"
   version="1.1"
   id="svg8"
   sodipodi:docname="weather-few-clouds-night.svg"
   inkscape:version="1.1.2 (0a00cf5339, 2022-02-04)"
   xmlns:inkscape="http://www.inkscape.org/namespaces/inkscape"
   xmlns:sodipodi="http://sodipodi.sourceforge.net/DTD/sodipodi-0.dtd"
   xmlns="http://www.w3.org/2000/svg"
   xmlns:svg="http://www.w3.org/2000/svg">
  <defs
     id="defs12" />
  <sodipodi:namedview
     id="namedview10"
     pagecolor="#ffffff"
     bordercolor="#666666"
     borderopacity="1.0"
     inkscape:pageshadow="2"
     inkscape:pageopacity="0.0"
     inkscape:pagecheckerboard="0"
     showgrid="false"
     inkscape:zoom="19.6875"
     inkscape:cx="22.4"
     inkscape:cy="15.974603"
     inkscape:window-width="1920"
     inkscape:window-height="1032"
     inkscape:window-x="0"
     inkscape:window-y="0"
     inkscape:window-maximized="1"
     inkscape:current-layer="svg8" />
  <g
     id="g6">
    <path
       d="m11.727 4.125c-4.199 0-7.602 3.527-7.602 7.875s3.402 7.875 7.602 7.875c1.156 0 2.246-0.27 3.227-0.746-2.586-1.254-4.379-3.973-4.379-7.129s1.793-5.875 4.379-7.129c-0.98-0.477-2.07-0.746-3.227-0.746"
       id="path2"
       style="fill:#1c1c27;fill-opacity:0.76261681" />
    <path
       d="m11.629 12.465c-0.141 0-0.297 4e-3 -0.453 0.023-2.492 0.324-2.418 2.465-2.418 2.465-1.023 0.172-1.852 1.063-1.852 1.996 0 0.934 1.063 1.758 1.957 1.996 0.531 0.145 1.23 0 1.23 0 0.313 0.559 1.355 0.93 2.082 0.93 1.184 0 2.402-0.395 2.68-0.93 0 0 4.906 0.395 5.922 0 1.484-0.57 1.02-2.355 0.035-2.957-0.988-0.605-2.273-0.184-2.273-0.184s-8e-3 -1.227-1.402-1.816c-1.395-0.586-2.57 0.715-2.57 0.715s-0.781-2.227-2.938-2.238"
       id="path4"
       style="fill:#1c1c27;fill-opacity:1" />
  </g>
</svg>
