<?xml version="1.0" encoding="UTF-8" standalone="no"?>
<svg
   enable-background="new"
   viewBox="0 0 24 24"
   version="1.1"
   id="svg32"
   sodipodi:docname="weather-freezing-rain.svg"
   inkscape:version="1.1.2 (0a00cf5339, 2022-02-04)"
   xmlns:inkscape="http://www.inkscape.org/namespaces/inkscape"
   xmlns:sodipodi="http://sodipodi.sourceforge.net/DTD/sodipodi-0.dtd"
   xmlns="http://www.w3.org/2000/svg"
   xmlns:svg="http://www.w3.org/2000/svg">
  <defs
     id="defs36" />
  <sodipodi:namedview
     id="namedview34"
     pagecolor="#ffffff"
     bordercolor="#666666"
     borderopacity="1.0"
     inkscape:pageshadow="2"
     inkscape:pageopacity="0.0"
     inkscape:pagecheckerboard="0"
     showgrid="false"
     inkscape:zoom="26.25"
     inkscape:cx="2.1714286"
     inkscape:cy="12.019048"
     inkscape:window-width="1920"
     inkscape:window-height="1032"
     inkscape:window-x="0"
     inkscape:window-y="0"
     inkscape:window-maximized="1"
     inkscape:current-layer="svg32" />
  <path
     d="m9.185 4.5c-0.154-1e-3 -0.311 7e-3 -0.478 0.03-2.67 0.358-2.588 2.745-2.588 2.745-1.094 0.194-1.988 1.188-1.988 2.228 0 1.039 1.143 1.96 2.1 2.228 0.57 0.159 1.313 0 1.313 0 0.338 0.621 1.454 1.034 2.232 1.034 1.268 0 2.564-0.438 2.865-1.034 0 0 5.254 0.438 6.343 0 1.586-0.637 1.093-2.629 0.038-3.302s-2.438-0.199-2.438-0.199-8e-3 -1.369-1.5-2.024-2.752 0.791-2.752 0.791-0.837-2.481-3.146-2.496z"
     id="path2"
     style="fill:#1c1c27;fill-opacity:1" />
  <circle
     cx="11.936285"
     cy="19.114286"
     r="0.5"
     id="circle4"
     style="fill:#1c1c27;fill-opacity:1" />
  <circle
     cx="6.695"
     cy="15.508"
     r=".5"
     id="circle6"
     style="fill:#1c1c27;fill-opacity:1" />
  <circle
     cx="10.797"
     cy="15"
     r=".5"
     id="circle8"
     style="fill:#1c1c27;fill-opacity:1" />
  <circle
     cx="14.322"
     cy="15.678"
     r=".5"
     style="fill:#1c1c27;fill-opacity:1"
     id="circle841" />
  <circle
     cx="8.898"
     cy="17.07"
     r=".5"
     id="circle12"
     style="fill:#1c1c27;fill-opacity:1" />
  <circle
     cx="8.831"
     cy="13.678"
     r=".5"
     id="circle14"
     style="fill:#1c1c27;fill-opacity:1" />
  <circle
     cx="12.831"
     cy="13.441"
     r=".5"
     id="circle16"
     style="fill:#1c1c27;fill-opacity:1" />
  <circle
     cx="15.881"
     cy="13.542"
     r=".5"
     id="circle18"
     style="fill:#1c1c27;fill-opacity:1" />
  <circle
     cx="6.627"
     cy="12.966"
     r=".5"
     id="circle20"
     style="fill:#1c1c27;fill-opacity:1" />
  <circle
     cx="5.712"
     cy="17.814"
     r=".5"
     id="circle22"
     style="fill:#1c1c27;fill-opacity:1" />
  <circle
     cx="17.61"
     cy="15.271"
     r=".5"
     id="circle24"
     style="fill:#1c1c27;fill-opacity:1" />
  <circle
     cx="16.22"
     cy="17.915"
     r=".5"
     id="circle26"
     style="fill:#1c1c27;fill-opacity:1" />
  <circle
     cx="12.288"
     cy="16.763"
     r=".5"
     id="circle28"
     style="fill:#1c1c27;fill-opacity:1" />
  <circle
     cx="18.322"
     cy="13.03"
     r=".5"
     id="circle30"
     style="fill:#1c1c27;fill-opacity:1" />
</svg>
