<?xml version="1.0" encoding="UTF-8" standalone="no"?>
<svg
   viewBox="0 0 24 24"
   version="1.1"
   id="svg6"
   sodipodi:docname="weather-clouds-night.svg"
   inkscape:version="1.1.2 (0a00cf5339, 2022-02-04)"
   xmlns:inkscape="http://www.inkscape.org/namespaces/inkscape"
   xmlns:sodipodi="http://sodipodi.sourceforge.net/DTD/sodipodi-0.dtd"
   xmlns="http://www.w3.org/2000/svg"
   xmlns:svg="http://www.w3.org/2000/svg">
  <defs
     id="defs10" />
  <sodipodi:namedview
     id="namedview8"
     pagecolor="#ffffff"
     bordercolor="#666666"
     borderopacity="1.0"
     inkscape:pageshadow="2"
     inkscape:pageopacity="0.0"
     inkscape:pagecheckerboard="0"
     showgrid="false"
     inkscape:zoom="26.25"
     inkscape:cx="10.742857"
     inkscape:cy="14.190476"
     inkscape:window-width="1920"
     inkscape:window-height="1032"
     inkscape:window-x="0"
     inkscape:window-y="0"
     inkscape:window-maximized="1"
     inkscape:current-layer="svg6" />
  <path
     d="m12.469 4c-4.266 0-7.719 3.582-7.719 8 0 0.864 0.13 1.689 0.375 2.469 0.248-0.199 0.518-0.389 0.813-0.531 0.045-0.305-0.018-0.402 0.188-0.813 0.419-0.836 1.43-1.741 2.938-1.938 0.208-0.027 0.412-0.032 0.594-0.031 0.677 4e-3 1.223 0.172 1.688 0.406 0.158-3.02 1.901-5.594 4.406-6.813-0.995-0.484-2.109-0.75-3.281-0.75"
     id="path2"
     style="fill:#1c1c27;fill-opacity:1" />
  <path
     d="m9.647 12.398c-0.133-1e-3 -0.272 6e-3 -0.417 0.025-2.304 0.301-2.233 2.306-2.233 2.306-0.944 0.163-1.715 0.998-1.715 1.872 0 0.873 0.986 1.647 1.813 1.872 0.491 0.134 1.137 0 1.137 0 0.134 0.24 0.408 0.444 0.732 0.593 0.19-0.35 0.474-0.644 0.838-0.806 0.402-0.975 1.363-1.828 2.464-1.759 0.807-0.044 1.593 0.374 2.104 1 0.938-0.313 2.324-0.071 2.727 0.99 0.268-0.056 0.533-0.035 0.781 0.042 0.088-0.018 0.162-0.039 0.223-0.063 1.369-0.535 0.943-2.209 0.032-2.774s-2.104-0.167-2.104-0.167-3e-3 -1.15-1.291-1.7-2.379 0.664-2.379 0.664-0.718-2.085-2.711-2.097zm2.703 4.905c-0.089-1e-3 -0.183 4e-3 -0.279 0.017-1.536 0.199-1.489 1.529-1.489 1.529-0.629 0.108-1.141 0.662-1.141 1.241s0.655 1.092 1.206 1.241c0.328 0.089 0.757 0 0.757 0 0.194 0.346 0.836 0.577 1.283 0.577 0.729 0 1.478-0.244 1.651-0.577 0 0 3.02 0.244 3.645 0 0.912-0.355 0.627-1.463 0.02-1.838s-1.4-0.113-1.4-0.113-3e-3 -0.763-0.862-1.128c-0.858-0.365-1.582 0.443-1.582 0.443s-0.481-1.383-1.809-1.391z"
     id="path4"
     style="fill:#1c1c27;fill-opacity:1" />
</svg>
