<?xml version="1.0" encoding="UTF-8"?>
<!-- Generator: Gravit.io -->
<svg id="svg6" width="44pt" height="44pt" style="isolation:isolate" version="1.1" viewBox="0 0 44 44" xmlns="http://www.w3.org/2000/svg">
 <path id="path2" d="m21.61 2.5c-0.276 6e-3 -0.502-0.214-0.505-0.49s0.219-0.504 0.495-0.51h0.4c5.43 0 10.65 2.16 14.5 6 3.84 3.85 6 9.07 6 14.5v0.01l-0.01 0.51c0 0.276-0.224 0.498-0.5 0.495s-0.5-0.229-0.5-0.505l0.01-0.51c0-5.17-2.06-10.13-5.71-13.79-3.66-3.65-8.62-5.71-13.79-5.71h-0.39z" fill="#554f49"/>
 <path id="path4" d="m22.77 41.49c0.276-6e-3 0.504 0.214 0.51 0.49s-0.214 0.5-0.49 0.5l-0.78 0.02h-0.01c-5.43 0-10.65-2.16-14.5-6-3.84-3.85-6-9.07-6-14.5v-0.01l0.01-0.65c6e-3 -0.276 0.234-0.496 0.51-0.49s0.496 0.234 0.49 0.51l-0.01 0.64c0 5.17 2.06 10.13 5.71 13.79 3.66 3.65 8.62 5.71 13.79 5.71l0.77-0.01z" fill="#554f49"/>
</svg>
